<svg width="47" height="50" viewBox="0 0 47 50" fill="none" xmlns="http://www.w3.org/2000/svg">
<path d="M47 41.9226V48.2649C43.9286 47.6472 40.9427 47.3349 38.1091 47.3349C33.3184 47.3349 28.7665 48.2302 24.5548 50V43.7294C30.429 40.6132 37.8753 40.0083 47 41.9226Z" fill="#1B9ACF"/>
<path d="M22.2224 22.4478C22.1928 22.4478 22.1633 22.4443 22.1338 22.4443C22.1054 22.4443 22.0792 22.4478 22.0508 22.449C16.0237 22.4026 11.1338 17.3889 11.1338 11.2262C11.1338 5.03569 16.068 0 22.1338 0C28.1996 0 33.1338 5.03569 33.1338 11.2262C33.1338 17.3855 28.2473 22.3991 22.2224 22.4478Z" fill="#1B9ACF"/>
<path d="M22.445 43.7294V50C15.743 47.1845 8.26591 46.6039 -0.000178023 48.2649V41.9226C9.12455 40.0083 16.5718 40.6132 22.445 43.7294Z" fill="#1B9ACF"/>
<path d="M5.64615 38.5875C6.56947 35.4748 8.09672 32.6223 10.1284 30.2603C13.6814 26.1297 18.4025 23.8486 23.427 23.8267C23.4519 23.8267 23.4747 23.8313 23.4996 23.8313C23.5255 23.8313 23.5514 23.8267 23.5772 23.8267C31.6384 23.8648 38.7314 29.8404 41.3421 38.5852C34.3655 37.9236 28.4306 38.9357 23.4996 41.6089C18.5666 38.9345 12.6277 37.9236 5.64615 38.5875Z" fill="#1B9ACF"/>
</svg>
