<svg width="47" height="51" viewBox="0 0 47 51" fill="none" xmlns="http://www.w3.org/2000/svg">
<path d="M23.5019 22.8274C29.9918 22.8274 35.2528 17.7397 35.2528 11.4637C35.2528 5.18777 29.9918 0.100098 23.5019 0.100098C17.012 0.100098 11.751 5.18777 11.751 11.4637C11.751 17.7397 17.012 22.8274 23.5019 22.8274Z" fill="#0E5C98"/>
<path d="M27.8706 40.3722L23.4993 27.7358L19.1279 40.3722V40.3949L23.4993 44.6222L27.8706 40.3949V40.3722Z" fill="#0E5C98"/>
<path d="M28.1985 25.1001H27.5404L32.7343 40.1456C32.9037 40.5628 32.945 41.0185 32.8533 41.4579C32.7616 41.8973 32.5407 42.3017 32.2173 42.6228L24.4852 50.1001H44.6498C45.2726 50.0984 45.8693 49.8584 46.3097 49.4325C46.75 49.0067 46.9982 48.4296 47 47.8274V43.2819C46.9934 38.4618 45.0104 33.8408 41.4859 30.4325C37.9613 27.0241 33.1829 25.1065 28.1985 25.1001Z" fill="#0E5C98"/>
<path d="M14.7827 42.6228C14.4592 42.3018 14.2384 41.8973 14.1467 41.4579C14.055 41.0185 14.0963 40.5628 14.2656 40.1456L19.4596 25.1001H18.8015C13.8171 25.1065 9.03865 27.0241 5.51412 30.4325C1.98958 33.8408 0.0065913 38.4618 0 43.2819V47.8274C0.00179818 48.4296 0.249984 49.0067 0.690341 49.4325C1.1307 49.8584 1.72743 50.0984 2.35019 50.1001H22.5383C22.5383 50.1001 21.0363 48.6703 14.7827 42.6228Z" fill="#0E5C98"/>
</svg>
