<svg width="365" height="342" viewBox="0 0 365 342" fill="none" xmlns="http://www.w3.org/2000/svg">
<path d="M114.744 210.606C120.499 207.306 128.171 208.17 128.171 207.978C149.425 207.786 155.64 235.523 134.923 242.717C134.622 249.28 133.981 255.824 133.005 262.321C132.945 262.949 132.685 263.54 132.264 264.01C131.843 264.479 131.282 264.802 130.665 264.93C127.73 265.85 119.443 264.93 118.542 263.338C116.624 259.846 119.213 246.074 120.019 242.065C111.425 238.919 105.978 231.802 107.896 222.326C108.682 218.451 109.622 213.579 114.744 210.606ZM27.465 112.815C28.9229 109.88 41.4872 104.893 45.151 105.277C45.3988 105.284 45.6413 105.35 45.8582 105.47C46.0751 105.591 46.2601 105.761 46.3978 105.967C48.8531 109.804 59.4225 136.889 59.0197 139.191C58.7895 140.553 53.8021 143.027 52.6128 143.583C51.4235 144.14 48.4503 145.502 47.3186 144.869C44.1919 142.912 25.9496 115.884 27.465 112.815ZM28.9037 114.004C30.5533 119.069 45.1126 141.205 48.0858 143.334C51.4058 142.416 54.523 140.88 57.2741 138.807C56.6986 135.431 47.2034 107.578 45.4387 106.082C44.1918 104.989 28.0213 111.223 28.8461 114.004H28.9037ZM37.3246 172.817C33.6033 173.181 2.45148 162.765 1.76091 159.389C1.07036 156.013 8.68567 143.564 11.5246 142.567C11.776 142.5 12.0405 142.5 12.2919 142.567C15.8406 143.641 41.8708 159.102 42.9834 161.327C43.6356 162.535 41.2186 167.484 40.6048 168.654C39.991 169.825 38.629 172.606 37.3246 172.817ZM41.5255 161.998C39.0319 159.716 14.1718 143.334 11.8699 143.219C10.1435 143.219 1.20464 157.797 3.6216 159.466C8.11021 162.516 33.3539 171.225 37.0369 171.091C39.093 168.37 40.6159 165.285 41.5255 161.998ZM0.725067 196.641C3.8134 194.723 33.1429 186.091 35.5023 186.686C36.8259 187.012 38.9168 192.057 39.3388 193.323C39.7608 194.589 41.0268 197.581 40.2211 198.655C37.996 201.629 9.26114 217.435 6.2879 215.689C3.31467 213.943 -0.502563 201.533 0.0537109 197.83C0.0765991 197.596 0.148132 197.37 0.263748 197.165C0.379364 196.96 0.536484 196.782 0.725067 196.641ZM7.74574 214.346C12.9249 213.157 36.519 200.593 38.9359 197.696C38.2456 194.366 36.9449 191.192 35.0995 188.335C31.3782 188.642 2.48984 196.008 1.07036 197.351C-0.349121 198.694 4.8876 214.979 7.74574 214.346ZM255.982 28.5479C255.971 28.6738 255.935 28.7963 255.876 28.9083C255.817 29.0204 255.737 29.1197 255.64 29.2008C255.543 29.2818 255.431 29.343 255.31 29.3807C255.19 29.4184 255.063 29.432 254.937 29.4207C254.811 29.4093 254.688 29.3733 254.576 29.3146C254.464 29.256 254.365 29.1758 254.284 29.0787C254.203 28.9816 254.142 28.8696 254.104 28.7488C254.066 28.6281 254.053 28.5012 254.064 28.3752C254.064 27.9724 254.179 27.608 254.275 27.1092C254.322 26.8592 254.464 26.6373 254.672 26.4905C254.879 26.3437 255.136 26.2835 255.387 26.3228C255.636 26.3694 255.857 26.5125 256 26.7209C256.144 26.9293 256.2 27.1861 256.155 27.4353C256.078 28.03 256.02 28.2602 255.982 28.5479ZM247.043 34.2833C246.276 33.6695 246.679 30.9073 246.871 29.9482C247.094 28.7438 247.481 27.5756 248.022 26.4762C248.042 26.3948 248.094 26.3248 248.166 26.2817C248.238 26.2385 248.324 26.2257 248.405 26.246C248.487 26.2664 248.557 26.3182 248.6 26.3902C248.643 26.4621 248.656 26.5483 248.635 26.6297C248.61 27.8491 248.513 29.0659 248.348 30.2743C248.348 30.2743 248.002 33.1516 248.022 33.3242C248.022 33.823 249.94 33.6887 250.093 34.2066C250.247 34.7245 247.906 35.0123 247.043 34.2833ZM244.684 27.8957C244.684 28.1501 244.583 28.394 244.403 28.5739C244.223 28.7537 243.979 28.8548 243.725 28.8548C243.47 28.8548 243.226 28.7537 243.047 28.5739C242.867 28.394 242.766 28.1501 242.766 27.8957C242.742 27.4548 242.742 27.013 242.766 26.5721C242.794 26.3212 242.917 26.0906 243.11 25.9269C243.302 25.7631 243.549 25.6784 243.801 25.6897C243.928 25.6994 244.05 25.7339 244.163 25.7913C244.276 25.8487 244.376 25.9278 244.458 26.0241C244.54 26.1204 244.602 26.2319 244.641 26.3523C244.68 26.4727 244.694 26.5995 244.684 26.7256C244.658 27.1152 244.658 27.5061 244.684 27.8957Z" fill="black"/>
<path d="M56.9243 178.858C60.7228 177.893 64.613 177.334 68.5295 177.189C82.9161 171.434 136.415 176.921 151.972 179.107C152.567 172.892 153.43 163.762 153.43 162.879C153.602 144.618 145.949 134.605 135.936 130.653C119.65 131.612 103.192 143.985 104.477 160.692C104.477 160.807 104.477 161.057 104.055 161.153C102.271 161.613 82.1297 162.074 77.4108 159.465C70.582 159.215 63.7339 158.41 63.4462 156.453C62.6022 150.909 65.7864 138.575 67.8389 133.933C79.54 107.385 112.553 96.0677 140.443 103.088C157.707 104.009 174.434 111.26 185.234 125.512C196.033 139.765 194.614 171.549 192.254 189.408C193.186 189.993 193.869 190.902 194.173 191.959C198.508 214.652 181.11 281.099 171.787 294.507C165.725 303.216 79.7127 304.942 58.8809 288.753C54.2196 285.108 48.2347 198.405 52.0904 183.251C52.7234 181.025 53.4139 179.932 56.9243 178.858ZM183.853 126.567C158.571 93.1136 98.6838 99.1944 81.9186 136.389C79.8853 140.896 76.6627 153.02 77.4108 158.275C77.7178 160.596 100.161 161.153 103.767 160.52C101.446 126.855 168.142 110.147 168.027 164.855C168.027 169.689 166.378 181.275 166.359 181.467C177.196 183.481 186.001 185.859 190.643 188.411C192.926 170.686 194.077 139.995 183.853 126.567ZM72.9606 285.165C89.9368 298.382 165.61 300.665 170.598 293.586C179.748 280.619 197.453 215.189 193.137 192.823C190.873 180.93 74.5911 170.705 67.3402 179.836C62.1035 186.396 69.2392 282.269 72.9606 285.165Z" fill="black"/>
<path d="M184.218 84.368C186.711 78.7284 200.177 60.2752 206.085 59.9682C207.735 59.9682 213.47 62.8647 221.431 67.6411C223.119 64.7254 226.342 64.5144 229.833 65.5502C231.882 66.2456 233.773 67.3409 235.396 68.7729C239.946 64.8445 244.965 61.4941 250.338 58.7981L249.648 51.5089C249.456 51.3938 249.648 51.3938 248.209 51.3746C247.454 51.2212 246.741 50.9072 246.118 50.4539C245.253 50.0356 244.42 49.5548 243.625 49.0152C242.787 48.5452 241.974 48.0331 241.189 47.4807C239.807 46.253 240.229 44.7376 239.999 43.5291C239.462 40.882 238.081 36.9305 239.731 35.8563C238.94 32.2506 238.433 28.5883 238.215 24.9032C236.527 24.9032 235.108 22.2561 235.664 21.2395C235.349 20.8845 235.138 20.4499 235.054 19.983C234.969 19.5162 235.014 19.0351 235.185 18.5923C234.225 17.9209 234.206 16.0411 234.417 14.9861C234.417 14.7367 234.417 14.8902 234.264 14.4873C233.497 13.1638 233.535 10.6509 235.242 10.4399C235.554 10.4014 235.87 10.4014 236.182 10.4399C235.913 8.52168 236.662 8.02295 237.947 7.23648C238.497 6.82673 239.183 6.64158 239.865 6.71856C240.229 6.23901 240.306 5.18399 241.783 5.1648C243.26 5.14562 242.838 5.60599 244.008 4.07142C244.305 3.52056 244.754 3.06669 245.302 2.76398C245.849 2.46127 246.472 2.32249 247.097 2.36421C247.481 2.43521 247.851 2.57145 248.19 2.76703C248.21 2.45349 248.306 2.14952 248.47 1.88183C248.635 1.61415 248.862 1.39094 249.133 1.23182C249.404 1.07271 249.71 0.982558 250.024 0.969291C250.337 0.956023 250.65 1.02004 250.933 1.15573C251.374 1.32837 252.007 1.75038 252.276 1.84629C252.276 0.772087 253.695 -0.378842 255.518 0.119894C256.323 0.35008 257.033 0.88718 257.935 1.21328C258.261 1.32837 258.913 0.177441 259.853 0.445991C260.793 0.714541 262.174 2.01893 262.634 2.03811C262.926 1.83301 263.275 1.72557 263.632 1.7312C264.739 2.11658 265.766 2.70172 266.662 3.45759C267.089 3.27115 267.549 3.1749 268.015 3.1749C268.48 3.1749 268.941 3.27115 269.367 3.45759C270.672 4.10978 270.288 5.14562 270.384 6.25819C270.844 6.54592 272.302 6.54592 272.839 6.8912C274.105 7.6393 273.817 8.36822 274.278 9.23142C274.738 10.0946 275.256 10.1713 275.429 11.3223C275.499 11.7029 275.466 12.0952 275.335 12.4592C275.203 12.8231 274.977 13.1457 274.681 13.394C275.059 13.4151 275.428 13.5208 275.76 13.7034C276.092 13.886 276.378 14.1408 276.599 14.449C276.818 14.8404 276.949 15.2751 276.982 15.7225C277.015 16.1699 276.95 16.6191 276.791 17.0386C277.357 17.3262 277.817 17.7853 278.106 18.3503C278.396 18.9152 278.499 19.5572 278.402 20.1844C278.358 20.3691 278.268 20.5397 278.141 20.6805C278.013 20.8212 277.852 20.9277 277.673 20.9901C278.035 21.6906 278.165 22.488 278.044 23.2671C277.923 24.0463 277.558 24.767 277.002 25.3253C276.77 25.4449 276.514 25.5105 276.254 25.5171C276.282 25.945 276.282 26.3744 276.254 26.8023C276.158 28.0491 274.757 28.0299 274.546 28.1259C274.431 28.5287 275.083 29.8522 274.93 30.6771C274.847 30.9915 274.689 31.281 274.47 31.5211C275.294 33.1708 273.261 33.4393 273.069 33.5352C268.063 37.2566 269.233 36.2207 268.446 36.8921C268.638 38.3691 271.918 48.6891 272.475 51.7583C279.508 50.6752 286.669 50.7141 293.69 51.8734C306.868 53.1202 338.692 72.4942 339.574 76.8102C339.621 77.7773 339.423 78.7405 338.998 79.6108C345.348 84.1761 353.27 90.794 353.021 98.3134C352.7 105.765 351.549 113.158 349.587 120.354C364.53 131.959 369.632 155.035 358.564 173.277C356.034 180.247 351.816 186.482 346.288 191.424C337.31 199.691 322.809 201.629 310.551 199.883C312.278 214.999 314.253 228.311 316.21 231.725C329.407 254.744 359.715 304.33 359.389 305.346C358.967 306.747 356.512 308.684 354.018 310.372C357.337 314.209 360.809 318.294 361.173 318.966C362.823 322.208 341.07 344.996 335.143 340.949C331.306 338.397 339.248 328.02 340.706 325.123C339.859 323.15 338.714 321.319 337.31 319.695C331.345 322.572 331.153 322.265 330.366 321.498C325.763 316.99 305.161 294.144 299.483 287.718C278.862 264.373 273.913 259.328 260.505 225.031C259.028 218.048 257.11 196.66 255.844 189.87C255.844 189.788 255.811 189.71 255.754 189.653C255.696 189.595 255.618 189.563 255.537 189.563C255.455 189.563 255.377 189.595 255.32 189.653C255.262 189.71 255.23 189.788 255.23 189.87C255.23 190.445 255.997 215.478 259.335 226.585C255.192 244.347 241.764 319.081 239.27 321.594C238.815 321.905 238.267 322.054 237.717 322.016C234.807 321.939 231.905 321.683 229.027 321.249C227.915 335.635 227.915 335.616 227.224 336.134C224.404 338.282 202.863 339.376 195.784 334.868C193.866 333.679 192.945 332.01 194.403 330.36C197.012 327.406 206.987 325.929 208.943 325.296C209.782 323.078 210.305 320.754 210.497 318.39C203.189 317.143 202.402 317.009 202.172 316.472C201.347 314.822 214.41 212.888 217.173 195.989C220.14 179.941 224.028 164.077 228.816 148.475C227.531 147.899 227.166 147.477 227.128 145.789C227.208 143.025 227.478 140.269 227.934 137.541C217.767 138.251 210.67 135.623 205.567 126.741C201.251 119.26 206.948 105.257 210.996 97.642C209.171 96.0606 207.191 94.6661 205.088 93.4795C202.345 95.4936 198.24 101.498 196.245 100.423C191.238 97.7955 181.858 89.7006 184.218 84.368ZM336.025 336.805C335.373 338.723 335.335 339.932 337.023 339.836C343.564 339.472 358.123 324.203 359.888 319.503C359.619 319.004 358.104 317.067 356.224 314.727C353.347 318.41 346.94 323.819 342.144 325.123C342.164 326.063 337.502 332.297 336.025 336.805ZM341.511 323.857C346.268 322.783 353.021 317.546 355.821 314.266L353.193 311.005C348.343 314.042 343.336 316.821 338.193 319.33C339.434 320.735 340.545 322.251 341.511 323.857ZM197.338 330.168C196.648 330.494 195.171 331.319 195.266 332.086C195.842 336.69 220.568 337.841 226.438 335.021C226.591 334.465 226.898 332.048 227.262 329.056C222.582 329.612 214.238 328.806 209.998 326.313C209.154 327.003 201.482 328.135 197.319 330.168H197.338ZM211.418 318.544C211.296 320.715 210.956 322.868 210.401 324.97C214.525 327.617 223.042 328.806 227.339 328.403C227.608 326.063 227.915 323.435 228.164 321.133C222.716 320.424 216.271 319.369 211.399 318.544H211.418ZM229.583 66.4518C222.639 64.054 221.911 68.6961 221.7 68.5235C220.917 70.5817 220.42 72.7373 220.222 74.9303C220.254 75.1763 220.354 75.4086 220.509 75.6016C220.665 75.7946 220.871 75.9407 221.105 76.0237C221.757 76.3114 222.85 73.7219 223.023 72.7819L223.349 71.5351C223.4 71.3892 223.503 71.267 223.638 71.1916C223.773 71.1163 223.931 71.0929 224.082 71.1259C224.233 71.159 224.367 71.2461 224.458 71.371C224.549 71.4958 224.591 71.6497 224.577 71.8036C223.982 76.4265 223.79 78.3831 224.577 79.0161C224.941 79.2847 225.114 79.2271 225.363 79.0161C226.357 77.4175 226.943 75.5997 227.071 73.7219C227.473 68.2741 228.989 66.8546 228.452 76.1772C228.452 77.0212 228.202 79.0737 228.95 79.5149C229.698 79.9561 229.929 78.901 230.178 78.4407C230.913 76.8915 231.255 75.1853 231.176 73.4725C231.187 73.3396 231.232 73.2118 231.308 73.1019C231.383 72.9919 231.486 72.9035 231.606 72.8454C231.726 72.7873 231.859 72.7615 231.992 72.7706C232.125 72.7796 232.254 72.8232 232.365 72.897C233.052 73.3312 233.695 73.8324 234.283 74.3932C235.223 75.4482 237.889 76.8869 238.637 75.6401C239.385 74.3932 234.36 68.1015 229.583 66.4518ZM249.437 43.3373C249.84 43.5247 250.277 43.6291 250.722 43.6442C251.19 43.5974 251.64 43.4388 252.034 43.1818C252.428 42.9247 252.754 42.5768 252.986 42.1672C253.166 41.767 253.276 41.3387 253.312 40.9012C253.331 40.8647 253.342 40.8248 253.346 40.7838C253.349 40.7428 253.344 40.7016 253.332 40.6624C253.32 40.6232 253.299 40.5868 253.273 40.5554C253.246 40.524 253.214 40.4981 253.177 40.4792C253.141 40.4603 253.101 40.4488 253.06 40.4453C253.019 40.4418 252.978 40.4464 252.939 40.4589C252.899 40.4714 252.863 40.4914 252.832 40.518C252.8 40.5445 252.774 40.5769 252.755 40.6134C252.755 40.7094 251.278 41.7836 251.183 41.8603C251.087 41.937 249.552 42.6084 249.379 42.6659C249.29 42.6736 249.208 42.7162 249.15 42.7846C249.093 42.8529 249.065 42.9414 249.072 43.0304C249.08 43.1194 249.123 43.2018 249.191 43.2593C249.259 43.3169 249.348 43.3449 249.437 43.3373ZM267.2 37.0456C267.169 36.8711 267.176 36.6922 267.218 36.5204C267.261 36.3486 267.34 36.1877 267.449 36.0481C269.367 34.0148 274.067 32.9214 272.072 28.9123C271.496 27.723 270.633 27.723 269.597 28.4903C269.271 28.7397 267.871 31.406 266.221 29.7755C266.025 29.5494 265.905 29.2678 265.876 28.9699C265.684 28.8356 263.478 27.8765 264.246 26.1885C264.495 25.6322 264.648 25.8432 264.246 25.6322C261.368 24.3086 264.246 23.196 261.771 22.1986C260.774 21.7766 260.658 21.1244 260.505 19.9351C258.817 20.3379 258.759 18.669 258.587 18.7266C256.803 19.0911 257.244 19.4747 255.153 17.8634C254.079 18.1128 252.775 19.0719 251.509 18.5731C251.05 18.3555 250.639 18.0491 250.3 17.6716C248.957 19.0143 248.056 18.4005 246.675 17.4989C245.716 18.4005 245.178 19.0335 243.682 18.6499C243.222 20.5681 242.244 20.5681 240.958 20.2036L240.038 21.7382C240.153 22.8124 240.498 24.1743 239.155 24.6731C239.541 28.3703 240.182 32.0364 241.074 35.6453C241.36 35.8444 241.596 36.107 241.764 36.4125C243.471 37.6402 242.32 36.0289 246.617 35.6453C248.248 35.511 249.264 36.3934 250.626 36.7578C252.056 36.6449 253.493 36.6449 254.923 36.7578C257.206 37.1223 259.297 38.9638 260.524 38.465C260.524 38.465 261.138 38.0622 261.368 37.9855C261.417 37.9608 261.47 37.9472 261.524 37.9457C261.579 37.9442 261.632 37.9549 261.682 37.977C261.732 37.999 261.776 38.0319 261.811 38.0732C261.846 38.1145 261.872 38.1632 261.886 38.2157C261.982 39.2365 261.982 40.264 261.886 41.2848C261.886 42.7043 260.908 42.9728 260.217 43.3181C259.68 44.4691 259.949 45.62 259.143 46.9819C258.721 47.6725 258.184 47.7876 257.628 48.1712C257.059 48.6263 256.456 49.0367 255.825 49.3989C254.271 50.2045 253.657 51.6432 251.087 51.4897C251.221 52.468 251.393 54.4821 251.854 58.8557C251.854 59.0475 249.725 73.8178 254.463 73.5108C261.963 73.0121 269.712 59.8148 271.151 52.4105C270.767 49.4756 267.334 39.0213 267.123 37.0456H267.2ZM272.782 52.5831C271.228 60.6972 263.018 74.4124 254.654 74.9687C249.379 75.2948 249.61 65.7613 250.338 59.9299C249.303 60.4862 248.286 61.0424 247.327 61.5987C246.732 67.8329 246.675 77.5583 252.909 77.8844C261.311 78.4215 268.542 69.3291 273.031 62.2126C275.136 58.9696 276.941 55.5409 278.421 51.9693C276.407 52.1036 274.527 52.3146 272.705 52.5831H272.782ZM338.653 77.0404C338.039 73.8753 308.134 54.5013 293.767 52.5064C288.881 51.8321 283.941 51.633 279.016 51.9117C279.188 52.9476 268.216 80.4548 252.717 79.3998C245.389 78.8243 245.466 69.3867 246.56 62.0207C242.945 64.1976 239.524 66.6813 236.335 69.4442C238.081 70.8508 239.407 72.7083 240.172 74.8152C240.24 75.1478 240.234 75.4915 240.153 75.8212C240.072 76.1509 239.918 76.4583 239.703 76.7211C239.488 76.9839 239.217 77.1954 238.91 77.3402C238.603 77.4851 238.267 77.5596 237.928 77.5583C258.395 90.4487 283.965 107.387 299.502 117.208C302.239 115.316 305.187 113.752 308.288 112.547C307.175 104.279 307.137 103.972 307.233 103.704C300.423 99.2533 292.098 92.5012 288.684 86.0944C288.63 86.0374 288.6 85.9618 288.6 85.8833C288.6 85.8049 288.63 85.7293 288.684 85.6723C289.086 85.423 288.952 85.845 291.216 88.3003C294.342 91.6572 310.858 106.83 315.347 107.655C321.562 105.008 339.382 80.7809 338.653 77.0404ZM308.767 105.468C308.921 106.754 309.247 109.094 309.65 112.048C314.114 110.49 318.832 109.787 323.557 109.976C323.41 109.039 323.07 108.142 322.558 107.343C322.046 106.544 321.374 105.86 320.584 105.334C319.242 106.779 317.674 107.997 315.941 108.94C314.484 109.535 310.11 106.408 308.767 105.468ZM352.042 98.275C352.407 91.1584 344.619 84.5598 338.903 80.2246C336.198 86.4396 327.662 98.1407 321.312 104.586C322.835 105.662 323.966 107.204 324.535 108.979C325.59 112.451 315.251 162.459 313.736 165.489C313.467 166.046 312.853 165.988 312.259 165.796C310.916 165.374 306.082 163.226 305.756 164.952C305.756 165.509 306.523 166.468 306.926 166.87C309.458 169.441 311.031 169.364 310.762 170.419C309.901 173.018 308.517 175.414 306.696 177.459C306.147 177.865 305.539 178.182 304.893 178.399C305.118 178.703 305.401 178.959 305.725 179.153C306.05 179.348 306.409 179.476 306.783 179.531C307.158 179.587 307.539 179.568 307.906 179.475C308.272 179.383 308.617 179.219 308.921 178.994C310.843 177.304 312.403 175.242 313.505 172.932C313.547 172.84 313.606 172.757 313.68 172.688C313.753 172.619 313.84 172.565 313.934 172.529C314.029 172.494 314.129 172.477 314.23 172.48C314.331 172.484 314.43 172.507 314.522 172.548C314.617 172.589 314.702 172.649 314.772 172.725C314.842 172.8 314.896 172.889 314.931 172.987C314.965 173.084 314.979 173.187 314.971 173.29C314.963 173.393 314.935 173.493 314.886 173.584C313.779 176.058 312.15 178.263 310.11 180.049C310.156 180.251 310.244 180.443 310.367 180.61C310.491 180.777 310.647 180.918 310.827 181.022C311.007 181.127 311.207 181.193 311.413 181.217C311.62 181.241 311.829 181.222 312.028 181.161C313.851 180.643 316.037 176.96 316.958 175.502C317.068 175.329 317.241 175.207 317.441 175.162C317.64 175.117 317.85 175.153 318.023 175.263C318.196 175.372 318.318 175.546 318.363 175.745C318.408 175.945 318.372 176.154 318.263 176.327C317.113 178.153 316.131 180.079 315.328 182.082C315.117 182.657 315.98 183.386 317.246 183.003C320.948 181.833 322.713 170.937 323.001 170.189C323.864 168.386 350.124 136.16 352.042 98.275ZM313.985 154.728C313.985 155.495 313.755 156.493 313.045 156.8C310.738 157.495 308.338 157.832 305.928 157.797C306.063 159.351 306.216 161.039 306.37 162.842C308.523 162.947 310.637 163.455 312.604 164.338C313.237 162.42 316.018 150.24 318.627 137.809C316.726 137.779 314.835 138.091 313.045 138.73C313.774 144.03 314.088 149.379 313.985 154.728ZM311.606 139.382C308.258 140.832 305.495 143.366 303.761 146.576C303.153 149.828 303.075 153.158 303.531 156.435C306.488 156.561 309.449 156.251 312.316 155.515C312.892 153.807 312.431 147.247 311.606 139.325V139.382ZM324.132 171.8C328.247 171.781 332.207 170.229 335.239 167.446C336.126 166.567 336.941 165.618 337.675 164.607C338.746 160.153 338.48 155.482 336.908 151.179C333.13 157.933 328.94 164.448 324.362 170.688C324.266 171.035 324.189 171.387 324.132 171.743V171.8ZM228.701 146.346C229.027 149.606 272.82 154.383 278.018 154.882C278.392 150.926 279.349 147.048 280.857 143.372L233.477 114.791C231.137 126.818 228.337 142.547 228.701 146.346ZM206.91 126.032C211.725 134.395 218.419 136.812 228.01 136.16C228.471 136.16 227.665 136.793 232.154 113.985L231.06 113.333C229.775 115.117 224.941 121.754 223.138 123.039C221.68 124.075 218.995 121.984 217.575 120.891C214.464 118.343 211.517 115.601 208.752 112.681C208.616 112.554 208.52 112.39 208.476 112.21C208.432 112.029 208.441 111.84 208.502 111.664C209.442 109.247 213.394 102.744 214.257 101.152C213.685 100.229 212.966 99.4065 212.128 98.7162C208.541 105.737 202.959 119.222 206.91 126.032ZM196.878 98.908C199.928 97.0857 203.592 91.2352 205.433 91.8298C207.275 92.4245 214.334 97.7955 215.676 100.136C215.817 100.341 215.913 100.573 215.959 100.817C216.005 101.062 216 101.313 215.945 101.555C215.849 101.939 211.591 109.036 210.344 111.818C212.262 113.736 219.494 121.006 222.141 121.524C225.026 118.421 227.674 115.106 230.063 111.607C230.191 111.421 230.387 111.291 230.608 111.245C230.829 111.198 231.06 111.239 231.252 111.357L282.507 142.241C282.689 142.349 282.828 142.518 282.898 142.717C282.968 142.917 282.965 143.136 282.891 143.334C282.756 141.742 275.985 161.077 281.97 175.464C284.003 180.394 286.804 188.892 297.143 194.128C302.725 196.948 310.57 198.79 321.428 198.655C329.676 198.655 338.998 195.855 345.175 190.215C349.399 186.583 352.836 182.128 355.277 177.121C357.718 172.114 359.111 166.661 359.37 161.097C359.773 150.029 355.533 137.637 346.46 130.137C344.075 136.728 341.215 143.139 337.905 149.319C339.957 153.812 340.571 158.83 339.661 163.686C338.751 168.541 336.362 172.997 332.822 176.442C329.57 179.476 325.317 181.21 320.871 181.315C320.194 182.696 319.034 183.781 317.61 184.365C317.197 184.558 316.743 184.646 316.287 184.621C315.832 184.597 315.39 184.459 315 184.222C314.611 183.984 314.286 183.654 314.056 183.261C313.825 182.867 313.695 182.423 313.678 181.967C313.298 182.305 312.842 182.548 312.349 182.674C311.856 182.8 311.339 182.806 310.843 182.691C310.347 182.577 309.886 182.345 309.498 182.015C309.11 181.686 308.807 181.268 308.614 180.797C307.497 181.205 306.264 181.154 305.185 180.654C304.106 180.154 303.27 179.246 302.859 178.13C302.859 177.21 304.125 177.037 304.95 176.634C302.597 174.26 300.882 171.331 299.963 168.117C298.209 162.247 298.445 155.962 300.634 150.24C302.118 146.896 304.28 143.898 306.983 141.435C310.306 138.553 314.519 136.901 318.915 136.754C320.181 130.405 321.447 123.922 322.329 118.896C305.353 116.786 296.702 126.454 295.589 125.744C272.782 111.511 210.19 72.0338 204.455 69.3867C202.537 70.998 190.74 85.0585 186.577 89.5855C189.47 93.2427 192.951 96.3932 196.878 98.908Z" fill="black"/>
</svg>
