<svg width="25" height="25" viewBox="0 0 25 25" fill="none" xmlns="http://www.w3.org/2000/svg">
<g clip-path="url(#clip0_14_365)">
<path d="M15.6198 10.1582H14.8386V8.59583C14.8386 6.87252 13.4371 5.47107 11.7138 5.47107C9.99054 5.47107 8.58909 6.87252 8.58909 8.59583V10.1582H7.8079C7.37668 10.1582 7.02671 10.5082 7.02671 10.9394V17.1889C7.02671 17.6201 7.37668 17.9701 7.8079 17.9701H15.6198C16.051 17.9701 16.401 17.6201 16.401 17.1889V10.9394C16.401 10.5082 16.051 10.1582 15.6198 10.1582ZM10.1515 8.59583C10.1515 7.73496 10.8514 7.03345 11.7138 7.03345C12.5763 7.03345 13.2762 7.73496 13.2762 8.59583V10.1582H10.1515V8.59583ZM14.8386 16.4077H8.58909V11.7206H14.8386V16.4077Z" fill="black"/>
<path d="M24.4979 7.87033C24.0964 7.70941 23.6417 7.9047 23.4839 8.30624L23.0168 9.47489C21.6747 4.47685 17.1204 0.783386 11.7067 0.783386C5.24472 0.783386 -0.0111237 6.03922 -0.0111237 12.5012C-0.0111237 18.9632 5.24472 24.2191 11.7067 24.2191C14.8362 24.2191 17.7781 23.0004 19.9936 20.7865C20.2982 20.4818 20.2982 19.9866 19.9936 19.6819C19.6889 19.3772 19.1936 19.3772 18.889 19.6819C16.9688 21.6005 14.4174 22.6567 11.7067 22.6567C6.10715 22.6567 1.55125 18.1008 1.55125 12.5012C1.55125 6.90166 6.10715 2.34576 11.7067 2.34576C16.5829 2.34576 20.6654 5.80174 21.6387 10.392L20.0717 8.82338C19.767 8.51872 19.2717 8.51872 18.9671 8.82338C18.6624 9.12805 18.6624 9.62332 18.9671 9.92798L22.0918 13.0527C22.109 13.0699 22.1325 13.0762 22.1512 13.0918C22.2106 13.1418 22.2715 13.1902 22.3434 13.2199C22.4371 13.2621 22.5402 13.2824 22.6434 13.2824C22.6949 13.2824 22.748 13.2777 22.8012 13.2668C22.823 13.2621 22.8387 13.2449 22.859 13.2387C22.9386 13.2152 23.0105 13.1793 23.0777 13.134C23.1074 13.1137 23.1371 13.0996 23.1636 13.0762C23.2496 12.9981 23.3214 12.9059 23.3667 12.7965C23.3667 12.7949 23.3683 12.7934 23.3699 12.7918L24.9322 8.88588C25.0932 8.48591 24.8994 8.03126 24.4979 7.87033Z" fill="black"/>
</g>
<defs>
<clipPath id="clip0_14_365">
<rect width="25" height="25" fill="white"/>
</clipPath>
</defs>
</svg>
