<svg width="51" height="41" viewBox="0 0 51 41" fill="none" xmlns="http://www.w3.org/2000/svg">
<path fill-rule="evenodd" clip-rule="evenodd" d="M39.7187 22.9061C41.7589 19.372 35.3776 11.8661 25.4651 6.14287C15.5497 0.419732 5.86037 -1.35441 3.8201 2.17961C2.68693 4.13694 1.55661 6.09712 0.426283 8.0573C-1.61398 11.5914 4.76733 19.0944 14.6827 24.8176C24.5952 30.5408 34.2873 32.3179 36.3277 28.7837C37.458 26.8236 38.5884 24.8662 39.7187 22.9061Z" fill="#FE9923"/>
<path fill-rule="evenodd" clip-rule="evenodd" d="M39.727 22.8994C41.2837 20.2067 37.9442 15.2046 31.8805 10.4458C30.2409 11.2098 28.5668 12.0797 26.8871 13.0498C20.9923 16.4523 16.1991 20.4098 13.3003 23.9839C13.7553 24.2644 14.2189 24.5391 14.691 24.8109C20.1738 27.9758 25.5879 29.9331 29.6771 30.454C31.5085 29.6241 33.3857 28.6626 35.2715 27.5752C36.2043 27.0344 37.1086 26.482 37.9843 25.9183L39.727 22.8994Z" fill="#CE7C1D"/>
<path fill-rule="evenodd" clip-rule="evenodd" d="M25.4537 6.14296C15.5382 0.419728 5.84887 -1.35441 3.80861 2.1796C1.76834 5.71077 8.14966 13.2167 18.065 18.9399C27.9776 24.6631 37.6697 26.4402 39.7072 22.906C41.7474 19.372 35.3661 11.8661 25.4537 6.14296Z" fill="#FECD3D"/>
<path fill-rule="evenodd" clip-rule="evenodd" d="M18.2603 19.0363C28.1127 24.6765 37.699 26.4106 39.725 22.8994C41.2817 20.2067 37.9422 15.2046 31.8785 10.4458C30.2389 11.2098 28.5648 12.0797 26.8851 13.0498C23.6285 14.927 20.7097 16.976 18.2603 19.0363Z" fill="#CEA732"/>
<path fill-rule="evenodd" clip-rule="evenodd" d="M23.754 9.13159C15.8674 4.57872 8.59325 2.41253 7.50582 4.29548C6.42125 6.17843 11.9327 11.3951 19.8192 15.9479C27.7058 20.5006 34.98 22.6668 36.0673 20.784C37.1547 18.9039 31.6405 13.6872 23.754 9.13159Z" fill="#FEA832"/>
<path fill-rule="evenodd" clip-rule="evenodd" d="M21.2104 16.7263C28.539 20.7355 35.0347 22.5468 36.0563 20.7755C36.9063 19.3018 33.7128 15.7849 28.5018 12.1421C27.9639 12.434 27.4229 12.7345 26.885 13.0463C24.8504 14.2196 22.9504 15.4587 21.2104 16.7263Z" fill="#CE8829"/>
<path d="M32.2955 28.1103L30.8733 30.5713C30.2695 30.5341 29.6257 30.4626 28.9532 30.3537L30.7617 27.2203L32.2955 28.1103ZM11.2199 22.6476C11.7036 22.9738 12.1986 23.2971 12.7051 23.6148L14.3477 20.7704L12.8139 19.8889L11.2199 22.6476ZM1.60791 13.6736C1.94271 14.1802 2.3262 14.7009 2.7583 15.2303L4.56688 12.0998L3.03023 11.2126L1.60791 13.6736ZM6.10923 18.69C6.54703 19.0792 7.00205 19.4712 7.47705 19.8603L9.19973 16.8785L7.66594 15.9972L6.10923 18.69ZM16.7142 25.9326C17.2465 26.2102 17.7759 26.4792 18.2996 26.7338L19.8935 23.9753L18.3597 23.0853L16.7142 25.9326ZM22.5834 28.5825C23.1585 28.8 23.7251 28.9974 24.2803 29.1805L25.837 26.4849L24.3032 25.6035L22.5834 28.5825Z" fill="#C85929"/>
<path d="M4.80356 24.4314V26.2228H6.59491V27.6364H4.80356V29.4278H3.38999V27.6364H1.59863V26.2228H3.38999V24.4314H4.80356Z" fill="#FEA832"/>
<path d="M36.3769 3.06738V4.85589H38.1683V6.26955H36.3769V8.06081H34.9632V6.26955H33.1719V4.85589H34.9632V3.06738H36.3769Z" fill="#FEA832"/>
<path fill-rule="evenodd" clip-rule="evenodd" d="M10.6557 32.3225C8.61532 28.7885 14.9996 21.2854 24.9121 15.5621C34.8246 9.83616 44.5168 8.06192 46.5571 11.596C47.6874 13.5562 48.8178 15.5135 49.9509 17.4737C51.9913 21.0077 45.607 28.5108 35.6946 34.2369C25.7791 39.96 16.0899 41.7343 14.0495 38.2002C12.9192 36.2428 11.786 34.2827 10.6557 32.3225Z" fill="#FE9923"/>
<path fill-rule="evenodd" clip-rule="evenodd" d="M24.9121 15.5621C34.8247 9.83616 44.5168 8.06192 46.5571 11.596C48.5975 15.1301 42.2132 22.6331 32.3007 28.3564C22.3853 34.0824 12.6961 35.8566 10.6557 32.3225C8.61532 28.7884 14.9995 21.2854 24.9121 15.5621Z" fill="#FECD3D"/>
<path fill-rule="evenodd" clip-rule="evenodd" d="M26.6383 18.5497C34.5248 13.994 41.8019 11.8307 42.8864 13.7107C43.9738 15.5936 38.4624 20.8103 30.573 25.3631C22.6865 29.9187 15.4124 32.082 14.3278 30.202C13.2404 28.3192 18.7518 23.1025 26.6383 18.5497Z" fill="#FEA832"/>
<path d="M26.0667 35.0249L27.7865 38.0037C27.2113 38.2213 26.6448 38.4216 26.0867 38.6018L24.53 35.9062L26.0667 35.0249ZM30.4764 33.3967L32.0674 36.1552C32.594 35.9005 33.1234 35.6344 33.6528 35.354L32.0102 32.5096L30.4764 33.3967ZM18.0742 37.5316L19.4935 39.9927C20.1002 39.9583 20.7412 39.8838 21.4165 39.7751L19.6079 36.6446L18.0742 37.5316ZM47.3368 20.634L45.803 21.5212L47.6086 24.6517C48.0407 24.1224 48.427 23.6044 48.759 23.0978L47.3368 20.634ZM36.022 30.1917L37.6646 33.039C38.1712 32.7185 38.6662 32.3952 39.1498 32.069L37.5559 29.3104L36.022 30.1917ZM41.1701 26.2999L42.8928 29.2846C43.3678 28.8925 43.8228 28.5034 44.2578 28.1113L42.7039 25.4186L41.1701 26.2999Z" fill="#C85929"/>
</svg>
