<svg width="25" height="31" viewBox="0 0 25 31" fill="none" xmlns="http://www.w3.org/2000/svg">
<path d="M13.5714 13.0354C13.5714 12.4438 13.0917 11.9641 12.5 11.9641C11.9083 11.9641 11.4286 12.4438 11.4286 13.0354H13.5714ZM11.4286 28.8679C11.4286 29.4596 11.9083 29.9393 12.5 29.9393C13.0917 29.9393 13.5714 29.4596 13.5714 28.8679H11.4286ZM9.10637 5.19417C8.59416 5.49047 8.41913 6.1459 8.71543 6.6581C9.01171 7.17032 9.66714 7.34534 10.1793 7.04904L9.10637 5.19417ZM14.8207 7.04904C15.3329 7.34534 15.9883 7.17032 16.2846 6.6581C16.5809 6.1459 16.4059 5.49047 15.8936 5.19417L14.8207 7.04904ZM6.17276 1.98507C5.68741 2.3236 5.56841 2.99147 5.90694 3.4768C6.24547 3.96213 6.91334 4.08114 7.39867 3.74261L6.17276 1.98507ZM17.6013 3.74261C18.0867 4.08114 18.7546 3.96213 19.093 3.4768C19.4316 2.99147 19.3126 2.3236 18.8273 1.98507L17.6013 3.74261ZM11.4286 13.0354V28.8679H13.5714V13.0354H11.4286ZM3.23366 10.7204C5.71177 10.9926 8.9072 11.7174 11.116 13.2221L12.3224 11.4512C9.67714 9.64903 6.06013 8.87517 3.46767 8.59036L3.23366 10.7204ZM3.23366 27.7883C5.71177 28.0604 8.9072 28.7853 11.116 30.29L12.3224 28.519C9.67714 26.7169 6.06013 25.943 3.46767 25.6581L3.23366 27.7883ZM0 11.7931V24.3094H2.14286V11.7931H0ZM3.46767 25.6581C2.68699 25.5724 2.14286 24.953 2.14286 24.3094H0C0 26.1796 1.50484 27.5983 3.23366 27.7883L3.46767 25.6581ZM3.46767 8.59036C1.51177 8.37549 0 9.96742 0 11.7931H2.14286C2.14286 11.105 2.68004 10.6596 3.23366 10.7204L3.46767 8.59036ZM21.5323 8.59036C18.9399 8.87517 15.3229 9.64903 12.6776 11.4512L13.884 13.2221C16.0929 11.7174 19.2883 10.9926 21.7663 10.7204L21.5323 8.59036ZM21.5323 25.6581C18.9399 25.943 15.3229 26.7169 12.6776 28.519L13.884 30.29C16.0929 28.7853 19.2883 28.0604 21.7663 27.7883L21.5323 25.6581ZM22.8571 11.7931V24.3094H25V11.7931H22.8571ZM21.7663 27.7883C23.4951 27.5983 25 26.1796 25 24.3094H22.8571C22.8571 24.953 22.313 25.5724 21.5323 25.6581L21.7663 27.7883ZM21.7663 10.7204C22.32 10.6596 22.8571 11.105 22.8571 11.7931H25C25 9.96742 23.4883 8.37549 21.5323 8.59036L21.7663 10.7204ZM11.116 30.29C11.9464 30.8557 13.0536 30.8557 13.884 30.29L12.6776 28.519C12.575 28.5889 12.425 28.5889 12.3224 28.519L11.116 30.29ZM11.116 13.2221C11.9464 13.7879 13.0536 13.7879 13.884 13.2221L12.6776 11.4512C12.575 11.5211 12.425 11.5211 12.3224 11.4512L11.116 13.2221ZM10.1793 7.04904C10.8611 6.65464 11.6526 6.42857 12.5 6.42857V4.28572C11.2659 4.28572 10.1056 4.61619 9.10637 5.19417L10.1793 7.04904ZM12.5 6.42857C13.3474 6.42857 14.1389 6.65464 14.8207 7.04904L15.8936 5.19417C14.8944 4.61619 13.7341 4.28572 12.5 4.28572V6.42857ZM7.39867 3.74261C8.84447 2.73414 10.6016 2.14286 12.5 2.14286V0C10.1491 0 7.96649 0.7339 6.17276 1.98507L7.39867 3.74261ZM12.5 2.14286C14.3984 2.14286 16.1556 2.73414 17.6013 3.74261L18.8273 1.98507C17.0336 0.7339 14.8509 0 12.5 0V2.14286Z" fill="black"/>
</svg>
