<svg width="35" height="35" viewBox="0 0 35 35" fill="none" xmlns="http://www.w3.org/2000/svg">
<path d="M17.5086 35C17.3606 35 17.2186 34.9412 17.1139 34.8365C17.0093 34.7319 16.9505 34.5899 16.9505 34.4419V18.497C16.9505 18.349 17.0093 18.2071 17.1139 18.1024C17.2186 17.9978 17.3606 17.939 17.5086 17.939C17.6566 17.939 17.7985 17.9978 17.9032 18.1024C18.0078 18.2071 18.0666 18.349 18.0666 18.497V33.4992C21.0703 31.9533 24.3577 31.3048 26.6745 31.0333C28.0641 30.8678 29.4631 30.7946 30.8624 30.8145V13.6151C26.0076 11.966 22.4427 13.1049 20.289 14.3725C20.1615 14.4455 20.0104 14.4654 19.8684 14.4277C19.7264 14.3901 19.605 14.2979 19.5305 14.1713C19.456 14.0447 19.4344 13.8939 19.4704 13.7514C19.5064 13.609 19.5972 13.4866 19.7229 13.4106C22.1374 11.9891 26.1603 10.7111 31.6114 12.6931C31.7194 12.7324 31.8127 12.8041 31.8784 12.8985C31.9441 12.9928 31.9791 13.1051 31.9785 13.2201V31.3941C31.9787 31.4704 31.9632 31.546 31.9329 31.6161C31.9027 31.6863 31.8584 31.7495 31.8028 31.8018C31.7471 31.8541 31.6813 31.8944 31.6095 31.9203C31.5376 31.9461 31.4612 31.957 31.385 31.9521C31.3659 31.9521 29.423 31.8325 26.7789 32.1459C24.3565 32.4317 20.8307 33.1452 17.7888 34.9247C17.7037 34.974 17.607 35 17.5086 35Z" fill="#1A2B88"/>
<path d="M17.5091 34.999C17.4101 34.9989 17.3128 34.9725 17.2273 34.9224C14.1854 33.143 10.6596 32.4294 8.23718 32.1436C5.59312 31.8319 3.65024 31.9487 3.6307 31.9499C3.55452 31.9547 3.47816 31.9438 3.40635 31.9179C3.33454 31.892 3.26881 31.8517 3.21321 31.7994C3.15761 31.7471 3.11334 31.6839 3.08313 31.6138C3.05291 31.5437 3.0374 31.4682 3.03755 31.3918V13.219C3.03751 13.1045 3.07272 12.9927 3.1384 12.8989C3.20408 12.805 3.29705 12.7336 3.40468 12.6945C8.85784 10.7101 12.8815 11.9893 15.2968 13.412C15.42 13.4891 15.5082 13.6113 15.5427 13.7525C15.5772 13.8937 15.5553 14.0428 15.4815 14.1681C15.4078 14.2934 15.2881 14.3849 15.1478 14.4233C15.0076 14.4616 14.858 14.4437 14.7307 14.3734C12.5758 13.1046 9.01011 11.9646 4.15529 13.6141V30.8134C5.55508 30.7931 6.95466 30.8658 8.34481 31.0311C10.6616 31.3025 13.949 31.9511 16.9527 33.497V18.496C16.9527 18.348 17.0115 18.206 17.1161 18.1014C17.2208 17.9967 17.3627 17.9379 17.5107 17.9379C17.6587 17.9379 17.8007 17.9967 17.9053 18.1014C18.01 18.206 18.0688 18.348 18.0688 18.496V34.4409C18.0688 34.5889 18.01 34.7308 17.9053 34.8355C17.8007 34.9402 17.6587 34.999 17.5107 34.999H17.5091Z" fill="#1A2B88"/>
<path d="M34.441 34.995H0.558071C0.410062 34.995 0.268114 34.9362 0.163455 34.8315C0.0587965 34.7269 0 34.5849 0 34.4369V15.8914C0 15.7434 0.0587965 15.6015 0.163455 15.4968C0.268114 15.3921 0.410062 15.3333 0.558071 15.3333H3.5876C3.73561 15.3333 3.87756 15.3921 3.98222 15.4968C4.08688 15.6015 4.14567 15.7434 4.14567 15.8914C4.14567 16.0394 4.08688 16.1814 3.98222 16.286C3.87756 16.3907 3.73561 16.4495 3.5876 16.4495H1.11614V33.8788H33.8829V16.4495H31.4114C31.2634 16.4495 31.1215 16.3907 31.0168 16.286C30.9122 16.1814 30.8534 16.0394 30.8534 15.8914C30.8534 15.7434 30.9122 15.6015 31.0168 15.4968C31.1215 15.3921 31.2634 15.3333 31.4114 15.3333H34.441C34.589 15.3333 34.7309 15.3921 34.8356 15.4968C34.9402 15.6015 34.999 15.7434 34.999 15.8914V34.4369C34.999 34.5849 34.9402 34.7269 34.8356 34.8315C34.7309 34.9362 34.589 34.995 34.441 34.995Z" fill="#1A2B88"/>
<path d="M14.2398 20.5431C14.1606 20.5432 14.0823 20.5264 14.01 20.4939C13.9378 20.4614 13.8733 20.4139 13.8209 20.3545C13.8101 20.3422 13.2106 19.682 12.0984 19.2145C10.6095 18.5886 8.94371 18.583 7.14672 19.1977C7.07706 19.2228 7.00311 19.2337 6.92918 19.2299C6.85524 19.2261 6.7828 19.2077 6.71608 19.1756C6.64935 19.1435 6.58967 19.0985 6.54051 19.0432C6.49136 18.9878 6.4537 18.9232 6.42974 18.8532C6.40579 18.7832 6.39601 18.709 6.40097 18.6352C6.40594 18.5613 6.42555 18.4892 6.45866 18.423C6.49178 18.3568 6.53773 18.2978 6.59386 18.2495C6.64998 18.2012 6.71515 18.1646 6.78557 18.1418C9.38697 17.2516 11.3777 17.6877 12.5899 18.2107C13.9201 18.7843 14.6297 19.5836 14.6592 19.6175C14.7297 19.6981 14.7756 19.7974 14.7913 19.9034C14.8069 20.0094 14.7918 20.1177 14.7475 20.2153C14.7033 20.3129 14.6319 20.3957 14.5419 20.4539C14.4518 20.512 14.347 20.543 14.2398 20.5431Z" fill="#1A2B88"/>
<path d="M14.1784 25.1012C14.0993 25.1013 14.021 25.0845 13.9489 25.052C13.8767 25.0195 13.8123 24.972 13.7599 24.9127C13.7491 24.9003 13.1496 24.2402 12.0374 23.7726C10.5486 23.1468 8.88272 23.1412 7.08573 23.7559C7.01607 23.781 6.94212 23.7919 6.86819 23.7881C6.79426 23.7843 6.72182 23.7659 6.65509 23.7338C6.58837 23.7017 6.52869 23.6567 6.47953 23.6014C6.43037 23.546 6.39271 23.4814 6.36876 23.4114C6.3448 23.3413 6.33502 23.2672 6.33998 23.1934C6.34495 23.1195 6.36456 23.0474 6.39767 22.9811C6.43079 22.9149 6.47675 22.856 6.53287 22.8077C6.58899 22.7594 6.65416 22.7228 6.72458 22.6999C9.32599 21.8098 11.3167 22.2463 12.5289 22.7689C13.8591 23.3425 14.5687 24.1418 14.5982 24.1756C14.6688 24.2563 14.7146 24.3556 14.7303 24.4617C14.746 24.5677 14.7307 24.676 14.6865 24.7737C14.6422 24.8713 14.5707 24.9541 14.4806 25.0122C14.3905 25.0703 14.2856 25.1012 14.1784 25.1012Z" fill="#1A2B88"/>
<path d="M14.1237 29.6556C14.0445 29.6557 13.9662 29.639 13.894 29.6064C13.8217 29.5739 13.7572 29.5264 13.7048 29.4671C13.694 29.4547 13.0945 28.7946 11.9823 28.327C10.4935 27.7012 8.82763 27.6956 7.03064 28.3103C6.96099 28.3353 6.88704 28.3463 6.8131 28.3425C6.73917 28.3387 6.66673 28.3202 6.60001 28.2882C6.53328 28.2561 6.4736 28.2111 6.42444 28.1557C6.37528 28.1004 6.33763 28.0358 6.31367 27.9657C6.28971 27.8957 6.27993 27.8216 6.2849 27.7477C6.28986 27.6739 6.30947 27.6017 6.34259 27.5355C6.3757 27.4693 6.42166 27.4103 6.47778 27.3621C6.53391 27.3138 6.59908 27.2772 6.66949 27.2543C9.2709 26.3642 11.2616 26.8007 12.4738 27.3233C13.804 27.8969 14.5132 28.6969 14.5431 28.73C14.6137 28.8106 14.6595 28.9099 14.6752 29.0159C14.6909 29.1219 14.6757 29.2302 14.6315 29.3278C14.5872 29.4255 14.5158 29.5083 14.4258 29.5664C14.3358 29.6245 14.2309 29.6555 14.1237 29.6556Z" fill="#1A2B88"/>
<path d="M20.7619 20.2352C20.6547 20.2351 20.5499 20.2041 20.4598 20.146C20.3698 20.0878 20.2984 20.005 20.2542 19.9074C20.21 19.8098 20.1948 19.7015 20.2104 19.5955C20.2261 19.4895 20.272 19.3902 20.3426 19.3096C20.3721 19.2757 21.0816 18.4765 22.4118 17.9028C23.624 17.3798 25.6151 16.9438 28.2161 17.8339C28.2866 17.8567 28.3517 17.8934 28.4079 17.9416C28.464 17.9899 28.5099 18.0489 28.5431 18.1151C28.5762 18.1813 28.5958 18.2534 28.6007 18.3273C28.6057 18.4012 28.5959 18.4753 28.572 18.5453C28.548 18.6154 28.5104 18.6799 28.4612 18.7353C28.412 18.7906 28.3524 18.8357 28.2856 18.8677C28.2189 18.8998 28.1465 18.9183 28.0725 18.9221C27.9986 18.9258 27.9247 18.9149 27.855 18.8898C23.5499 17.4149 21.2052 20.0183 21.1821 20.0458C21.1296 20.1055 21.0649 20.1532 20.9924 20.1859C20.92 20.2186 20.8414 20.2354 20.7619 20.2352Z" fill="#1A2B88"/>
<path d="M20.8243 24.792C20.7168 24.7922 20.6116 24.7613 20.5213 24.7031C20.4309 24.6449 20.3593 24.5618 20.315 24.4639C20.2707 24.366 20.2557 24.2574 20.2716 24.1511C20.2876 24.0448 20.3339 23.9454 20.4049 23.8648C20.4344 23.8309 21.144 23.0317 22.4742 22.4581C23.6864 21.9355 25.6771 21.499 28.2785 22.3891C28.349 22.412 28.4141 22.4486 28.4702 22.4969C28.5264 22.5451 28.5723 22.6041 28.6054 22.6703C28.6386 22.7365 28.6582 22.8087 28.6631 22.8825C28.6681 22.9564 28.6583 23.0305 28.6344 23.1005C28.6104 23.1706 28.5727 23.2352 28.5236 23.2905C28.4744 23.3459 28.4148 23.3909 28.348 23.423C28.2813 23.455 28.2089 23.4735 28.1349 23.4773C28.061 23.4811 27.987 23.4701 27.9174 23.4451C26.1204 22.8304 24.4546 22.836 22.9657 23.4618C21.8496 23.9314 21.2488 24.5955 21.2429 24.6019C21.1908 24.6617 21.1265 24.7096 21.0542 24.7424C20.982 24.7752 20.9036 24.7921 20.8243 24.792Z" fill="#1A2B88"/>
<path d="M20.8794 29.3503C20.7719 29.3505 20.6667 29.3196 20.5764 29.2614C20.486 29.2032 20.4144 29.1201 20.3701 29.0222C20.3258 28.9243 20.3108 28.8157 20.3267 28.7094C20.3427 28.6031 20.389 28.5037 20.46 28.4231C20.4895 28.3892 21.1991 27.59 22.5293 27.0164C23.7415 26.4938 25.7322 26.0573 28.3336 26.9474C28.404 26.9702 28.4692 27.0069 28.5253 27.0552C28.5815 27.1034 28.6274 27.1624 28.6605 27.2286C28.6936 27.2948 28.7133 27.3669 28.7182 27.4408C28.7232 27.5147 28.7134 27.5888 28.6894 27.6588C28.6655 27.7289 28.6278 27.7935 28.5787 27.8488C28.5295 27.9042 28.4698 27.9492 28.4031 27.9812C28.3364 28.0133 28.2639 28.0318 28.19 28.0356C28.1161 28.0394 28.0421 28.0284 27.9725 28.0034C26.1755 27.3887 24.5096 27.3943 23.0208 28.0201C21.9046 28.4897 21.3039 29.1538 21.2979 29.1602C21.2459 29.22 21.1815 29.2679 21.1093 29.3007C21.0371 29.3335 20.9587 29.3504 20.8794 29.3503Z" fill="#1A2B88"/>
<path d="M19.9357 15.4007H15.0677C14.9197 15.4007 14.7777 15.3419 14.6731 15.2373C14.5684 15.1326 14.5096 14.9907 14.5096 14.8427V14.5871C14.506 13.6892 14.1597 12.8266 13.5414 12.1755C12.8233 11.4088 12.3431 10.4501 12.1592 9.41585C11.9754 8.38159 12.0956 7.31618 12.5054 6.34894C12.9153 5.38169 13.597 4.55419 14.468 3.96687C15.339 3.37955 16.3617 3.05765 17.412 3.04025C18.8869 3.01673 20.2713 3.56444 21.3105 4.58331C22.3175 5.57879 22.8973 6.92723 22.9271 8.3429C22.9569 9.75856 22.4342 11.1302 21.47 12.1671C20.8459 12.8289 20.497 13.7034 20.4941 14.613V14.8435C20.4939 14.9914 20.435 15.1332 20.3303 15.2377C20.2256 15.3422 20.0836 15.4008 19.9357 15.4007ZM15.6158 14.2846H19.3892C19.4678 13.2081 19.9142 12.1913 20.6536 11.4049C21.2348 10.7879 21.6208 10.0129 21.763 9.17729C21.9052 8.34165 21.7973 7.48262 21.4529 6.70809C21.1085 5.93356 20.5429 5.27806 19.8271 4.82394C19.1114 4.36981 18.2774 4.13729 17.4299 4.15559C15.0928 4.19346 13.1914 6.12678 13.1914 8.4651C13.1899 9.55967 13.6064 10.6135 14.3558 11.4113C15.0962 12.194 15.5416 13.2097 15.6158 14.2846Z" fill="#1A2B88"/>
<path d="M19.9311 17.2282H15.0632C14.9152 17.2282 14.7732 17.1694 14.6686 17.0647C14.5639 16.96 14.5051 16.8181 14.5051 16.6701V14.8448C14.5051 14.6968 14.5639 14.5548 14.6686 14.4502C14.7732 14.3455 14.9152 14.2867 15.0632 14.2867H19.9311C20.0792 14.2867 20.2211 14.3455 20.3258 14.4502C20.4304 14.5548 20.4892 14.6968 20.4892 14.8448V16.6701C20.4892 16.8181 20.4304 16.96 20.3258 17.0647C20.2211 17.1694 20.0792 17.2282 19.9311 17.2282ZM15.6212 16.112H19.3731V15.4029H15.6212V16.112Z" fill="#1A2B88"/>
<path d="M18.7341 19.0503H16.2626C15.7967 19.0498 15.3499 18.8644 15.0205 18.535C14.691 18.2055 14.5056 17.7587 14.5051 17.2928V16.6665C14.5051 16.5185 14.5639 16.3766 14.6686 16.2719C14.7732 16.1673 14.9152 16.1085 15.0632 16.1085H19.9323C20.0804 16.1085 20.2223 16.1673 20.327 16.2719C20.4316 16.3766 20.4904 16.5185 20.4904 16.6665V17.2928C20.4899 17.7585 20.3047 18.2051 19.9755 18.5345C19.6463 18.864 19.1998 19.0495 18.7341 19.0503ZM15.6248 17.2246V17.2928C15.6249 17.4622 15.692 17.6248 15.8115 17.7449C15.931 17.8651 16.0932 17.9331 16.2626 17.9342H18.7341C18.9042 17.9341 19.0672 17.8664 19.1875 17.7462C19.3078 17.6259 19.3754 17.4629 19.3755 17.2928V17.2246H15.6248Z" fill="#1A2B88"/>
<path d="M11.9545 5.86688C11.8566 5.86706 11.7603 5.84135 11.6755 5.79234L10.3301 5.01543C10.2019 4.94142 10.1084 4.81952 10.0701 4.67655C10.0318 4.53358 10.0518 4.38125 10.1258 4.25306C10.1998 4.12487 10.3217 4.03133 10.4647 3.99302C10.6077 3.95471 10.76 3.97476 10.8882 4.04877L12.2336 4.82568C12.3399 4.88715 12.4229 4.98195 12.4699 5.09542C12.5168 5.20888 12.5251 5.33466 12.4933 5.45327C12.4615 5.57188 12.3915 5.6767 12.2941 5.75147C12.1967 5.82625 12.0773 5.86682 11.9545 5.86688Z" fill="#1A2B88"/>
<path d="M11.0975 9.073H9.54285C9.39484 9.073 9.2529 9.0142 9.14824 8.90954C9.04358 8.80488 8.98478 8.66293 8.98478 8.51493C8.98478 8.36692 9.04358 8.22497 9.14824 8.12031C9.2529 8.01565 9.39484 7.95685 9.54285 7.95685H11.0975C11.2455 7.95685 11.3874 8.01565 11.4921 8.12031C11.5968 8.22497 11.6556 8.36692 11.6556 8.51493C11.6556 8.66293 11.5968 8.80488 11.4921 8.90954C11.3874 9.0142 11.2455 9.073 11.0975 9.073Z" fill="#1A2B88"/>
<path d="M25.455 9.073H23.9004C23.7524 9.073 23.6104 9.0142 23.5058 8.90954C23.4011 8.80488 23.3423 8.66293 23.3423 8.51493C23.3423 8.36692 23.4011 8.22497 23.5058 8.12031C23.6104 8.01565 23.7524 7.95685 23.9004 7.95685H25.455C25.603 7.95685 25.745 8.01565 25.8497 8.12031C25.9543 8.22497 26.0131 8.36692 26.0131 8.51493C26.0131 8.66293 25.9543 8.80488 25.8497 8.90954C25.745 9.0142 25.603 9.073 25.455 9.073Z" fill="#1A2B88"/>
<path d="M23.0502 5.86688C22.9274 5.86682 22.8081 5.82625 22.7107 5.75147C22.6133 5.6767 22.5433 5.57188 22.5115 5.45327C22.4797 5.33466 22.4879 5.20888 22.5349 5.09542C22.5818 4.98195 22.6649 4.88715 22.7712 4.82568L24.1165 4.04877C24.2447 3.97476 24.3971 3.95471 24.54 3.99302C24.683 4.03133 24.8049 4.12487 24.8789 4.25306C24.9529 4.38125 24.973 4.53358 24.9346 4.67655C24.8963 4.81952 24.8028 4.94142 24.6746 5.01543L23.3293 5.79234C23.2444 5.84135 23.1482 5.86706 23.0502 5.86688Z" fill="#1A2B88"/>
<path d="M20.699 3.52387C20.6011 3.52377 20.5049 3.49791 20.4202 3.44889C20.3354 3.39987 20.265 3.32941 20.2161 3.24459C20.1672 3.15977 20.1415 3.06357 20.1415 2.96566C20.1415 2.86775 20.1673 2.77156 20.2163 2.68677L20.9928 1.34142C21.0668 1.21323 21.1887 1.11969 21.3316 1.08138C21.4746 1.04307 21.627 1.06312 21.7551 1.13712C21.8833 1.21113 21.9769 1.33302 22.0152 1.47599C22.0535 1.61897 22.0334 1.7713 21.9594 1.89949L21.1829 3.24484C21.1339 3.32977 21.0633 3.40028 20.9784 3.44926C20.8934 3.49825 20.7971 3.52398 20.699 3.52387Z" fill="#1A2B88"/>
<path d="M17.5086 2.67077C17.3606 2.67077 17.2186 2.61197 17.1139 2.50731C17.0093 2.40266 16.9505 2.26071 16.9505 2.1127V0.558071C16.9505 0.410062 17.0093 0.268114 17.1139 0.163455C17.2186 0.0587965 17.3606 0 17.5086 0C17.6566 0 17.7985 0.0587965 17.9032 0.163455C18.0078 0.268114 18.0666 0.410062 18.0666 0.558071V2.1127C18.0666 2.26071 18.0078 2.40266 17.9032 2.50731C17.7985 2.61197 17.6566 2.67077 17.5086 2.67077Z" fill="#1A2B88"/>
<path d="M14.2979 3.52387C14.1999 3.52398 14.1035 3.49825 14.0185 3.44926C13.9336 3.40028 13.863 3.32977 13.814 3.24484L13.0375 1.89949C12.9635 1.7713 12.9434 1.61897 12.9817 1.47599C13.0201 1.33302 13.1136 1.21113 13.2418 1.13712C13.37 1.06312 13.5223 1.04307 13.6653 1.08138C13.8082 1.11969 13.9301 1.21323 14.0041 1.34142L14.7807 2.68677C14.8296 2.77156 14.8554 2.86775 14.8554 2.96566C14.8555 3.06357 14.8297 3.15977 14.7808 3.24459C14.7319 3.32941 14.6615 3.39987 14.5768 3.44889C14.492 3.49791 14.3958 3.52377 14.2979 3.52387Z" fill="#1A2B88"/>
</svg>
