<svg width="25" height="25" viewBox="-2.5 0 30 25" fill="none" xmlns="http://www.w3.org/2000/svg">
<path d="M8.1619 24.9973H3.46474C1.12778 24.9973 0 23.916 0 21.6837V3.31359C0 1.08128 1.13941 0 3.46474 0H8.1619C10.4989 0 11.6266 1.08128 11.6266 3.31359V21.6837C11.6266 23.916 10.4872 24.9973 8.1619 24.9973ZM3.46474 1.744C1.98816 1.744 1.744 2.1393 1.744 3.31359V21.6837C1.744 22.858 1.98816 23.2533 3.46474 23.2533H8.1619C9.63848 23.2533 9.88264 22.858 9.88264 21.6837V3.31359C9.88264 2.1393 9.63848 1.744 8.1619 1.744H3.46474Z" fill="black"/>
<path d="M21.5353 14.5333H16.8381C14.5011 14.5333 13.3734 13.452 13.3734 11.2197V3.31359C13.3734 1.08128 14.5128 0 16.8381 0H21.5353C23.8722 0 25 1.08128 25 3.31359V11.2197C25 13.452 23.8606 14.5333 21.5353 14.5333ZM16.8381 1.744C15.3615 1.744 15.1174 2.1393 15.1174 3.31359V11.2197C15.1174 12.394 15.3615 12.7893 16.8381 12.7893H21.5353C23.0118 12.7893 23.256 12.394 23.256 11.2197V3.31359C23.256 2.1393 23.0118 1.744 21.5353 1.744H16.8381Z" fill="black"/>
<path d="M21.5353 24.9956H16.8381C14.5011 24.9956 13.3734 23.9143 13.3734 21.682V19.5892C13.3734 17.3569 14.5128 16.2756 16.8381 16.2756H21.5353C23.8722 16.2756 25 17.3569 25 19.5892V21.682C25 23.9143 23.8606 24.9956 21.5353 24.9956ZM16.8381 18.0196C15.3615 18.0196 15.1174 18.4149 15.1174 19.5892V21.682C15.1174 22.8563 15.3615 23.2516 16.8381 23.2516H21.5353C23.0118 23.2516 23.256 22.8563 23.256 21.682V19.5892C23.256 18.4149 23.0118 18.0196 21.5353 18.0196H16.8381Z" fill="black"/>
</svg>
