<svg xmlns="http://www.w3.org/2000/svg" version="1.1" xmlns:xlink="http://www.w3.org/1999/xlink" width="35" height="35" x="0" y="0" viewBox="0 0 66 66" style="enable-background:new 0 0 512 512" xml:space="preserve" class=""><g><path d="M58.06 18.81h-4.28v-1.09c0-3.01-1.79-5.61-4.35-6.81a5.41 5.41 0 0 0 2.24-4.37c0-2.98-2.43-5.41-5.41-5.41s-5.41 2.43-5.41 5.41c0 1.8.88 3.39 2.24 4.37a7.594 7.594 0 0 0-3.45 3.25 7.594 7.594 0 0 0-3.45-3.25 5.41 5.41 0 0 0 2.24-4.37c0-2.98-2.43-5.41-5.41-5.41s-5.41 2.43-5.41 5.41c0 1.8.88 3.39 2.24 4.37a7.594 7.594 0 0 0-3.45 3.25 7.594 7.594 0 0 0-3.45-3.25 5.41 5.41 0 0 0 2.24-4.37c0-2.98-2.43-5.41-5.41-5.41s-5.41 2.43-5.41 5.41c0 1.8.88 3.39 2.24 4.37-2.57 1.2-4.35 3.8-4.35 6.81v1.09H7.94c-.48 0-.88.39-.88.88v4.46c0 .48.39.88.88.88h3.14l16.55 17.59c.12.34.44.58.83.58.48 0 .88-.39.88-.88v-.11c0-.22-.08-.44-.24-.6L13.48 25.02h39.04L36.91 41.61c-.15.16-.24.38-.24.6v.11a.881.881 0 0 0 1.71.3l16.55-17.59h3.13c.48 0 .88-.39.88-.88v-4.46a.894.894 0 0 0-.88-.88zM42.59 6.54c0-2.02 1.64-3.66 3.66-3.66s3.66 1.64 3.66 3.66-1.64 3.66-3.66 3.66-3.66-1.64-3.66-3.66zm3.66 5.41c3.19 0 5.78 2.59 5.78 5.78v1.09h-11.5v-1.09c0-.18-.01-.35-.03-.53.27-2.94 2.74-5.25 5.75-5.25zM29.34 6.54c0-2.02 1.64-3.66 3.66-3.66s3.66 1.64 3.66 3.66S35.02 10.2 33 10.2s-3.66-1.64-3.66-3.66zM33 11.95c3.01 0 5.48 2.31 5.75 5.25-.01.17-.03.35-.03.53v1.09H27.28v-1.09c0-.18-.01-.35-.03-.53.27-2.94 2.74-5.25 5.75-5.25zM16.09 6.54c0-2.02 1.64-3.66 3.66-3.66s3.66 1.64 3.66 3.66-1.64 3.66-3.66 3.66-3.66-1.64-3.66-3.66zm-2.11 11.18a5.79 5.79 0 0 1 5.78-5.78c3.01 0 5.48 2.31 5.75 5.25-.01.17-.03.35-.03.53v1.09h-11.5zm43.2 5.55H8.82v-2.71h48.37v2.71zM33 44.62c-5.58 0-10.13 4.54-10.13 10.13 0 5.58 4.54 10.13 10.13 10.13s10.13-4.54 10.13-10.13c0-5.58-4.54-10.13-10.13-10.13zm0 18.51c-4.62 0-8.38-3.76-8.38-8.38s3.76-8.38 8.38-8.38 8.38 3.76 8.38 8.38-3.76 8.38-8.38 8.38z" fill="#1A2B88" opacity="1" data-original="#1A2B88" class=""></path><path d="M33 51.09c.77 0 1.39.63 1.39 1.39 0 .48.39.88.88.88s.88-.39.88-.88c0-1.43-.96-2.62-2.27-3v-.64c0-.48-.39-.88-.88-.88s-.88.39-.88.88v.64c-1.31.38-2.27 1.58-2.27 3 0 1.73 1.41 3.14 3.14 3.14.77 0 1.39.63 1.39 1.39s-.63 1.39-1.39 1.39-1.39-.63-1.39-1.39c0-.48-.39-.88-.88-.88s-.88.39-.88.88c0 1.43.96 2.62 2.27 3v.64c0 .48.39.88.88.88s.88-.39.88-.88v-.64c1.31-.38 2.27-1.58 2.27-3 0-1.73-1.41-3.14-3.14-3.14-.77 0-1.39-.63-1.39-1.39s.62-1.39 1.39-1.39z" fill="#1A2B88" opacity="1" data-original="#1A2B88" class=""></path></g></svg>