<svg width="25" height="29" viewBox="0 0 25 29" fill="none" xmlns="http://www.w3.org/2000/svg">
<path d="M21.4594 28.5177C20.7406 28.5177 20.1192 28.2503 19.6581 27.7408L15.8983 23.5877C15.3508 22.9833 15.1426 22.1641 15.3181 21.3503L13.6421 19.6743C13.4606 19.4928 13.4606 19.1987 13.6421 19.0172C13.8236 18.8357 14.1177 18.8357 14.2992 19.0172L16.1646 20.8826C16.2886 21.0066 16.3322 21.1893 16.2777 21.3557C16.0871 21.9384 16.2027 22.5392 16.5869 22.9639L20.3467 27.117C20.6456 27.4468 21.0261 27.601 21.5132 27.5877C22.0033 27.5744 22.4377 27.382 22.8038 27.016L23.4984 26.3214C23.8644 25.9553 24.0568 25.5209 24.0701 25.0308C24.0835 24.5443 23.9292 24.1625 23.5994 23.8643L19.4463 20.1045C19.0216 19.7203 18.4202 19.6047 17.8381 19.7947C17.6717 19.8491 17.489 19.8056 17.365 19.6815L15.4996 17.8162C15.3181 17.6347 15.3181 17.3406 15.4996 17.1591C15.6811 16.9776 15.9752 16.9776 16.1567 17.1591L17.8327 18.8351C18.6465 18.6596 19.4657 18.8684 20.0702 19.4153L24.2232 23.1751C24.7508 23.6531 25.0195 24.3035 24.9989 25.0556C24.9789 25.7913 24.6952 26.4381 24.1549 26.9784L23.4603 27.673C22.9205 28.2127 22.2737 28.4971 21.538 28.5171C21.512 28.5171 21.4854 28.5177 21.4594 28.5177Z" fill="black"/>
<path d="M8.96064 21.4415C6.56585 21.4415 4.31446 20.5091 2.62153 18.8156C-0.873844 15.3202 -0.873844 9.63211 2.62153 6.13674C5.32611 3.43216 9.45194 2.73999 12.8886 4.41477C13.1192 4.52731 13.2154 4.80563 13.1028 5.03615C12.9903 5.26668 12.712 5.36288 12.4814 5.25034C9.40112 3.74921 5.70305 4.36939 3.27862 6.79382C0.145666 9.92677 0.145666 15.0249 3.27862 18.1585C4.79608 19.6759 6.81453 20.5121 8.96064 20.5121C11.1074 20.5121 13.1252 19.6759 14.6427 18.1585C17.6159 15.1853 17.7847 10.3745 15.0269 7.20647C14.8581 7.01285 14.8786 6.7194 15.0723 6.55059C15.2659 6.38239 15.5593 6.40236 15.7281 6.59597C17.2159 8.30524 17.9946 10.4973 17.9208 12.7693C17.8464 15.0522 16.9158 17.1995 15.2998 18.815C13.6068 20.5091 11.3554 21.4415 8.96064 21.4415Z" fill="black"/>
<path d="M5.23879 20.5832C4.98225 20.5832 4.77412 20.3751 4.77412 20.1185V12.487H3.011V18.0505C3.011 18.307 2.80286 18.5152 2.54632 18.5152C2.28978 18.5152 2.08164 18.307 2.08164 18.0505V12.0224C2.08164 11.7658 2.28978 11.5577 2.54632 11.5577H5.2394C5.49594 11.5577 5.70408 11.7658 5.70408 12.0224V20.1185C5.70347 20.3751 5.49534 20.5832 5.23879 20.5832Z" fill="black"/>
<path d="M7.61573 21.3354C7.35919 21.3354 7.15105 21.1272 7.15105 20.8707V7.3835C7.15105 7.12696 7.35919 6.91882 7.61573 6.91882H10.3088C10.5654 6.91882 10.7735 7.12696 10.7735 7.3835V20.8701C10.7735 21.1266 10.5654 21.3348 10.3088 21.3348C10.0523 21.3348 9.84413 21.1266 9.84413 20.8701V7.84818H8.08041V20.8707C8.08041 21.1272 7.87227 21.3354 7.61573 21.3354Z" fill="black"/>
<path d="M12.6808 20.5844C12.4242 20.5844 12.2161 20.3763 12.2161 20.1197V0.464679C12.2161 0.208137 12.4242 0 12.6808 0H15.3739C15.6304 0 15.8385 0.208137 15.8385 0.464679V18.0517C15.8385 18.3082 15.6304 18.5164 15.3739 18.5164C15.1173 18.5164 14.9092 18.3082 14.9092 18.0517V0.929357H13.1455V20.1197C13.1455 20.3763 12.9373 20.5844 12.6808 20.5844Z" fill="black"/>
</svg>
