<svg width="25" height="25" viewBox="0 0 25 25" fill="none" xmlns="http://www.w3.org/2000/svg">
<path d="M12.5 0C5.60749 0 0 5.60749 0 12.5C0 19.3926 5.60749 25.0001 12.5 25.0001C19.3925 25.0001 25 19.3926 25 12.5C25 5.60749 19.3926 0 12.5 0ZM12.5 23.5352C6.41521 23.5352 1.46486 18.5848 1.46486 12.5C1.46486 6.41526 6.41521 1.46486 12.5 1.46486C18.5849 1.46486 23.5352 6.41521 23.5352 12.5C23.5352 18.5849 18.5848 23.5352 12.5 23.5352Z" fill="black"/>
<path d="M12.4999 2.92969C7.22278 2.92969 2.92952 7.22295 2.92952 12.5001C2.92952 17.7772 7.22278 22.0704 12.4999 22.0704C17.777 22.0704 22.0703 17.7772 22.0703 12.5001C22.0703 7.22295 17.777 2.92969 12.4999 2.92969ZM12.4999 20.6055C8.03051 20.6055 4.39438 16.9694 4.39438 12.5C4.39438 8.03063 8.03051 4.39455 12.4999 4.39455C16.9693 4.39455 20.6054 8.03067 20.6054 12.5001C20.6054 16.9695 16.9692 20.6055 12.4999 20.6055Z" fill="black"/>
<path d="M17.2478 10.018L15.0326 10.6254L13.0764 8.09678C12.9377 7.91748 12.7238 7.8125 12.4971 7.8125C12.2704 7.8125 12.0565 7.91748 11.9178 8.09678L9.96162 10.6254L7.74626 10.018C7.49138 9.94817 7.21862 10.0211 7.03253 10.2087C6.84645 10.3964 6.77589 10.6698 6.84791 10.9241L8.2012 15.7011C8.29051 16.0164 8.5783 16.2339 8.9059 16.2339H16.0736C16.4004 16.2339 16.6877 16.0173 16.7777 15.7031L18.1456 10.9261C18.2184 10.6716 18.1483 10.3976 17.9623 10.2095C17.7762 10.0212 17.5031 9.94807 17.2478 10.018ZM15.5215 14.769H9.45971L8.61126 11.7741L10.0473 12.1678C10.3334 12.2462 10.6387 12.1442 10.8202 11.9096L12.4971 9.74192L14.174 11.9096C14.3556 12.1443 14.661 12.2463 14.947 12.1678L16.3787 11.7752L15.5215 14.769Z" fill="black"/>
</svg>
