<svg width="25" height="30" viewBox="0 0 25 30" fill="none" xmlns="http://www.w3.org/2000/svg">
<path d="M12.3109 14.4343C14.2939 14.4343 16.0108 13.7231 17.4141 12.3199C18.8169 10.9168 19.5283 9.20017 19.5283 7.21693C19.5283 5.23438 18.8171 3.51748 17.4139 2.11401C16.0106 0.711222 14.2937 0 12.3109 0C10.3277 0 8.61103 0.711222 7.20801 2.11423C5.805 3.51725 5.09355 5.23415 5.09355 7.21693C5.09355 9.20017 5.805 10.9171 7.20801 12.3201C8.61148 13.7229 10.3284 14.4343 12.3109 14.4343ZM8.44985 3.35584C9.5264 2.27929 10.7893 1.75599 12.3109 1.75599C13.8324 1.75599 15.0955 2.27929 16.1722 3.35584C17.2488 4.43262 17.7723 5.69572 17.7723 7.21693C17.7723 8.73859 17.2488 10.0015 16.1722 11.0782C15.0955 12.155 13.8324 12.6783 12.3109 12.6783C10.7897 12.6783 9.52686 12.1548 8.44985 11.0782C7.37307 10.0017 6.84955 8.73859 6.84955 7.21693C6.84955 5.69572 7.37307 4.43262 8.44985 3.35584Z" fill="currentColor"/>
<path d="M24.9394 23.042C24.899 22.4581 24.8171 21.8212 24.6966 21.1486C24.575 20.471 24.4184 19.8304 24.2309 19.245C24.0371 18.6398 23.7739 18.0422 23.4482 17.4695C23.1105 16.8751 22.7136 16.3575 22.2683 15.9316C21.8026 15.4861 21.2324 15.1278 20.5731 14.8665C19.9161 14.6066 19.1879 14.4749 18.409 14.4749C18.1031 14.4749 17.8073 14.6004 17.236 14.9724C16.8844 15.2017 16.4731 15.4669 16.014 15.7602C15.6215 16.0103 15.0898 16.2446 14.4329 16.4568C13.7921 16.6641 13.1415 16.7693 12.4991 16.7693C11.8571 16.7693 11.2065 16.6641 10.5652 16.4568C9.9091 16.2448 9.37711 16.0105 8.98527 15.7604C8.53055 15.4698 8.11904 15.2046 7.76218 14.9721C7.19132 14.6002 6.8955 14.4747 6.58961 14.4747C5.81049 14.4747 5.08258 14.6066 4.42576 14.8667C3.76689 15.1276 3.1965 15.4858 2.73035 15.9319C2.28501 16.358 1.88813 16.8754 1.5507 17.4695C1.22538 18.0422 0.962013 18.6396 0.768147 19.2452C0.580912 19.8307 0.42431 20.471 0.302687 21.1486C0.181978 21.8203 0.100362 22.4575 0.0598972 23.0427C0.0201181 23.6149 0 24.2105 0 24.8122C0 26.3764 0.497238 27.6427 1.47777 28.5766C2.44618 29.4981 3.72734 29.9654 5.28581 29.9654H19.7142C21.2722 29.9654 22.5534 29.4981 23.522 28.5766C24.5028 27.6434 25 26.3766 25 24.812C24.9998 24.2082 24.9794 23.6127 24.9394 23.042ZM22.3113 27.3043C21.6714 27.9134 20.8218 28.2094 19.714 28.2094H5.28581C4.17772 28.2094 3.32818 27.9134 2.68852 27.3046C2.06097 26.7072 1.75599 25.8917 1.75599 24.8122C1.75599 24.2507 1.77451 23.6963 1.81155 23.1641C1.84767 22.642 1.92151 22.0684 2.03102 21.4589C2.13915 20.8569 2.27678 20.292 2.44047 19.7806C2.59753 19.2902 2.81174 18.8046 3.07739 18.3369C3.33093 17.8911 3.62264 17.5086 3.94453 17.2005C4.24562 16.9122 4.62512 16.6762 5.07229 16.4993C5.48585 16.3356 5.95063 16.246 6.45518 16.2325C6.51668 16.2652 6.62619 16.3276 6.80359 16.4433C7.16458 16.6785 7.58066 16.9469 8.04063 17.2407C8.55913 17.5713 9.22714 17.8698 10.0252 18.1275C10.8412 18.3913 11.6733 18.5253 12.4993 18.5253C13.3253 18.5253 14.1577 18.3913 14.9732 18.1277C15.7719 17.8696 16.4397 17.5713 16.9589 17.2402C17.4296 16.9394 17.8341 16.6788 18.195 16.4433C18.3724 16.3278 18.4819 16.2652 18.5434 16.2325C19.0482 16.246 19.513 16.3356 19.9268 16.4993C20.3737 16.6762 20.7532 16.9124 21.0543 17.2005C21.3762 17.5084 21.6679 17.8909 21.9215 18.3371C22.1873 18.8046 22.4018 19.2905 22.5586 19.7804C22.7225 20.2925 22.8604 20.8572 22.9683 21.4586C23.0776 22.0693 23.1516 22.6431 23.1878 23.1643V23.1648C23.225 23.695 23.2438 24.2491 23.244 24.8122C23.2438 25.8919 22.9388 26.7072 22.3113 27.3043Z" fill="currentColor"/>
</svg>
