<svg width="25" height="28" viewBox="0 0 25 28" fill="none" xmlns="http://www.w3.org/2000/svg">
<path d="M21.3757 8.2373C21.1633 8.4498 21.1633 8.79432 21.3757 9.00682L22.7085 10.3395H15.4065C14.6859 10.3395 14.0083 10.6202 13.4987 11.1298C12.9891 11.6394 12.7085 12.3169 12.7085 13.0376V14.5454C12.7085 14.8458 12.9521 15.0895 13.2526 15.0895C13.5531 15.0895 13.7968 14.8459 13.7968 14.5454V13.0376C13.7968 12.15 14.5189 11.4278 15.4065 11.4278H22.7085L21.3757 12.7606C21.1633 12.973 21.1633 13.3176 21.3757 13.5301C21.482 13.6363 21.6212 13.6895 21.7605 13.6895C21.8998 13.6895 22.039 13.6363 22.1453 13.5301L24.4068 11.2684C24.6193 11.0559 24.6193 10.7114 24.4068 10.4989L22.1453 8.23736C21.9328 8.02481 21.5882 8.02481 21.3757 8.2373Z" fill="black"/>
<path d="M24.4662 18.3622C24.1241 17.5535 23.6346 16.8274 23.0111 16.2039C22.3877 15.5804 21.6615 15.0909 20.8529 14.7489C20.0153 14.3946 19.126 14.215 18.2095 14.215C17.2931 14.215 16.4037 14.3946 15.5662 14.7489C14.7575 15.0909 14.0314 15.5804 13.4079 16.2039C12.7845 16.8273 12.2949 17.5534 11.9529 18.3622C11.5987 19.1997 11.4191 20.089 11.4191 21.0055C11.4191 21.922 11.5987 22.8113 11.9529 23.6488C12.2949 24.4575 12.7845 25.1836 13.4079 25.8071C14.0313 26.4306 14.7575 26.9201 15.5662 27.2621C16.4037 27.6164 17.2931 27.796 18.2095 27.796C19.126 27.796 20.0153 27.6164 20.8529 27.2621C21.6615 26.9201 22.3877 26.4306 23.0111 25.8071C23.6346 25.1836 24.1241 24.4575 24.4662 23.6488C24.8204 22.8113 25 21.922 25 21.0055C25 20.089 24.8204 19.1996 24.4662 18.3622ZM18.2096 26.7077C15.0654 26.7077 12.5074 24.1497 12.5074 21.0054C12.5074 17.8613 15.0654 15.3033 18.2096 15.3033C21.3538 15.3033 23.9117 17.8613 23.9117 21.0054C23.9117 24.1497 21.3538 26.7077 18.2096 26.7077Z" fill="black"/>
<path d="M21.2221 20.4619H18.7507V16.4829C18.7507 16.1824 18.5071 15.9387 18.2066 15.9387C17.906 15.9387 17.6624 16.1823 17.6624 16.4829V21.0061C17.6624 21.3066 17.906 21.5502 18.2066 21.5502H21.222C21.5225 21.5502 21.7662 21.3066 21.7662 21.0061C21.7662 20.7055 21.5226 20.4619 21.2221 20.4619Z" fill="black"/>
<path d="M13.2522 26.7084H1.40568C1.23065 26.7084 1.08825 26.566 1.08825 26.391V2.91344C1.08825 1.90706 1.907 1.08825 2.91344 1.08825H18.3044C17.8882 1.60406 17.662 2.24132 17.662 2.91344V9.15975C17.662 9.46025 17.9056 9.7039 18.2061 9.7039C18.5066 9.7039 18.7503 9.4603 18.7503 9.15975V7.1192H22.514C23.0516 7.1192 23.4889 6.68183 23.4889 6.14431V2.91344C23.4889 2.13524 23.1858 1.40362 22.6355 0.853335C22.0852 0.303049 21.3536 0 20.5754 0H2.91344C2.13524 0 1.40362 0.303049 0.853335 0.853335C0.303049 1.40357 0 2.13524 0 2.91344V26.391C0 27.1661 0.630582 27.7966 1.40568 27.7966H13.2522C13.5527 27.7966 13.7963 27.553 13.7963 27.2525C13.7963 26.9519 13.5527 26.7084 13.2522 26.7084ZM22.4006 2.91344V6.03095H18.7502V2.91344C18.7502 1.90706 19.569 1.0883 20.5754 1.08825H20.5754C21.5818 1.08825 22.4006 1.907 22.4006 2.91344Z" fill="black"/>
<path d="M9.80518 6.04228H15.8361C16.1366 6.04228 16.3802 5.79868 16.3802 5.49813C16.3802 5.19763 16.1366 4.95398 15.8361 4.95398H9.80518C9.50468 4.95398 9.26102 5.19758 9.26102 5.49813C9.26102 5.79868 9.50468 6.04228 9.80518 6.04228Z" fill="black"/>
<path d="M16.3802 8.94332C16.3802 8.64282 16.1366 8.39917 15.8361 8.39917H9.80518C9.50468 8.39917 9.26102 8.64277 9.26102 8.94332C9.26102 9.24382 9.50463 9.48747 9.80518 9.48747H15.8361C16.1366 9.48747 16.3802 9.24387 16.3802 8.94332Z" fill="black"/>
<path d="M10.8833 12.4913H3.34463C3.04413 12.4913 2.80048 12.7349 2.80048 13.0355C2.80048 13.336 3.04408 13.5796 3.34463 13.5796H10.8833C11.1838 13.5796 11.4274 13.336 11.4274 13.0355C11.4274 12.7349 11.1838 12.4913 10.8833 12.4913Z" fill="black"/>
<path d="M11.4274 16.4829C11.4274 16.1824 11.1838 15.9387 10.8832 15.9387H3.34463C3.04413 15.9387 2.80048 16.1823 2.80048 16.4829C2.80048 16.7834 3.04408 17.027 3.34463 17.027H10.8833C11.1838 17.027 11.4274 16.7834 11.4274 16.4829Z" fill="black"/>
<path d="M9.80637 19.3862H3.34463C3.04413 19.3862 2.80048 19.6298 2.80048 19.9303C2.80048 20.2309 3.04408 20.4745 3.34463 20.4745H9.80631C10.1068 20.4745 10.3505 20.2309 10.3505 19.9303C10.3505 19.6298 10.1069 19.3862 9.80637 19.3862Z" fill="black"/>
<path d="M3.34463 22.8314C3.04413 22.8314 2.80048 23.075 2.80048 23.3755C2.80048 23.6761 3.04408 23.9197 3.34463 23.9197H9.80631C10.1068 23.9197 10.3505 23.6761 10.3505 23.3755C10.3505 23.075 10.1069 22.8314 9.80631 22.8314H3.34463Z" fill="black"/>
<path d="M3.23498 2.7738H6.13046M9.02594 2.7738H6.13046M6.13046 2.7738C6.79083 3.18019 7.38009 4.23678 6.89243 5.21211C6.43983 6.11731 5.16459 6.47993 4.57747 6.44617C4.53316 6.44362 4.50142 6.49629 4.52753 6.53218L6.89243 9.78392M3.23498 4.29774H9.02594" stroke="black" stroke-width="0.730994"/>
</svg>
