<svg width="41" height="35" viewBox="0 0 41 35" fill="none" xmlns="http://www.w3.org/2000/svg">
<path d="M40.4935 6.90567L31.2253 0.124026C31.0725 0.0115597 30.8776 -0.0269676 30.6936 0.0189308L19.5596 2.84305C19.2188 2.92991 19.0129 3.27658 19.0998 3.61732C19.1362 3.76019 19.2211 3.88603 19.3399 3.97326L22.2881 6.12555L21.6513 9.35395C21.3043 11.156 24.1984 14.0088 28.0986 14.7665C28.7827 14.8985 29.4778 14.9646 30.1745 14.9639C31.2425 14.9706 32.3047 14.805 33.3201 14.4736C34.8802 13.9547 35.9213 13.0886 36.1028 12.1621L36.7396 8.94322L40.2768 8.04857C40.6176 7.96172 40.8235 7.61505 40.7367 7.2743C40.7003 7.13144 40.6154 7.0056 40.4965 6.91836L40.4935 6.90567ZM34.8612 11.917C34.7879 12.2895 34.0971 12.8722 32.9222 13.2638C31.4387 13.7282 29.8624 13.8136 28.3375 13.5122C24.7556 12.8149 22.7562 10.392 22.9249 9.59605L23.4376 6.95666L28.6081 10.7518C28.717 10.832 28.8486 10.8755 28.9838 10.876C29.0377 10.8763 29.0914 10.8688 29.143 10.8537L35.3706 9.27773L34.8612 11.917ZM29.1303 9.54825L21.1866 3.74088L30.7158 1.32749L38.6499 7.13167L29.1303 9.54825Z" fill="#1A2B88"/>
<path d="M15.5698 15.0856C15.3749 15.1981 15.2539 15.4051 15.2514 15.6301V26.99C15.2539 27.215 15.3749 27.422 15.5698 27.5345C15.6655 27.5937 15.7756 27.6256 15.8882 27.6268C15.9911 27.6277 16.0927 27.6037 16.1842 27.5568L27.0412 21.8736C27.3525 21.7098 27.472 21.3248 27.3082 21.0136C27.2483 20.8996 27.1551 20.8065 27.0412 20.7465L16.1938 15.0633C15.9962 14.9613 15.7597 14.9697 15.5698 15.0856ZM16.525 16.6775L25.3729 21.31L16.5346 25.9393L16.525 16.6775Z" fill="#1A2B88"/>
<path d="M38.843 31.1795H35.5732C35.6298 31.0014 35.6588 30.8156 35.6591 30.6287V15.897C35.6591 15.5453 35.374 15.2602 35.0223 15.2602C34.6707 15.2602 34.3855 15.5453 34.3855 15.897V30.6286C34.3803 30.9381 34.1252 31.1847 33.8158 31.1794C33.8157 31.1794 33.8157 31.1794 33.8156 31.1794H5.66405C5.35462 31.1847 5.09944 30.9382 5.09412 30.6288C5.09412 30.6287 5.09412 30.6287 5.09412 30.6286V11.3536C5.09936 11.0441 5.35446 10.7975 5.6639 10.8028H5.66405H19.7398C20.0915 10.8028 20.3766 10.5177 20.3766 10.166C20.3766 9.81429 20.0915 9.52917 19.7398 9.52917H5.66405C4.65193 9.52568 3.82758 10.3414 3.82059 11.3535V30.6286C3.82097 30.8155 3.84992 31.0012 3.90654 31.1793H0.636803C0.285118 31.1793 0 31.4645 0 31.8161V31.9753C0 33.4081 1.1271 35 2.63939 35H36.8403C38.3526 35 39.4797 33.4081 39.4797 31.9753V31.8161C39.4797 31.4646 39.1946 31.1795 38.843 31.1795ZM36.8403 33.7265H2.63939C2.08861 33.7265 1.52825 33.1407 1.3404 32.453H38.1393C37.9515 33.1407 37.3911 33.7265 36.8403 33.7265Z" fill="#1A2B88"/>
</svg>
