<svg width="25" height="29" viewBox="0 0 25 29" fill="none" xmlns="http://www.w3.org/2000/svg">
<path d="M25 14.2022V1.85121C25 0.831041 24.169 0 23.1488 0H1.85122C0.831041 0 0 0.831041 0 1.85121V14.2022C0 15.2224 0.831041 16.0534 1.85122 16.0534H23.1488C24.169 16.0591 25 15.2281 25 14.2022ZM23.8537 14.2022C23.8537 14.5919 23.5385 14.9072 23.1488 14.9072H1.85122C1.46149 14.9072 1.14626 14.5919 1.14626 14.2022V1.85121C1.14626 1.46149 1.46149 1.14626 1.85122 1.14626H23.1488C23.5385 1.14626 23.8537 1.46149 23.8537 1.85121V14.2022Z" fill="black"/>
<path d="M24.2426 28.0823C24.2426 26.34 23.2052 24.8441 21.7151 24.1621C22.4315 23.6176 22.9014 22.7694 22.9014 21.8008C22.9014 20.1616 21.566 18.8262 19.9269 18.8262C18.2877 18.8262 16.9523 20.1616 16.9523 21.8008C16.9523 22.7694 17.4223 23.6176 18.1387 24.1621C17.3306 24.5289 16.6543 25.1421 16.2073 25.9044C15.7602 25.1421 15.0839 24.5346 14.2758 24.1621C14.9922 23.6176 15.4622 22.7694 15.4622 21.8008C15.4622 20.1616 14.1268 18.8262 12.4876 18.8262C10.8485 18.8262 9.51309 20.1616 9.51309 21.8008C9.51309 22.7694 9.98306 23.6176 10.6995 24.1621C9.89135 24.5289 9.21506 25.1421 8.76802 25.9044C8.32097 25.1421 7.64468 24.5346 6.83656 24.1621C7.55298 23.6176 8.02295 22.7694 8.02295 21.8008C8.02295 20.1616 6.68755 18.8262 5.04839 18.8262C3.40924 18.8262 2.07384 20.1616 2.07384 21.8008C2.07384 22.7694 2.54381 23.6176 3.26022 24.1621C1.77008 24.8441 0.732712 26.34 0.732712 28.0823C0.732712 28.3975 0.990621 28.6554 1.30584 28.6554H8.73363H8.77948H16.1614H16.2073H23.6351C23.9847 28.6554 24.2426 28.3975 24.2426 28.0823ZM19.9269 19.9725C20.9356 19.9725 21.7552 20.7921 21.7552 21.8008C21.7552 22.8095 20.9356 23.6291 19.9269 23.6291C18.9182 23.6291 18.0986 22.8095 18.0986 21.8008C18.0986 20.7921 18.9239 19.9725 19.9269 19.9725ZM12.4991 19.9725C13.5078 19.9725 14.3274 20.7921 14.3274 21.8008C14.3274 22.8095 13.5078 23.6291 12.4991 23.6291C11.4904 23.6291 10.6708 22.8095 10.6708 21.8008C10.6708 20.7921 11.4904 19.9725 12.4991 19.9725ZM5.07132 19.9725C6.08003 19.9725 6.89961 20.7921 6.89961 21.8008C6.89961 22.8095 6.08003 23.6291 5.07132 23.6291C4.06261 23.6291 3.24303 22.8095 3.24303 21.8008C3.24303 20.7921 4.06261 19.9725 5.07132 19.9725ZM1.95348 27.5092C2.22285 26.0362 3.51813 24.9186 5.06559 24.9186C6.61304 24.9186 7.90832 26.0362 8.17769 27.5092H1.95348ZM9.387 27.5092C9.65637 26.0362 10.9516 24.9186 12.4991 24.9186C14.0466 24.9186 15.3418 26.0362 15.6112 27.5092H9.387ZM16.8148 27.5092C17.0842 26.0362 18.3794 24.9186 19.9269 24.9186C21.4743 24.9186 22.7696 26.0362 23.039 27.5092H16.8148Z" fill="black"/>
<path d="M15.3439 7.03748L10.9136 4.21194C10.5525 3.98269 10.094 3.96549 9.72145 4.17182C9.34318 4.37815 9.11393 4.77361 9.11393 5.19773V10.8488C9.11393 11.2787 9.34891 11.6684 9.72145 11.8747C9.89912 11.9721 10.094 12.018 10.2831 12.018C10.5009 12.018 10.7244 11.9549 10.9136 11.8346L15.3439 9.00905C15.682 8.79126 15.8826 8.42446 15.8826 8.02327C15.8883 7.62781 15.6877 7.25527 15.3439 7.03748ZM14.7306 8.05192L10.2602 10.8545L10.3003 5.18053L14.7421 8.029C14.7421 8.04046 14.7364 8.04619 14.7306 8.05192Z" fill="black"/>
</svg>
