<svg width="25" height="23" viewBox="0 0 25 23" fill="none" xmlns="http://www.w3.org/2000/svg">
<path d="M4.27769 18.2743H20.7223C22.6183 18.2743 24.1611 16.7315 24.1611 14.8347V3.4396C24.1611 1.54279 22.6183 0 20.7223 0H4.27769C2.38171 0 0.838928 1.54279 0.838928 3.4396V14.8347C0.838928 16.7315 2.38171 18.2743 4.27769 18.2743ZM2.349 3.4396C2.349 2.37584 3.21477 1.51091 4.27769 1.51091H20.7223C21.7861 1.51091 22.651 2.37584 22.651 3.4396V14.8347C22.651 15.8985 21.7852 16.7634 20.7223 16.7634H4.27769C3.21393 16.7634 2.349 15.8985 2.349 14.8347V3.4396Z" fill="black"/>
<path d="M10.2911 13.3603C10.6384 13.5398 11.0142 13.6287 11.3892 13.6287C11.8724 13.6287 12.3523 13.4811 12.7642 13.1908L15.7449 11.0834C16.3766 10.6371 16.7533 9.90894 16.7533 9.13545C16.7533 8.3628 16.3758 7.63462 15.7449 7.18915L12.7634 5.0826C12.0318 4.56582 11.0847 4.50039 10.2902 4.91314C9.49577 5.32421 9.00164 6.13629 9.00164 7.03059V11.2428C9.00248 12.1371 9.49577 12.9492 10.2911 13.3603ZM10.5125 7.03059C10.5125 6.69754 10.6887 6.40727 10.9849 6.25374C11.1141 6.18663 11.2525 6.15307 11.3892 6.15307C11.5646 6.15307 11.7391 6.2076 11.8917 6.31582L14.8724 8.42237C15.1073 8.58764 15.2416 8.84854 15.2416 9.13629C15.2416 9.42404 15.1065 9.68411 14.8716 9.85106L11.8909 11.9576C11.6191 12.1497 11.281 12.1732 10.984 12.0197C10.6879 11.8662 10.5117 11.5767 10.5117 11.2428L10.5125 7.03059Z" fill="black"/>
<path d="M24.245 20.9025H0.755034C0.338087 20.9025 0 21.2406 0 21.6575C0 22.0744 0.338087 22.4125 0.755034 22.4125H24.245C24.6619 22.4125 25 22.0744 25 21.6575C25 21.2406 24.6619 20.9025 24.245 20.9025Z" fill="black"/>
</svg>
