<svg width="97" height="73" fill="none" xmlns="http://www.w3.org/2000/svg"><rect x="44" width="53" height="53" rx="26.5" fill="#F5F7FA"/><rect x="77" y="41" width="15" height="15" rx="7.5" fill="#B4B6B8"/><path d="M66.675 30.803a1.992 1.992 0 0 0-.004-3.756L34.663 15.754a1.991 1.991 0 0 0-1.326 0L1.33 27.047a1.992 1.992 0 0 0-.004 3.756l12.68 4.507v12.996c0 2.145 2.237 3.958 6.65 5.39C24.5 54.946 29.24 55.634 34 55.634c4.76 0 9.499-.688 13.346-1.936 4.412-1.433 6.65-3.246 6.65-5.391V35.31l5.235-1.86v18.007a6.003 6.003 0 0 0-4.001 5.651 6.003 6.003 0 0 0 4 5.652v7.608a1.992 1.992 0 0 0 3.985 0V62.76a6.003 6.003 0 0 0 4.001-5.652 6.003 6.003 0 0 0-4-5.651V32.033l3.46-1.23Zm-5.452 28.314a2.011 2.011 0 0 1-2.009-2.01c0-1.107.901-2.008 2.009-2.008 1.108 0 2.009.901 2.009 2.009a2.011 2.011 0 0 1-2.009 2.009ZM34 19.745l26.04 9.188L34 38.19 7.96 28.933 34 19.745Zm16.011 28.26c-.382.385-1.748 1.307-4.834 2.187-3.29.94-7.26 1.456-11.177 1.456s-7.886-.517-11.177-1.456c-3.086-.88-4.453-1.801-4.834-2.187V36.727l15.344 5.455a1.993 1.993 0 0 0 1.334 0l15.344-5.455v11.279Z" fill="#696D72"/></svg>