<svg width="80" height="65" fill="none" xmlns="http://www.w3.org/2000/svg"><rect x="26" width="53" height="53" rx="26.5" fill="#B4F1F8"/><rect x="65" y="36" width="15" height="15" rx="7.5" fill="#01C9E0" fill-opacity=".8"/><path d="M30.686 38.062a5.543 5.543 0 0 0 1.382-3.665A5.574 5.574 0 0 0 26.5 28.83a5.574 5.574 0 0 0-5.568 5.568c0 1.403.522 2.685 1.382 3.665a7.913 7.913 0 0 0-3.727 6.71v1.844c0 .857.695 1.552 1.553 1.552h12.72c.858 0 1.553-.695 1.553-1.552v-1.844c0-2.826-1.49-5.31-3.727-6.71Zm-6.649-3.665a2.465 2.465 0 0 1 2.463-2.462 2.465 2.465 0 0 1 2.463 2.462A2.465 2.465 0 0 1 26.5 36.86a2.465 2.465 0 0 1-2.463-2.463Zm7.27 10.666h-9.615v-.29a4.813 4.813 0 0 1 4.808-4.808c2.427 0 4.808 1.834 4.808 5.098ZM51.026 50.4c-1.365-1.45-3.457-1.793-5.949-.998-.39-1.333-1.264-3.053-3.228-4.143a1.553 1.553 0 0 0-1.508 2.714c.562.312.961.73 1.245 1.163-2.044-.413-3.759.016-4.934 1.264-.729.773-1.292 1.792-1.63 2.947-.561 1.919-.432 4.052.363 6.007.457 1.122 1.15 2.225 2.184 3.472.793.956 2.04 2.172 3.955 2.172 1.01 0 1.748-.335 2.315-.421 1.102.167 3.546 1.534 6.27-1.751 1.033-1.247 1.727-2.35 2.184-3.472 1.376-3.383.624-6.947-1.267-8.953Zm-1.61 7.784c-.334.82-.873 1.665-1.698 2.66-.786.948-1.26 1.099-1.77 1.035-.483-.06-1.553-.464-2.228-.412-.827.063-1.505.352-1.991.412-.51.064-.983-.087-1.77-1.035-.824-.995-1.364-1.84-1.698-2.66-.532-1.308-.624-2.716-.259-3.965.201-.687.516-1.271.91-1.69.74-.784 2.349-.354 3.343.048.987.4 2.125.422 3.167 0 .738-.298 2.54-.9 3.344-.047 1.015 1.077 1.593 3.337.65 5.654ZM17.14 49.718c-.192-.022-4.46-.483-7.881.99-3.422-1.473-7.689-1.012-7.882-.99A1.553 1.553 0 0 0 0 51.26v11.014c0 .921.804 1.645 1.726 1.543 2.13-.237 4.751 0 6.855 1.024.457.222.983.204 1.417-.031 2.634-1.427 6.718-1.002 6.793-.993a1.554 1.554 0 0 0 1.727-1.543V51.26c0-.79-.593-1.453-1.378-1.542ZM3.105 60.646v-7.907c1.22-.011 3.046.1 4.601.689v7.76c-1.467-.393-3.063-.547-4.6-.542Zm12.307 0c-1.217-.002-2.922.093-4.6.542v-7.76c1.555-.589 3.378-.698 4.6-.69v7.908ZM8.689 31.031c.606.606 1.59.606 2.196 0l6.954-6.954a5.919 5.919 0 0 0 0-8.376 5.931 5.931 0 0 0-8.052-.3 5.93 5.93 0 0 0-8.052.3 5.929 5.929 0 0 0 0 8.376l6.954 6.954ZM3.931 17.897a2.82 2.82 0 0 1 3.984 0l.774.775c.606.606 1.59.606 2.196 0l.774-.775a2.82 2.82 0 0 1 3.984 0 2.815 2.815 0 0 1 0 3.984l-5.856 5.856-5.856-5.856a2.82 2.82 0 0 1 0-3.984ZM51.847 14.124c-.13-.034.799.145-11.126-2.097a1.553 1.553 0 0 0-1.84 1.526v7.472a4.717 4.717 0 0 0-6.318 4.43 4.717 4.717 0 0 0 4.712 4.71 4.717 4.717 0 0 0 4.712-4.711v-10.03l7.907 1.487v6.184a4.717 4.717 0 0 0-6.318 4.43 4.717 4.717 0 0 0 4.712 4.71A4.717 4.717 0 0 0 53 27.525V15.613a1.551 1.551 0 0 0-1.153-1.49ZM37.275 27.06c-.886 0-1.606-.72-1.606-1.606 0-.886.72-1.606 1.606-1.606.886 0 1.606.72 1.606 1.606 0 .885-.72 1.606-1.606 1.606Zm11.013 2.07c-.885 0-1.606-.72-1.606-1.606 0-.886.72-1.606 1.606-1.606.886 0 1.607.72 1.607 1.606 0 .886-.72 1.606-1.607 1.606Z" fill="#0CA4B5"/><path d="M23.001 17.113a21.75 21.75 0 0 1 11.188 1.123 1.553 1.553 0 0 0 1.103-2.903 24.67 24.67 0 0 0-8.792-1.606 24.96 24.96 0 0 0-3.998.321 1.553 1.553 0 1 0 .5 3.065ZM31.304 59.632a21.878 21.878 0 0 1-8.39.238 1.553 1.553 0 0 0-.51 3.063c3.198.533 6.477.431 9.586-.273a1.553 1.553 0 0 0-.686-3.028ZM4.527 30.815a1.553 1.553 0 0 0-1.91 1.082 24.78 24.78 0 0 0-.89 6.602c0 2.553.387 5.07 1.15 7.482a1.553 1.553 0 1 0 2.961-.937 21.652 21.652 0 0 1-1.006-6.545c0-1.963.262-3.906.778-5.774a1.552 1.552 0 0 0-1.083-1.91ZM48.388 46.42a1.553 1.553 0 0 0 1.922-1.061 24.882 24.882 0 0 0 .85-9.231 1.553 1.553 0 0 0-3.09.298c.25 2.6.034 5.371-.744 8.073a1.553 1.553 0 0 0 1.062 1.922Z" fill="#0CA4B5"/></svg>