<svg width="86" height="65" fill="none" xmlns="http://www.w3.org/2000/svg"><rect x="33" width="53" height="53" rx="26.5" fill="#D3E9FC"/><rect x="69" y="38" width="15" height="15" rx="7.5" fill="#6EA8D7"/><path d="M49.81 64.5H3.69A3.694 3.694 0 0 1 0 60.81v-6.742c0-.758.614-1.372 1.372-1.372h17.247c.56 0 1.063.34 1.272.859l1.043 2.589h11.607l1.044-2.59c.209-.518.712-.858 1.272-.858h17.271c.758 0 1.372.614 1.372 1.372v6.742a3.694 3.694 0 0 1-3.69 3.69ZM2.745 55.44v5.37c0 .522.424.946.945.946h46.122a.947.947 0 0 0 .945-.946v-5.37H35.783l-1.043 2.588c-.21.52-.713.86-1.273.86H20.008c-.56 0-1.063-.34-1.272-.86l-1.044-2.589H2.744ZM46.177 27.084h-3.913v-3.037c0-.634-.435-1.185-1.051-1.334l-2.52-.607c-.141-.389-.302-.771-.481-1.146l1.342-2.178a1.372 1.372 0 0 0-.205-1.697l-3.252-3.203a1.372 1.372 0 0 0-1.667-.2l-2.225 1.33a12.731 12.731 0 0 0-1.192-.489l-.617-2.482A1.372 1.372 0 0 0 29.066 11h-4.601c-.63 0-1.18.43-1.331 1.041l-.614 2.47c-.405.142-.803.304-1.193.487l-2.236-1.337a1.372 1.372 0 0 0-1.666.2l-3.253 3.203a1.372 1.372 0 0 0-.205 1.697l1.336 2.168c-.18.374-.342.756-.483 1.145l-2.533.61c-.616.148-1.05.7-1.05 1.333v3.067H7.322a3.662 3.662 0 0 0-3.658 3.658v14.06a1.372 1.372 0 0 0 2.743 0v-14.06c0-.504.41-.914.915-.914h38.854c.505 0 .915.41.915.914v14.06a1.372 1.372 0 0 0 2.744 0v-14.06a3.662 3.662 0 0 0-3.659-3.658Zm-22.908-.787a3.488 3.488 0 0 1 3.481-3.488 3.489 3.489 0 0 1 3.392 4.275h-6.784a3.496 3.496 0 0 1-.09-.787Zm16.251.787h-6.596c.033-.259.05-.521.05-.787 0-3.436-2.792-6.232-6.224-6.232-3.432 0-6.225 2.796-6.225 6.232 0 .266.018.528.05.787H13.98v-1.986l2.226-.536c.478-.115.858-.478.996-.95a9.61 9.61 0 0 1 .871-2.06 1.372 1.372 0 0 0-.025-1.398l-1.172-1.902 1.718-1.692 1.974 1.18c.417.25.935.26 1.362.027a9.968 9.968 0 0 1 2.105-.857c.476-.133.844-.511.963-.99l.54-2.176h2.454l.543 2.184c.118.479.484.857.959.99a9.975 9.975 0 0 1 2.102.863c.427.235.947.226 1.366-.025l1.965-1.175 1.718 1.692-1.177 1.91a1.372 1.372 0 0 0-.027 1.393c.369.655.66 1.349.865 2.064.137.474.518.839.998.954l2.216.534v1.956Z" fill="#1A6EB1"/><path d="m13.582 43 8.338 4.296v-2.631l-4.986-2.5 4.986-2.5v-2.63l-8.338 4.295V43ZM23.376 47.438h2.52l4.723-12.231h-2.536l-4.707 12.23ZM31.58 37.036v2.63l5.021 2.498-5.021 2.498v2.63l8.338-4.276v-1.703l-8.338-4.277ZM48.48 50.75a1.486 1.486 0 1 0 0-2.972 1.486 1.486 0 0 0 0 2.972ZM5.04 50.75a1.486 1.486 0 1 0 0-2.972 1.486 1.486 0 0 0 0 2.972Z" fill="#1A6EB1"/></svg>