<svg width="20" height="22" viewBox="0 0 20 22" fill="none" xmlns="http://www.w3.org/2000/svg">
<path d="M15.9651 14.7982C14.911 14.7982 13.9613 15.2534 13.3022 15.9775L7.37369 12.3057C7.53197 11.9005 7.61975 11.4604 7.61975 11C7.61975 10.5394 7.53197 10.0993 7.37369 9.6943L13.3022 6.02233C13.9613 6.74642 14.911 7.20178 15.9651 7.20178C17.9507 7.20178 19.566 5.58643 19.566 3.60081C19.566 1.61519 17.9507 0 15.9651 0C13.9795 0 12.3641 1.61535 12.3641 3.60098C12.3641 4.06138 12.452 4.50147 12.6102 4.90665L6.68183 8.57846C6.02269 7.85437 5.07302 7.399 4.01894 7.399C2.03332 7.399 0.417969 9.01452 0.417969 11C0.417969 12.9856 2.03332 14.601 4.01894 14.601C5.07302 14.601 6.02269 14.1458 6.68183 13.4215L12.6102 17.0933C12.452 17.4985 12.3641 17.9386 12.3641 18.3991C12.3641 20.3846 13.9795 22 15.9651 22C17.9507 22 19.566 20.3846 19.566 18.3991C19.566 16.4135 17.9507 14.7982 15.9651 14.7982ZM13.6772 3.60098C13.6772 2.33944 14.7035 1.31306 15.9651 1.31306C17.2266 1.31306 18.253 2.33944 18.253 3.60098C18.253 4.86251 17.2266 5.88889 15.9651 5.88889C14.7035 5.88889 13.6772 4.86251 13.6772 3.60098ZM4.01894 13.2879C2.75724 13.2879 1.73086 12.2615 1.73086 11C1.73086 9.73844 2.75724 8.71206 4.01894 8.71206C5.28048 8.71206 6.30669 9.73844 6.30669 11C6.30669 12.2615 5.28048 13.2879 4.01894 13.2879ZM13.6772 18.399C13.6772 17.1374 14.7035 16.1111 15.9651 16.1111C17.2266 16.1111 18.253 17.1374 18.253 18.399C18.253 19.6605 17.2266 20.6869 15.9651 20.6869C14.7035 20.6869 13.6772 19.6605 13.6772 18.399Z" fill="#0E84D6"/>
</svg>
