<svg width="100" height="100" viewBox="0 0 100 100" fill="none" xmlns="http://www.w3.org/2000/svg">
<path fill-rule="evenodd" clip-rule="evenodd" d="M78.8561 55.3883C82.9065 48.3725 70.2382 33.4715 50.5596 22.1096C30.8753 10.7478 11.6397 7.22578 7.58934 14.2416C5.33973 18.1273 3.09578 22.0187 0.851836 25.9102C-3.19855 32.9262 9.46981 47.8213 29.154 59.1832C48.8327 70.5449 68.0737 74.0728 72.1243 67.0568C74.3682 63.1654 76.6122 59.2797 78.8561 55.3883Z" fill="#FE9923"/>
<path fill-rule="evenodd" clip-rule="evenodd" d="M78.856 55.3883C81.9464 50.0426 75.3167 40.1123 63.279 30.665C60.0239 32.1818 56.7005 33.9088 53.3659 35.8346C41.6634 42.5893 32.1478 50.4459 26.3931 57.5412C27.3051 58.1023 28.2255 58.6496 29.154 59.183C40.0386 65.466 50.7868 69.3518 58.9048 70.3857C62.5405 68.7383 66.2671 66.8295 70.0108 64.6707C71.8313 63.6162 73.627 62.5195 75.3964 61.3814L78.856 55.3883Z" fill="#CE7C1D"/>
<path fill-rule="evenodd" clip-rule="evenodd" d="M50.5595 22.1098C30.8751 10.7478 11.6395 7.22578 7.58914 14.2416C3.53875 21.2518 16.2071 36.1527 35.8913 47.5146C55.57 58.8764 74.811 62.4043 78.8559 55.3883C82.9063 48.3725 70.238 33.4715 50.5595 22.1098Z" fill="#FECD3D"/>
<path fill-rule="evenodd" clip-rule="evenodd" d="M36.2437 47.7191C55.803 58.9162 74.8339 62.3588 78.856 55.3883C81.9464 50.0426 75.3167 40.1123 63.279 30.665C60.0239 32.1818 56.7005 33.9088 53.3659 35.8346C46.9009 39.5613 41.1063 43.6289 36.2437 47.7191Z" fill="#CEA732"/>
<path fill-rule="evenodd" clip-rule="evenodd" d="M47.1282 28.0463C31.4715 19.0078 17.0307 14.7074 14.8719 18.4455C12.7188 22.1836 23.6602 32.5398 39.3169 41.5781C54.9735 50.6164 69.4143 54.9168 71.5729 51.1789C73.7317 47.4465 62.7846 37.0902 47.1282 28.0463Z" fill="#FEA832"/>
<path fill-rule="evenodd" clip-rule="evenodd" d="M42.1006 43.1402C56.6494 51.0992 69.5449 54.6951 71.573 51.1787C73.2603 48.2531 66.9205 41.2713 56.5756 34.0395C55.4973 34.6227 54.4272 35.2211 53.3658 35.8346C49.3268 38.1639 45.5547 40.6236 42.1006 43.1402Z" fill="#CE8829"/>
<path d="M64.1084 65.7275L61.285 70.6131C60.0863 70.5393 58.8082 70.3973 57.473 70.1812L61.0635 63.9607L64.1084 65.7275ZM22.2686 54.8828C23.2407 55.5391 24.2236 56.1793 25.217 56.8029L28.4779 51.1561L25.433 49.4062L22.2686 54.8828ZM3.18652 37.0674C3.85117 38.073 4.6125 39.1068 5.47031 40.1578L9.06074 33.943L6.01016 32.1818L3.18652 37.0674ZM12.1227 47.026C13.0121 47.8187 13.9174 48.5933 14.8381 49.3494L18.258 43.4299L15.2131 41.6803L12.1227 47.026ZM33.176 61.4043C34.2175 61.9493 35.2667 62.4795 36.3232 62.9949L39.4875 57.5185L36.4426 55.7518L33.176 61.4043ZM44.8275 66.6648C45.9418 67.0848 47.065 67.4806 48.1963 67.8521L51.2867 62.5008L48.2418 60.751L44.8275 66.6648Z" fill="#C85929"/>
<path d="M9.52656 58.4219V61.9781H13.0828V64.7846H9.52656V68.3408H6.72031V64.7846H3.16406V61.9781H6.72031V58.4219H9.52656ZM72.1926 16.0141V19.5646H75.7488V22.3711H72.1926V25.9271H69.3861V22.3711H65.8299V19.5646H69.3861V16.0141H72.1926Z" fill="#FEA832"/>
<path fill-rule="evenodd" clip-rule="evenodd" d="M21.1383 74.0898C17.0877 67.074 29.7619 52.1787 49.4404 40.8168C69.1191 29.4494 88.3602 25.9271 92.4107 32.9432C94.6545 36.8339 96.9003 40.7234 99.1482 44.6117C103.199 51.6275 90.5246 66.5229 70.8461 77.8904C51.1617 89.2521 31.9264 92.7744 27.8758 85.7584C25.6318 81.8727 23.3822 77.9812 21.1383 74.0898Z" fill="#FE9923"/>
<path fill-rule="evenodd" clip-rule="evenodd" d="M49.4404 40.8168C69.1191 29.4494 88.3602 25.9271 92.4108 32.9432C96.4613 39.959 83.7871 54.8543 64.1086 66.2162C44.4242 77.5836 25.1889 81.1059 21.1383 74.0898C17.0877 67.0738 29.7617 52.1787 49.4404 40.8168Z" fill="#FECD3D"/>
<path fill-rule="evenodd" clip-rule="evenodd" d="M52.8662 46.7533C68.5227 37.7094 82.9694 33.4146 85.1223 37.1469C87.2811 40.885 76.3397 51.2412 60.6774 60.2795C45.0209 69.3234 30.5801 73.6182 28.427 69.8859C26.2682 66.148 37.2096 55.7918 52.8662 46.7533Z" fill="#FEA832"/>
<path d="M51.7584 79.4525L55.1727 85.3662C54.0577 85.7895 52.9326 86.1854 51.7982 86.5535L48.7078 81.2021L51.7584 79.4525ZM60.5127 76.2201L63.6713 81.6965C64.73 81.1855 65.7792 80.6552 66.8186 80.1059L63.5576 74.459L60.5127 76.2201ZM35.8916 84.4289L38.7092 89.3146C39.9137 89.2465 41.1861 89.0986 42.5268 88.8828L38.9363 82.668L35.8916 84.4289ZM93.9844 50.8834L90.9394 52.6445L94.524 58.8594C95.3818 57.8086 96.1488 56.7803 96.8078 55.7746L93.9844 50.8834ZM71.5221 69.8576L74.783 75.5101C75.7752 74.8826 76.7581 74.2407 77.7314 73.5844L74.5672 68.108L71.5221 69.8576ZM81.7422 62.1314L85.1621 68.0566C86.1051 67.2783 87.0084 66.5059 87.8719 65.7275L84.7871 60.3818L81.7422 62.1314Z" fill="#C85929"/>
</svg>
