<svg width="15" height="21" viewBox="0 0 15 21" fill="none" xmlns="http://www.w3.org/2000/svg">
<path d="M3.77548 7.09695C3.77548 8.93368 5.30609 10.4643 7.14282 10.4643C8.97954 10.4643 10.5102 8.93368 10.5102 7.09695C10.5102 5.26022 8.97954 3.72961 7.14282 3.72961C5.25507 3.72961 3.77548 5.2092 3.77548 7.09695ZM9.48975 7.09695C9.48975 8.37245 8.41832 9.44388 7.14282 9.44388C5.86731 9.44388 4.79589 8.37245 4.79589 7.09695C4.79589 5.82144 5.86731 4.75002 7.14282 4.75002C8.41832 4.75002 9.48975 5.77042 9.48975 7.09695ZM12.755 11.5867C12.8571 11.4847 12.9081 11.3316 12.9081 11.2296C12.9081 11.0765 12.8571 10.9745 12.755 10.8724C12.551 10.6684 12.2448 10.6684 12.0408 10.8724C11.9387 10.9745 11.8877 11.0765 11.8877 11.2296C11.8877 11.3826 11.9387 11.4847 12.0408 11.5867C12.1428 11.6888 12.2959 11.7398 12.3979 11.7398C12.4999 11.7398 12.653 11.6888 12.755 11.5867Z" fill="#1A1A1A"/>
<path d="M7.14283 0.107117C3.21427 0.107117 0 3.32139 0 7.24995C0 11.3316 6.07141 18.3724 7.09181 18.4744C7.95915 18.4744 10.9693 14.4948 11.6836 13.3724C11.8367 13.1173 11.7857 12.8112 11.5306 12.6581C11.2755 12.505 10.9693 12.5561 10.8163 12.8112C9.28568 15.056 7.65303 16.8418 7.09181 17.352C5.91834 16.3826 0.969384 10.8214 0.969384 7.24995C0.969384 3.88261 3.72448 1.12752 7.09181 1.12752C10.4591 1.12752 13.2142 3.88261 13.2142 7.24995C13.2142 7.65811 13.1632 8.11729 13.0102 8.57647C12.9081 8.88259 12.8061 9.23974 12.653 9.59688C12.551 9.85198 12.653 10.1581 12.9081 10.2601C13.1632 10.3622 13.4693 10.2601 13.5714 10.005C13.7244 9.59688 13.8775 9.23974 13.9795 8.88259C14.1326 8.27035 14.2346 7.76015 14.2346 7.24995C14.2857 3.27037 11.0714 0.107117 7.14283 0.107117Z" fill="#1A1A1A"/>
<path d="M10.4592 15.9745C10.2041 15.9235 9.89793 16.1275 9.84691 16.3826C9.79589 16.6377 9.99997 16.9439 10.2551 16.9949C12.0918 17.352 12.551 17.8622 12.551 17.9133C12.551 18.2194 10.8673 19.1377 7.14284 19.1377C3.41837 19.1377 1.7347 18.2194 1.7347 17.9133C1.7347 17.8112 2.14286 17.352 3.87755 16.9949C4.13265 16.9439 4.33673 16.6888 4.28571 16.3826C4.23469 16.1275 3.97959 15.9235 3.67347 15.9745C2.34694 16.2296 0.714294 16.7908 0.714294 17.8622C0.714294 19.3928 4.03061 20.1071 7.14284 20.1071C10.2551 20.1071 13.5714 19.3928 13.5714 17.8622C13.5714 16.7908 11.8877 16.2296 10.4592 15.9745Z" fill="#1A1A1A"/>
</svg>
