<svg width="18" height="18" viewBox="0 0 18 18" fill="none" xmlns="http://www.w3.org/2000/svg">
<g clip-path="url(#clip0_0_20299)">
<path d="M14.969 2.64575H13.048V2.37288C13.048 2.22814 12.9905 2.08933 12.8881 1.98699C12.7858 1.88464 12.647 1.82715 12.5022 1.82715C12.3575 1.82715 12.2187 1.88464 12.1164 1.98699C12.014 2.08933 11.9565 2.22814 11.9565 2.37288V2.64575H6.2045V2.37288C6.2045 2.22814 6.147 2.08933 6.04466 1.98699C5.94232 1.88464 5.80351 1.82715 5.65877 1.82715C5.51403 1.82715 5.37522 1.88464 5.27288 1.98699C5.17053 2.08933 5.11304 2.22814 5.11304 2.37288V2.64575H3.19206C2.58316 2.64719 1.99961 2.88971 1.56905 3.32027C1.1385 3.75083 0.895972 4.33438 0.894531 4.94328V14.5154C0.895972 15.1243 1.1385 15.7079 1.56905 16.1384C1.99961 16.569 2.58316 16.8115 3.19206 16.8129H14.969C15.5779 16.8115 16.1614 16.569 16.592 16.1384C17.0225 15.7079 17.265 15.1243 17.2665 14.5154V4.94328C17.265 4.33438 17.0225 3.75083 16.592 3.32027C16.1614 2.88971 15.5779 2.64719 14.969 2.64575ZM3.19206 3.73721H5.11304V4.01008C5.11304 4.15481 5.17053 4.29362 5.27288 4.39597C5.37522 4.49831 5.51403 4.55581 5.65877 4.55581C5.80351 4.55581 5.94232 4.49831 6.04466 4.39597C6.147 4.29362 6.2045 4.15481 6.2045 4.01008V3.73721H11.9565V4.01008C11.9565 4.15481 12.014 4.29362 12.1164 4.39597C12.2187 4.49831 12.3575 4.55581 12.5022 4.55581C12.647 4.55581 12.7858 4.49831 12.8881 4.39597C12.9905 4.29362 13.048 4.15481 13.048 4.01008V3.73721H14.969C15.2888 3.73721 15.5956 3.86428 15.8218 4.09046C16.048 4.31664 16.175 4.62341 16.175 4.94328V6.23666H1.98599V4.94328C1.98599 4.62341 2.11306 4.31664 2.33924 4.09046C2.56543 3.86428 2.87219 3.73721 3.19206 3.73721ZM14.969 15.7433H3.19206C3.03183 15.7433 2.87319 15.7114 2.72542 15.6495C2.57765 15.5875 2.44372 15.4967 2.33143 15.3824C2.21915 15.2681 2.13077 15.1325 2.07146 14.9837C2.01215 14.8348 1.98309 14.6756 1.98599 14.5154V7.32812H16.175V14.5154C16.1779 14.6756 16.1489 14.8348 16.0896 14.9837C16.0302 15.1325 15.9419 15.2681 15.8296 15.3824C15.7173 15.4967 15.5834 15.5875 15.4356 15.6495C15.2878 15.7114 15.1292 15.7433 14.969 15.7433Z" fill="#525252"/>
</g>
<defs>
<clipPath id="clip0_0_20299">
<rect width="17.4634" height="17.4634" fill="white" transform="translate(0.351562 0.326172)"/>
</clipPath>
</defs>
</svg>
