<svg width="15" height="17" viewBox="0 0 15 17" fill="none" xmlns="http://www.w3.org/2000/svg">
<path fill-rule="evenodd" clip-rule="evenodd" d="M4.1522 3.82887C4.09455 3.84049 4.03811 3.85333 3.98254 3.86753C2.40472 4.27058 1.14053 5.44899 0.627814 6.99466C0.438363 7.5658 0.390728 8.24417 0.310283 9.38969L0.303801 9.48198L0.296293 9.58859C0.204897 10.8866 0.1509 11.6536 0.283897 12.2987C0.644977 14.0502 1.95335 15.4539 3.67526 15.9369C4.30949 16.1148 5.07831 16.1147 6.37959 16.1146H6.48648H8.49496H8.60178C9.90306 16.1147 10.6719 16.1148 11.3061 15.9369C13.028 15.4539 14.3364 14.0502 14.6975 12.2987C14.8305 11.6536 14.7765 10.8866 14.6851 9.58859L14.6776 9.48198L14.6711 9.38969C14.5907 8.24424 14.543 7.5658 14.3536 6.99466C13.8408 5.44899 12.5767 4.27058 10.9988 3.86753C10.9432 3.85333 10.8869 3.84049 10.8292 3.82887C10.6219 2.16944 9.20627 0.885437 7.49069 0.885437C5.77511 0.885437 4.35943 2.16944 4.1522 3.82887ZM5.2482 3.72733C5.48491 2.70773 6.39907 1.94794 7.49069 1.94794C8.5823 1.94794 9.49647 2.70773 9.7332 3.72733C9.40722 3.71869 9.03251 3.71873 8.58747 3.71876L8.49496 3.71877H6.48648L6.3939 3.71876C5.94888 3.71873 5.57418 3.71869 5.2482 3.72733Z" fill="#9C9C9C"/>
</svg>
