<svg width="15" height="15" viewBox="0 0 15 15" fill="none" xmlns="http://www.w3.org/2000/svg">
<path d="M14.2682 6.60558L13.3048 5.4864C13.1207 5.2739 12.9719 4.87723 12.9719 4.5939V3.38973C12.9719 2.6389 12.3557 2.02265 11.6048 2.02265H10.4007C10.1244 2.02265 9.72066 1.8739 9.50816 1.68973L8.38899 0.726401C7.90024 0.308485 7.09983 0.308485 6.60399 0.726401L5.49188 1.69682C5.27938 1.8739 4.87563 2.02265 4.59938 2.02265H3.37396C2.62313 2.02265 2.00688 2.6389 2.00688 3.38973V4.60099C2.00688 4.87723 1.85813 5.2739 1.68105 5.4864L0.724797 6.61266C0.313963 7.10141 0.313963 7.89474 0.724797 8.38349L1.68105 9.50974C1.85813 9.72224 2.00688 10.1189 2.00688 10.3952V11.6064C2.00688 12.3572 2.62313 12.9735 3.37396 12.9735H4.59938C4.87563 12.9735 5.27938 13.1222 5.49188 13.3064L6.61108 14.2697C7.09983 14.6877 7.90024 14.6877 8.39608 14.2697L9.51524 13.3064C9.72774 13.1222 10.1244 12.9735 10.4077 12.9735H11.6119C12.3627 12.9735 12.979 12.3572 12.979 11.6064V10.4022C12.979 10.126 13.1277 9.72224 13.3119 9.50974L14.2752 8.39058C14.6861 7.90183 14.6861 7.09433 14.2682 6.60558ZM10.4432 6.15933L7.02191 9.58057C6.92274 9.67974 6.78816 9.73641 6.64649 9.73641C6.50483 9.73641 6.37024 9.67974 6.27108 9.58057L4.55688 7.86641C4.35146 7.66099 4.35146 7.32099 4.55688 7.11558C4.7623 6.91016 5.1023 6.91016 5.30771 7.11558L6.64649 8.45433L9.69233 5.40848C9.89774 5.20307 10.2377 5.20307 10.4432 5.40848C10.6486 5.6139 10.6486 5.9539 10.4432 6.15933Z" fill="#9C9C9C"/>
</svg>
