<svg width="13" height="15" viewBox="0 0 13 15" fill="none" xmlns="http://www.w3.org/2000/svg">
<path d="M6.5 0C3.39875 0 0.875 2.54125 0.875 5.66562C0.875 10.105 5.97125 14.6887 6.18813 14.8812C6.2775 14.9606 6.38875 15 6.5 15C6.61125 15 6.7225 14.9606 6.81187 14.8819C7.02875 14.6888 12.125 10.105 12.125 5.66562C12.125 2.54125 9.60125 0 6.5 0ZM6.5 8.75C4.77688 8.75 3.375 7.34812 3.375 5.625C3.375 3.90188 4.77688 2.5 6.5 2.5C8.22312 2.5 9.625 3.90188 9.625 5.625C9.625 7.34812 8.22312 8.75 6.5 8.75Z" fill="#9C9C9C"/>
</svg>
