<svg width="20" height="20" viewBox="0 0 20 20" fill="none" xmlns="http://www.w3.org/2000/svg">
<path d="M7.7 9.29978C7.3 8.89978 6.7 8.89978 6.3 9.29978C5.9 9.69978 5.9 10.2998 6.3 10.6998L9.3 13.6998C9.5 13.8998 9.7 13.9998 10 13.9998C10.3 13.9998 10.5 13.8998 10.7 13.6998L17.7 5.69978C18 5.19978 18 4.59978 17.5 4.29978C17.1 3.99978 16.5 3.99978 16.2 4.39978L10 11.4998L7.7 9.29978Z" fill="#0F88DC"/>
<path d="M19 9C18.4 9 18 9.4 18 10C18 14.4 14.4 18 10 18C5.6 18 2 14.4 2 10C2 7.9 2.8 5.9 4.3 4.4C5.8 2.8 7.8 2 10 2C10.6 2 11.3 2.1 11.9 2.2C12.4 2.4 13 2.1 13.2 1.5C13.4 0.9 13 0.5 12.5 0.3H12.4C11.6 0.0999999 10.8 0 10 0C4.5 0 0 4.5 0 10.1C0 12.7 1.1 15.3 2.9 17.1C4.8 19 7.3 20 9.9 20C15.4 20 19.9 15.5 19.9 10C20 9.4 19.5 9 19 9Z" fill="#0F88DC"/>
</svg>
