<svg width="19" height="18" viewBox="0 0 19 18" fill="none" xmlns="http://www.w3.org/2000/svg">
<g clip-path="url(#clip0_0_20295)">
<path d="M15.6088 0.865723H3.12809C1.75431 0.865723 0.636719 1.98335 0.636719 3.35709V11.7805C0.636719 13.1542 1.75431 14.2719 3.12809 14.2719H4.10573L4.12487 16.4713C4.12657 16.674 4.24298 16.8582 4.42532 16.9468C4.49944 16.9828 4.57922 17.0005 4.65863 17.0005C4.77456 17.0005 4.88964 16.9628 4.98487 16.8893L8.37608 14.2719H15.6088C16.9825 14.2719 18.1001 13.1542 18.1001 11.7805V3.35709C18.1001 1.98335 16.9825 0.865723 15.6088 0.865723ZM17.0324 11.7805C17.0324 12.5655 16.3938 13.2042 15.6088 13.2042H8.19405C8.07603 13.2042 7.96133 13.2433 7.86787 13.3154L5.18318 15.3875L5.16878 13.7334C5.16626 13.4404 4.92798 13.2042 4.63495 13.2042H3.12809C2.34309 13.2042 1.70444 12.5655 1.70444 11.7805V3.35709C1.70444 2.57209 2.34309 1.93345 3.12809 1.93345H15.6088C16.3938 1.93345 17.0324 2.57209 17.0324 3.35709L17.0324 11.7805Z" fill="#525252"/>
</g>
<defs>
<clipPath id="clip0_0_20295">
<rect width="17.4634" height="17.4634" fill="white" transform="translate(0.640625 0.199219)"/>
</clipPath>
</defs>
</svg>
