<svg width="43" height="37" viewBox="0 0 43 37" fill="none" xmlns="http://www.w3.org/2000/svg">
<path d="M41.1873 0.21875C32.7727 0.228069 24.7063 3.57923 18.7622 9.53521C12.8181 15.4912 9.483 23.5643 9.49046 31.9789L2.80374 25.2922C2.53581 25.0503 2.18511 24.9206 1.82425 24.9302C1.46339 24.9397 1.12001 25.0876 0.865201 25.3433C0.610397 25.599 0.463686 25.9429 0.455445 26.3038C0.447204 26.6647 0.578065 27.015 0.820932 27.282L9.90531 36.3664C10.0359 36.4972 10.191 36.6009 10.3617 36.6716C10.5324 36.7424 10.7154 36.7788 10.9002 36.7788C11.085 36.7788 11.268 36.7424 11.4387 36.6716C11.6095 36.6009 11.7645 36.4972 11.8952 36.3664L20.9795 27.282C21.1102 27.1514 21.2138 26.9963 21.2845 26.8256C21.3552 26.6548 21.3916 26.4719 21.3916 26.2871C21.3916 26.1023 21.3552 25.9194 21.2845 25.7487C21.2138 25.578 21.1102 25.4228 20.9795 25.2922C20.8489 25.1615 20.6938 25.0579 20.5231 24.9872C20.3523 24.9165 20.1694 24.8801 19.9846 24.8801C19.7998 24.8801 19.6169 24.9165 19.4462 24.9872C19.2754 25.0579 19.1203 25.1615 18.9897 25.2922L12.303 31.9789C12.2955 24.3102 15.3342 16.9525 20.7509 11.524C26.1676 6.09541 33.5186 3.04057 41.1873 3.03125C41.5603 3.03125 41.918 2.88309 42.1817 2.61937C42.4454 2.35565 42.5936 1.99796 42.5936 1.625C42.5936 1.25204 42.4454 0.894354 42.1817 0.630631C41.918 0.366908 41.5603 0.21875 41.1873 0.21875Z" fill="#0F88DC"/>
</svg>
