<svg width="14" height="14" viewBox="0 0 14 14" fill="none" xmlns="http://www.w3.org/2000/svg">
<path d="M13.4631 3.96904C13.4314 3.25173 13.3154 2.75859 13.1493 2.33127C12.9778 1.87769 12.7141 1.4716 12.3686 1.13401C12.031 0.79117 11.6222 0.524768 11.1739 0.356027C10.7441 0.18986 10.2536 0.0738631 9.53626 0.0422369C8.8136 0.0079323 8.58418 0 6.75131 0C4.91843 0 4.68901 0.0079323 3.96903 0.0395585C3.25172 0.0711847 2.75858 0.187285 2.33137 0.353348C1.87769 0.524768 1.47159 0.788492 1.13401 1.13401C0.791169 1.4716 0.52487 1.88037 0.356026 2.3287C0.18986 2.75859 0.073863 3.24905 0.0422369 3.96636C0.00793228 4.68902 0 4.91844 0 6.75132C0 8.5842 0.00793228 8.81361 0.0395584 9.5336C0.0711846 10.2509 0.187284 10.744 0.353451 11.1714C0.52487 11.6249 0.791169 12.031 1.13401 12.3686C1.47159 12.7115 1.88037 12.9779 2.32869 13.1466C2.75858 13.3128 3.24905 13.4288 3.96645 13.4604C4.68634 13.4921 4.91586 13.5 6.74873 13.5C8.58161 13.5 8.81102 13.4921 9.53101 13.4604C10.2483 13.4288 10.7415 13.3128 11.1687 13.1466C12.0759 12.7958 12.7932 12.0785 13.144 11.1714C13.3101 10.7415 13.4262 10.2509 13.4578 9.5336C13.4894 8.81361 13.4974 8.5842 13.4974 6.75132C13.4974 4.91844 13.4947 4.68902 13.4631 3.96904ZM12.2474 9.48086C12.2183 10.1402 12.1076 10.4962 12.0153 10.7335C11.7884 11.3217 11.3216 11.7884 10.7335 12.0153C10.4962 12.1076 10.1376 12.2183 9.48084 12.2473C8.76879 12.279 8.55523 12.2868 6.75399 12.2868C4.95274 12.2868 4.73651 12.279 4.02703 12.2473C3.36772 12.2183 3.0117 12.1076 2.77434 12.0153C2.48167 11.9071 2.21527 11.7357 1.99904 11.5115C1.77488 11.2926 1.60346 11.0289 1.49529 10.7362C1.40299 10.4989 1.29224 10.1402 1.26329 9.48353C1.23157 8.77148 1.22374 8.55782 1.22374 6.75657C1.22374 4.95532 1.23157 4.73909 1.26329 4.02971C1.29224 3.37041 1.40299 3.01438 1.49529 2.77703C1.60346 2.48425 1.77488 2.21795 2.00172 2.00162C2.22053 1.77745 2.48425 1.60603 2.77702 1.49797C3.01437 1.40567 3.37308 1.29492 4.02971 1.26587C4.74176 1.23425 4.95542 1.22631 6.75656 1.22631C8.56049 1.22631 8.77404 1.23425 9.48352 1.26587C10.1428 1.29492 10.4989 1.40567 10.7362 1.49797C11.0289 1.60603 11.2953 1.77745 11.5115 2.00162C11.7357 2.22053 11.9071 2.48425 12.0153 2.77703C12.1076 3.01438 12.2183 3.37298 12.2474 4.02971C12.279 4.74177 12.2869 4.95532 12.2869 6.75657C12.2869 8.55782 12.279 8.7688 12.2474 9.48086Z" fill="white"/>
<path d="M6.75141 3.28308C4.83684 3.28308 3.28345 4.83637 3.28345 6.75104C3.28345 8.66572 4.83684 10.219 6.75141 10.219C8.66608 10.219 10.2194 8.66572 10.2194 6.75104C10.2194 4.83637 8.66608 3.28308 6.75141 3.28308ZM6.75141 9.00062C5.50933 9.00062 4.50183 7.99322 4.50183 6.75104C4.50183 5.50887 5.50933 4.50146 6.75141 4.50146C7.99359 4.50146 9.00099 5.50887 9.00099 6.75104C9.00099 7.99322 7.99359 9.00062 6.75141 9.00062V9.00062Z" fill="white"/>
<path d="M11.1657 3.1464C11.1657 3.5935 10.8032 3.95602 10.356 3.95602C9.90891 3.95602 9.54639 3.5935 9.54639 3.1464C9.54639 2.69921 9.90891 2.33679 10.356 2.33679C10.8032 2.33679 11.1657 2.69921 11.1657 3.1464V3.1464Z" fill="white"/>
</svg>
