<svg width="14" height="14" viewBox="0 0 14 14" fill="none" xmlns="http://www.w3.org/2000/svg">
<path d="M13.4966 13.5001V13.4996H13.5V8.54844C13.5 6.12631 12.9786 4.2605 10.1469 4.2605C8.78568 4.2605 7.87218 5.0075 7.49924 5.71569H7.45987V4.48662H4.77505V13.4996H7.57068V9.03669C7.57068 7.86162 7.79343 6.72537 9.24862 6.72537C10.6824 6.72537 10.7038 8.06637 10.7038 9.11206V13.5001H13.4966Z" fill="white"/>
<path d="M0.222748 4.48718H3.02175V13.5001H0.222748V4.48718Z" fill="white"/>
<path d="M1.62112 0C0.726188 0 0 0.726188 0 1.62113C0 2.51606 0.726188 3.25744 1.62112 3.25744C2.51606 3.25744 3.24225 2.51606 3.24225 1.62113C3.24169 0.726188 2.5155 0 1.62112 0V0Z" fill="white"/>
</svg>
