<svg width="10" height="13" viewBox="0 0 10 13" fill="none" xmlns="http://www.w3.org/2000/svg">
<path d="M4.83223 6.10352C5.16223 6.10352 5.44483 5.98592 5.68003 5.75072C5.91483 5.51592 6.03223 5.23352 6.03223 4.90352C6.03223 4.57352 5.91483 4.29092 5.68003 4.05572C5.44483 3.82092 5.16223 3.70352 4.83223 3.70352C4.50223 3.70352 4.21983 3.82092 3.98503 4.05572C3.74983 4.29092 3.63223 4.57352 3.63223 4.90352C3.63223 5.23352 3.74983 5.51592 3.98503 5.75072C4.21983 5.98592 4.50223 6.10352 4.83223 6.10352ZM4.83223 10.5135C6.05223 9.39352 6.95723 8.37592 7.54723 7.46072C8.13723 6.54592 8.43223 5.73352 8.43223 5.02352C8.43223 3.93352 8.08463 3.04092 7.38943 2.34572C6.69463 1.65092 5.84223 1.30352 4.83223 1.30352C3.82223 1.30352 2.96963 1.65092 2.27443 2.34572C1.57963 3.04092 1.23223 3.93352 1.23223 5.02352C1.23223 5.73352 1.52723 6.54592 2.11723 7.46072C2.70723 8.37592 3.61223 9.39352 4.83223 10.5135ZM4.83223 12.1035C3.22223 10.7335 2.01983 9.46092 1.22503 8.28572C0.429827 7.11092 0.0322266 6.02352 0.0322266 5.02352C0.0322266 3.52352 0.514827 2.32852 1.48003 1.43852C2.44483 0.548516 3.56223 0.103516 4.83223 0.103516C6.10223 0.103516 7.21963 0.548516 8.18443 1.43852C9.14963 2.32852 9.63223 3.52352 9.63223 5.02352C9.63223 6.02352 9.23483 7.11092 8.44003 8.28572C7.64483 9.46092 6.44223 10.7335 4.83223 12.1035Z" fill="white"/>
</svg>
