<svg width="24" height="24" viewBox="0 0 24 24" fill="none" xmlns="http://www.w3.org/2000/svg">
<path d="M12.046 1.87526C11.7868 1.87338 11.5754 2.08198 11.5735 2.34073C11.5716 2.59948 11.7797 2.81088 12.039 2.81276C12.2977 2.81463 12.5091 2.60651 12.511 2.34776C12.5129 2.08901 12.3047 1.8776 12.046 1.87526ZM12.0247 4.68771C10.2148 4.67487 8.73253 6.13498 8.71884 7.9443C8.7052 9.75354 10.1661 11.2365 11.9754 11.2501L12.0006 11.2502C13.7984 11.2502 15.2677 9.79446 15.2812 7.99352C15.2949 6.18438 13.834 4.70135 12.0247 4.68771ZM12.0005 10.3128L11.9825 10.3127C10.6901 10.3029 9.64655 9.24363 9.6563 7.95133C9.666 6.66485 10.7154 5.62507 11.9996 5.62507L12.0176 5.62516C13.31 5.63491 14.3535 6.69419 14.3438 7.98649C14.334 9.27298 13.2847 10.3128 12.0005 10.3128ZM14.0453 2.23076C13.8014 2.14423 13.5333 2.27196 13.4468 2.51599C13.3603 2.76002 13.488 3.02791 13.732 3.11444C15.7967 3.84621 17.1728 5.81266 17.1562 8.00768C17.1543 8.26652 17.3626 8.47798 17.6215 8.47994H17.6251C17.8823 8.47994 18.0918 8.27238 18.0938 8.01471C18.1132 5.42032 16.4863 3.09593 14.0453 2.23076Z" fill="black"/>
<path d="M14.8763 17.6457C17.9941 13.6325 19.9425 11.5398 19.9688 8.02866C20.0018 3.61102 16.4167 0 11.9994 0C7.63367 0 4.06471 3.53569 4.03152 7.90912C4.00471 11.5155 5.98935 13.6053 9.12866 17.6451C6.00561 18.1117 4.03152 19.2844 4.03152 20.7188C4.03152 21.6795 4.91961 22.5417 6.53225 23.1464C8.00005 23.6968 9.94194 24 12.0002 24C14.0584 24 16.0003 23.6968 17.4681 23.1464C19.0807 22.5417 19.9688 21.6795 19.9688 20.7187C19.9688 19.2852 17.9966 18.1128 14.8763 17.6457ZM4.96897 7.9162C4.99822 4.05703 8.14705 0.9375 11.9995 0.9375C15.8976 0.9375 19.0604 4.12444 19.0314 8.02167C19.0064 11.3561 16.9401 13.4109 13.6412 17.7114C13.0528 18.4781 12.5124 19.203 12.0009 19.912C11.4909 19.2025 10.9613 18.4906 10.364 17.7111C6.92877 13.2306 4.94357 11.331 4.96897 7.9162ZM12.0002 23.0625C7.97591 23.0625 4.96897 21.8251 4.96897 20.7188C4.96897 19.8983 6.76653 18.8617 9.78894 18.5028C10.457 19.3794 11.0428 20.1758 11.6173 20.9892C11.6605 21.0504 11.7178 21.1004 11.7844 21.1349C11.8509 21.1694 11.9248 21.1874 11.9998 21.1875C12.0747 21.1875 12.1489 21.1695 12.2154 21.1352C12.2819 21.1008 12.3393 21.0509 12.3826 20.9898C12.9516 20.187 13.5534 19.371 14.2158 18.5033C17.2354 18.8626 19.0314 19.8988 19.0314 20.7188C19.0313 21.8251 16.0244 23.0625 12.0002 23.0625Z" fill="black"/>
</svg>
