<svg width="18" height="22" viewBox="0 0 18 22" fill="none" xmlns="http://www.w3.org/2000/svg">
<path fill-rule="evenodd" clip-rule="evenodd" d="M9.24953 20.8338L8.6196 21.3839L7.98967 20.8338C2.69248 16.2084 0 12.1697 0 8.6196C0 3.59213 3.92388 0 8.6196 0C13.3153 0 17.2392 3.59213 17.2392 8.6196C17.2392 12.1697 14.5467 16.2084 9.24953 20.8338ZM1.91547 8.6196C1.91547 11.3484 4.12458 14.7812 8.6196 18.8323C13.1146 14.7812 15.3237 11.3484 15.3237 8.6196C15.3237 4.68964 12.2934 1.91547 8.6196 1.91547C4.94584 1.91547 1.91547 4.68964 1.91547 8.6196ZM8.6196 3.83093C11.2643 3.83093 13.4083 5.97489 13.4083 8.6196C13.4083 11.2643 11.2643 13.4083 8.6196 13.4083C5.97489 13.4083 3.83093 11.2643 3.83093 8.6196C3.83093 5.97489 5.97489 3.83093 8.6196 3.83093ZM8.6196 5.7464C7.03277 5.7464 5.7464 7.03277 5.7464 8.6196C5.7464 10.2064 7.03277 11.4928 8.6196 11.4928C10.2064 11.4928 11.4928 10.2064 11.4928 8.6196C11.4928 7.03277 10.2064 5.7464 8.6196 5.7464Z" fill="#BCBCBC"/>
</svg>
