<?xml version="1.0" encoding="utf-8"?>
<!-- Generator: Adobe Illustrator 26.0.0, SVG Export Plug-In . SVG Version: 6.00 Build 0)  -->
<svg version="1.1" id="Layer_1" xmlns="http://www.w3.org/2000/svg" xmlns:xlink="http://www.w3.org/1999/xlink" x="0px" y="0px"
	 viewBox="0 0 25 25" style="enable-background:new 0 0 25 25;" xml:space="preserve">
<g>
	<path d="M20.9,17.5c0,0.7,0,1.4,0,2.1c0,0.5-0.2,0.9-0.7,1.2c-1,0.4-2,0.9-2.9,1.3c-1.5,0.7-3,1.3-4.4,2c-0.2,0.1-0.4,0.1-0.5,0
		c-1.6-0.7-3.3-1.5-4.9-2.2c-0.8-0.4-1.6-0.8-2.4-1.1c-0.5-0.2-0.8-0.6-0.8-1.2c0-1.4,0-2.8,0-4.2c0-0.3,0-0.3-0.3-0.5
		c-0.9-0.4-1.8-0.8-2.7-1.2c-0.2-0.1-0.3-0.2-0.3-0.4c0-0.2,0.1-0.3,0.3-0.4c1.2-0.5,2.4-1,3.5-1.6c1.3-0.6,2.6-1.1,3.9-1.7
		C8.7,9.6,8.9,9.5,9,9.5c0.1-0.1,0.1-0.1,0-0.2c-0.4-0.4-0.7-0.8-1-1.3c-1.3-2.5-0.2-5.6,2.4-6.7c2.4-1.1,5.2-0.1,6.4,2.2
		c0.8,1.6,0.8,3.2-0.2,4.8c-0.2,0.4-0.5,0.7-0.8,1c-0.1,0.1-0.1,0.1,0,0.2c2.1,0.9,4.2,1.9,6.3,2.8c0.5,0.2,1.1,0.5,1.6,0.7
		c0.2,0.1,0.3,0.2,0.3,0.4c0,0.2-0.1,0.3-0.3,0.4c0,0,0,0-0.1,0c-0.6,0.3-0.5,0.1-0.5,0.7c0,0.6,0,1.2,0,1.8c0,0.1,0,0.2,0.1,0.3
		c0.5,0.2,0.7,0.8,0.6,1.3c-0.1,0.5-0.6,0.9-1.1,0.9c-0.6,0-1-0.3-1.2-0.8c-0.2-0.5,0-1.1,0.5-1.3c0.1,0,0.1-0.1,0.2-0.1
		c0.1,0,0.1-0.1,0.1-0.2c0-0.6,0-1.2,0-1.8c0-0.2,0-0.2-0.2-0.1c-0.5,0.2-1,0.4-1.5,0.6c-0.1,0.1-0.1,0.1-0.1,0.3
		C20.9,16,20.9,16.7,20.9,17.5C20.9,17.5,20.9,17.5,20.9,17.5z M2.1,13.4c0.1,0,0.2,0.1,0.3,0.1c0.7,0.3,1.4,0.6,2.1,0.9
		c0.9,0.4,1.8,0.8,2.7,1.2c1.7,0.7,3.3,1.5,5,2.2c0.2,0.1,0.4,0.1,0.7,0c1.2-0.5,2.4-1,3.5-1.6c1.8-0.8,3.7-1.6,5.5-2.4
		c0.3-0.1,0.6-0.3,1-0.4c0-0.1-0.1-0.1-0.1-0.1c-1-0.4-2-0.9-2.9-1.3c-1.5-0.7-3-1.3-4.5-2c-0.1-0.1-0.2-0.1-0.4,0
		c-1.7,0.9-3.3,0.9-5,0c-0.1,0-0.2-0.1-0.2,0c-0.2,0.1-0.5,0.2-0.7,0.3c-1,0.4-2,0.9-3,1.3c-1.1,0.5-2.3,1-3.4,1.5
		C2.4,13.2,2.3,13.3,2.1,13.4z M16.7,5.7c0-2.3-1.9-4.2-4.1-4.2c-2.3,0-4.2,1.9-4.2,4.2c0,2.3,1.9,4.2,4.2,4.2
		C14.8,9.9,16.7,8.1,16.7,5.7z M4.9,16.8c0,0.4,0,0.8,0,1.2c0,0.1,0,0.2,0.1,0.2c0.5,0.2,1.1,0.5,1.6,0.7c1.9,0.9,3.8,1.7,5.7,2.6
		c0.1,0.1,0.2,0.1,0.4,0c0.6-0.3,1.2-0.6,1.9-0.9c1.8-0.8,3.6-1.6,5.4-2.5c0.1-0.1,0.2-0.1,0.2-0.3c0-0.8,0-1.5,0-2.3
		c0-0.2,0-0.2-0.2-0.1c-2.3,1-4.5,2-6.8,3c-0.4,0.2-0.8,0.2-1.1,0.1c-1.5-0.7-3.1-1.4-4.6-2c-0.8-0.3-1.5-0.7-2.3-1
		c-0.2-0.1-0.2-0.1-0.2,0.1C4.9,16,4.9,16.4,4.9,16.8z M4.9,19.4c0,0,0,0.1,0,0.1c0,0.3,0.1,0.5,0.4,0.6C6.2,20.5,7.1,21,8,21.4
		c1.4,0.7,2.9,1.3,4.3,2c0.1,0,0.2,0.1,0.3,0c0.6-0.3,1.2-0.5,1.8-0.8c1.2-0.6,2.4-1.1,3.6-1.7c0.6-0.3,1.2-0.5,1.8-0.8
		c0.3-0.1,0.4-0.3,0.4-0.6c0-0.1,0-0.3,0-0.4c0-0.2,0-0.2-0.2-0.1c-0.6,0.3-1.3,0.6-1.9,0.9c-1.8,0.8-3.5,1.6-5.3,2.4
		c-0.2,0.1-0.3,0.1-0.5,0c-1.7-0.8-3.5-1.6-5.2-2.4c-0.7-0.3-1.3-0.6-2-0.9c-0.1-0.1-0.2,0-0.2,0.1C4.9,19.2,4.9,19.3,4.9,19.4z
		 M23.5,17.6c0-0.2-0.2-0.4-0.5-0.4c-0.2,0-0.4,0.2-0.4,0.4c0,0.2,0.2,0.4,0.4,0.4C23.3,18,23.5,17.8,23.5,17.6z"/>
	<path d="M6,5.4c0.1,0,0.2,0,0.3,0c0.2,0,0.4,0.2,0.4,0.4c0,0.2-0.1,0.4-0.4,0.4c-0.2,0-0.5,0-0.7,0c-0.2,0-0.4-0.2-0.4-0.4
		c0-0.2,0.2-0.3,0.4-0.4C5.8,5.4,5.9,5.4,6,5.4z"/>
	<path d="M19,6.1c-0.1,0-0.2,0-0.4,0c-0.2,0-0.3-0.2-0.4-0.4c0-0.2,0.1-0.4,0.3-0.4c0.2,0,0.5,0,0.7,0c0.2,0,0.3,0.2,0.3,0.4
		c0,0.2-0.1,0.4-0.4,0.4C19.2,6.1,19.1,6.1,19,6.1C19,6.1,19,6.1,19,6.1z"/>
	<path d="M19.2,7.9c0,0.3-0.3,0.5-0.5,0.4c-0.2-0.1-0.5-0.2-0.7-0.4c-0.2-0.1-0.2-0.3-0.1-0.5c0.1-0.1,0.3-0.2,0.4-0.2
		c0.2,0.1,0.5,0.2,0.7,0.4C19.1,7.7,19.2,7.8,19.2,7.9z"/>
	<path d="M19.2,3.5c0,0.1-0.1,0.2-0.2,0.3c-0.2,0.1-0.4,0.2-0.6,0.3C18.2,4.3,18,4.2,17.9,4c-0.1-0.2-0.1-0.4,0.1-0.5
		c0.2-0.1,0.4-0.2,0.6-0.3C18.9,3.1,19.2,3.2,19.2,3.5z"/>
	<path d="M6.2,3.1c0,0,0.1,0,0.2,0.1C6.6,3.3,6.8,3.4,7,3.5C7.2,3.7,7.2,3.8,7.1,4C7,4.2,6.8,4.3,6.6,4.2C6.4,4.1,6.2,3.9,6,3.8
		C5.8,3.7,5.8,3.5,5.9,3.4C5.9,3.2,6,3.2,6.2,3.1z"/>
	<path d="M5.8,8c0-0.2,0.1-0.3,0.2-0.3c0.2-0.1,0.4-0.2,0.6-0.3C6.8,7.2,7,7.3,7.1,7.4c0.1,0.2,0,0.4-0.2,0.5
		C6.7,8.1,6.6,8.2,6.4,8.3C6.1,8.4,5.8,8.2,5.8,8z"/>
	<path d="M10.2,14.5c-0.2,0-0.4,0-0.6,0c-0.7,0-1.2-0.5-1.1-1.3c0.1-0.7,0.5-1.1,1.2-1.1c0.4,0,0.8,0,1.2,0c0.6,0,1.1,0.5,1.1,1.1
		c0,0.4,0,0.7-0.3,1c-0.2,0.2-0.4,0.3-0.7,0.3C10.7,14.5,10.4,14.5,10.2,14.5z M10.2,13.8C10.2,13.8,10.2,13.8,10.2,13.8
		c0.2,0,0.3,0,0.5,0c0.4,0,0.6-0.1,0.5-0.6c0-0.2-0.1-0.3-0.3-0.3c-0.5,0-0.9,0-1.4,0c-0.3,0-0.3,0.1-0.3,0.5c0,0.3,0.1,0.4,0.4,0.4
		C9.8,13.8,10,13.8,10.2,13.8z"/>
	<path d="M14.8,14.5c-0.2,0-0.5,0-0.7,0c-0.4,0-0.7-0.2-0.9-0.6c-0.3-0.6-0.1-1.4,0.5-1.7c0.1-0.1,0.3-0.1,0.4-0.1
		c0.4,0,0.9,0,1.3,0c0.6,0,1.1,0.4,1.1,1.1c0,0.3,0,0.6-0.2,0.9c-0.2,0.3-0.5,0.4-0.8,0.4C15.3,14.5,15,14.5,14.8,14.5z M14.8,13.8
		c0.2,0,0.4,0,0.6,0c0.3,0,0.4-0.1,0.4-0.4c0-0.3-0.1-0.5-0.4-0.5c-0.4,0-0.9,0-1.3,0c-0.3,0-0.4,0.1-0.4,0.5c0,0.2,0.1,0.4,0.4,0.4
		C14.4,13.8,14.6,13.8,14.8,13.8z"/>
	<path d="M12.2,7.2c0.2,0,0.5,0,0.7,0c0.3,0,0.5-0.2,0.5-0.5c0-0.3-0.2-0.5-0.5-0.5c-0.3,0-0.6,0-0.9,0c-0.6,0-1.1-0.4-1.3-0.9
		c-0.2-0.6,0.1-1.2,0.6-1.5c0.1-0.1,0.2-0.1,0.1-0.3c0-0.1,0-0.3,0-0.4c0-0.2,0.2-0.4,0.4-0.4c0.2,0,0.4,0.1,0.4,0.4
		c0,0.1,0,0.2,0,0.3c0,0.1,0,0.2,0.2,0.2c0.2,0,0.2-0.1,0.2-0.2c0-0.1,0-0.2,0-0.3c0-0.2,0.2-0.4,0.4-0.4c0.2,0,0.3,0.2,0.4,0.4
		c0,0.1,0,0.1,0,0.2c0,0.3,0,0.3,0.3,0.4C13.9,3.6,14,3.7,14,3.9c0,0.2-0.1,0.3-0.3,0.4c-0.1,0-0.2,0-0.2,0c-0.5,0-0.9,0-1.4,0
		c-0.3,0-0.6,0.2-0.6,0.5c0,0.3,0.2,0.5,0.6,0.5c0.3,0,0.5,0,0.8,0c0.7,0,1.2,0.4,1.3,1.1c0.1,0.5-0.2,1-0.6,1.2
		c-0.1,0.1-0.2,0.2-0.2,0.3c0,0.1,0,0.3,0,0.4c0,0.2-0.2,0.3-0.4,0.3c-0.2,0-0.3-0.1-0.4-0.3c0-0.1,0-0.3,0-0.4
		c0-0.2-0.1-0.2-0.2-0.2c-0.1,0-0.2,0-0.2,0.2c0,0.1,0,0.3,0,0.4c0,0.2-0.1,0.4-0.4,0.4c-0.2,0-0.4-0.1-0.4-0.4c0-0.1,0-0.1,0-0.2
		c0-0.2,0-0.3-0.3-0.3c-0.2,0-0.3-0.2-0.3-0.3c0-0.2,0.1-0.3,0.2-0.4c0.1,0,0.2,0,0.2,0C11.7,7.2,12,7.2,12.2,7.2
		C12.2,7.2,12.2,7.2,12.2,7.2z"/>
	<path d="M15.5,5.4c0.1,0,0.2,0,0.3,0c0.2,0,0.3,0.2,0.3,0.4c0,0.2-0.1,0.3-0.3,0.4c-0.2,0-0.4,0-0.5,0c-0.2,0-0.3-0.2-0.3-0.4
		c0-0.2,0.1-0.3,0.3-0.4C15.3,5.4,15.4,5.4,15.5,5.4C15.5,5.4,15.5,5.4,15.5,5.4z"/>
	<path d="M9.5,5.3c0.1,0,0.2,0,0.3,0c0.2,0,0.3,0.2,0.3,0.4c0,0.2-0.1,0.3-0.3,0.4c-0.2,0-0.4,0-0.6,0c-0.2,0-0.3-0.2-0.3-0.4
		c0-0.2,0.1-0.3,0.4-0.4C9.4,5.4,9.4,5.4,9.5,5.3C9.5,5.4,9.5,5.4,9.5,5.3z"/>
</g>
</svg>
