<svg width="22" height="18" viewBox="0 0 22 18" fill="none" xmlns="http://www.w3.org/2000/svg">
<path fill-rule="evenodd" clip-rule="evenodd" d="M21.4874 14.0616V16.2H6.51867V14.0616H21.4874ZM21.4874 7.64646V9.78485H6.51867V7.64646H21.4874ZM21.4874 1.2313V3.36969H6.51867V1.2313H21.4874ZM2.2419 17.2692C1.0609 17.2692 0.103516 16.3118 0.103516 15.1308C0.103516 13.9498 1.0609 12.9924 2.2419 12.9924C3.4229 12.9924 4.38029 13.9498 4.38029 15.1308C4.38029 16.3118 3.4229 17.2692 2.2419 17.2692ZM2.2419 10.854C1.0609 10.854 0.103516 9.89665 0.103516 8.71565C0.103516 7.53465 1.0609 6.57727 2.2419 6.57727C3.4229 6.57727 4.38029 7.53465 4.38029 8.71565C4.38029 9.89665 3.4229 10.854 2.2419 10.854ZM2.2419 4.43888C1.0609 4.43888 0.103516 3.48149 0.103516 2.3005C0.103516 1.1195 1.0609 0.162109 2.2419 0.162109C3.4229 0.162109 4.38029 1.1195 4.38029 2.3005C4.38029 3.48149 3.4229 4.43888 2.2419 4.43888Z" fill="#BCBCBC"/>
</svg>
