<svg width="17" height="17" viewBox="0 0 17 17" fill="none" xmlns="http://www.w3.org/2000/svg">
<g clip-path="url(#clip0_0_2390)">
<path d="M14.646 5.49348H12.0542C11.9133 5.49348 11.7781 5.43751 11.6785 5.33788C11.5789 5.23826 11.5229 5.10313 11.5229 4.96223C11.5229 4.82134 11.5789 4.68621 11.6785 4.58658C11.7781 4.48695 11.9133 4.43098 12.0542 4.43098H14.148L14.2989 2.09348C14.3103 1.95337 14.3759 1.82322 14.4817 1.73065C14.5875 1.63807 14.7252 1.59037 14.8655 1.59765C14.9354 1.60206 15.0037 1.62024 15.0665 1.65115C15.1293 1.68207 15.1853 1.7251 15.2314 1.77777C15.2775 1.83045 15.3127 1.89172 15.335 1.95806C15.3573 2.0244 15.3663 2.0945 15.3614 2.16432L15.1786 4.99765C15.1698 5.13263 15.1097 5.25913 15.0107 5.35129C14.9117 5.44345 14.7812 5.49431 14.646 5.49348Z" fill="black"/>
<path d="M8.51093 16.1177C7.17435 16.1174 5.8614 15.7654 4.70402 15.0969C3.54663 14.4284 2.58559 13.467 1.91749 12.3094C1.24938 11.1518 0.897746 9.83872 0.897919 8.50215C0.898092 7.16558 1.25007 5.85259 1.91847 4.69516C2.58688 3.53772 3.54817 2.57661 4.70572 1.90841C5.86328 1.24022 7.17633 0.888481 8.5129 0.88855C9.84947 0.888619 11.1625 1.24049 12.32 1.90881C13.4775 2.57712 14.4386 3.53834 15.1069 4.69584C15.1774 4.81795 15.1964 4.96305 15.1599 5.09921C15.1234 5.23536 15.0342 5.35144 14.9121 5.42188C14.79 5.49233 14.6449 5.51139 14.5088 5.47486C14.3726 5.43832 14.2565 5.3492 14.1861 5.22709C13.3915 3.84968 12.1233 2.80812 10.6177 2.29648C9.11205 1.78483 7.47179 1.838 6.00248 2.44608C4.53317 3.05416 3.33504 4.17567 2.63133 5.60164C1.92761 7.02762 1.76632 8.6608 2.17749 10.1969C2.58866 11.733 3.54426 13.0672 4.86623 13.9509C6.1882 14.8347 7.78638 15.2077 9.36298 15.0005C10.9396 14.7932 12.3871 14.0199 13.4358 12.8245C14.4844 11.6291 15.0628 10.0933 15.063 8.50313C15.063 8.36224 15.119 8.22711 15.2186 8.12748C15.3182 8.02785 15.4534 7.97188 15.5943 7.97188C15.7352 7.97188 15.8703 8.02785 15.9699 8.12748C16.0695 8.22711 16.1255 8.36224 16.1255 8.50313C16.1233 10.522 15.3203 12.4574 13.8928 13.885C12.4652 15.3125 10.5297 16.1155 8.51093 16.1177Z" fill="black"/>
<path d="M11.3451 11.1593C11.2304 11.1593 11.1188 11.122 11.0271 11.0531L8.19375 8.92809C8.12777 8.87861 8.07422 8.81444 8.03733 8.74067C8.00045 8.66691 7.98125 8.58557 7.98125 8.50309V4.96143C7.98125 4.82053 8.03722 4.6854 8.13685 4.58578C8.23647 4.48615 8.3716 4.43018 8.5125 4.43018C8.65339 4.43018 8.78852 4.48615 8.88815 4.58578C8.98778 4.6854 9.04375 4.82053 9.04375 4.96143V8.23747L11.6646 10.2031C11.7538 10.27 11.8197 10.3634 11.853 10.4699C11.8862 10.5764 11.8851 10.6906 11.8497 10.7964C11.8144 10.9022 11.7466 10.9942 11.656 11.0594C11.5655 11.1245 11.4567 11.1595 11.3451 11.1593Z" fill="black"/>
</g>
<defs>
<clipPath id="clip0_0_2390">
<rect width="17" height="17" fill="white"/>
</clipPath>
</defs>
</svg>
