<svg width="26" height="16" viewBox="0 0 26 16" fill="none" xmlns="http://www.w3.org/2000/svg">
<path d="M2.10813e-05 2.6596V12.4372C-0.00137409 12.7863 0.0664938 13.1323 0.199722 13.4551C0.332951 13.778 0.528912 14.0715 0.776339 14.3187C1.02377 14.5658 1.31778 14.7618 1.64147 14.8954C1.96516 15.0289 2.31214 15.0973 2.66247 15.0968H16.0979C17.5758 15.0968 18.8015 13.9098 18.8015 12.4372V9.83635L25.5364 14.0261C25.5854 14.0577 25.6426 14.0746 25.7009 14.0746C25.7519 14.0746 25.802 14.0606 25.8457 14.0342C25.8946 14.0057 25.9347 13.9644 25.9619 13.9149C25.989 13.8653 26.0021 13.8093 25.9997 13.7529V1.38419C26.0014 1.33004 25.989 1.27637 25.9637 1.22843C25.9383 1.1805 25.9009 1.13993 25.8552 1.11069C25.8113 1.08205 25.7604 1.06571 25.708 1.0634C25.6556 1.06108 25.6035 1.07287 25.5572 1.09752L18.8015 4.50066V2.6596C18.8015 1.18676 17.5758 3.15593e-06 16.0979 3.15593e-06H2.66241C2.3121 -0.0005357 1.96513 0.0679353 1.64145 0.20148C1.31778 0.335024 1.02378 0.531009 0.776368 0.778166C0.528951 1.02532 0.332994 1.31878 0.199761 1.64166C0.0665281 1.96455 -0.00135268 2.31049 2.10813e-05 2.6596ZM25.3551 1.90573V13.1748L18.8015 9.07937V5.22006L25.3551 1.90573ZM18.1568 12.4253C18.1571 13.5458 17.2458 14.4544 16.1215 14.4544H2.68003C1.55597 14.4544 0.644642 13.5461 0.644642 12.4259V2.67079C0.644642 1.55058 1.55597 0.642365 2.68003 0.642365H16.1215C17.2455 0.642365 18.1568 1.55058 18.1568 2.67079V12.4253Z" fill="black"/>
<path d="M4.5393 6.52642C5.67894 6.52642 6.60263 5.60563 6.60263 4.47016C6.60263 3.33442 5.67894 2.41368 4.5393 2.41368C3.39967 2.41368 2.47598 3.33447 2.47598 4.47016C2.47722 5.60525 3.40031 6.52519 4.5393 6.52642ZM4.5393 3.05609C5.32284 3.05609 5.95801 3.6893 5.95801 4.47016C5.95801 5.25101 5.32284 5.88401 4.5393 5.88401C3.75577 5.88401 3.1206 5.25101 3.1206 4.47016C3.12141 3.68952 3.7562 3.05711 4.5393 3.05609Z" fill="black"/>
</svg>
