<svg width="14" height="10" viewBox="0 0 14 10" fill="none" xmlns="http://www.w3.org/2000/svg">
<path fill-rule="evenodd" clip-rule="evenodd" d="M12.032 0.539111C12.6103 0.694841 13.0662 1.1507 13.2219 1.72903C13.5111 2.78536 13.4999 4.98722 13.4999 4.98722C13.4999 4.98722 13.4999 7.17785 13.222 8.23428C13.0662 8.8125 12.6104 9.26847 12.032 9.4241C10.9756 9.70219 6.74997 9.70219 6.74997 9.70219C6.74997 9.70219 2.53536 9.70219 1.4679 9.41307C0.88958 9.25734 0.433718 8.80138 0.277987 8.22316C0 7.17785 0 4.97609 0 4.97609C0 4.97609 0 2.78536 0.277987 1.72903C0.433615 1.15081 0.900703 0.683718 1.4678 0.52809C2.52424 0.25 6.74987 0.25 6.74987 0.25C6.74987 0.25 10.9756 0.25 12.032 0.539111ZM8.91848 4.97616L5.40454 7.00005V2.95227L8.91848 4.97616Z" fill="white"/>
</svg>
