<svg fill="none" xmlns="http://www.w3.org/2000/svg" viewBox="0.33 0.05 88.44 83.98"> <path d="M44.4739 0.0468805C44.7502 0.0475475 45.0264 0.0482145 45.311 0.0489017C49.8589 0.0705537 53.9632 0.514992 58.2944 1.95464C58.7284 2.08743 59.1624 2.22016 59.5964 2.35283C65.8039 4.35403 71.2755 8.2324 75.9611 12.6093C76.1368 12.7663 76.3125 12.9233 76.4936 13.0851C82.1474 18.308 85.9824 25.7143 87.7389 33.0546C87.8147 33.3551 87.8905 33.6555 87.9686 33.965C88.6681 36.9866 88.7853 39.9165 88.7694 43.0074C88.7691 43.3867 88.7691 43.3867 88.7687 43.7736C88.756 47.7428 88.4274 51.4359 87.15 55.2278C87.064 55.4973 86.9781 55.7669 86.8896 56.0446C84.8604 62.2627 81.6737 67.4705 77.1389 72.2176C76.5868 72.8297 76.0396 73.4456 75.493 74.0624C75.1707 74.4185 74.8327 74.761 74.4889 75.0972C74.1974 75.0972 73.9059 75.0972 73.6055 75.0972C73.4484 74.7873 73.2912 74.4773 73.1293 74.158C69.4495 67.0462 64.3013 62.1914 56.8222 58.9713C56.1475 58.7669 56.1475 58.7669 55.6444 58.6833C55.6444 58.3032 55.6444 57.9231 55.6444 57.5315C56.2805 57.0591 56.2805 57.0591 57.135 56.5956C58.7421 55.6478 59.8232 54.6714 60.9444 53.2121C61.1198 52.9927 61.2951 52.7733 61.4758 52.5473C62.8262 50.7759 63.7301 48.9578 64.4777 46.8769C64.5723 46.6211 64.6668 46.3653 64.7641 46.1018C66.313 41.149 65.5793 35.5179 63.3368 30.8949C62.5638 29.4913 61.6867 28.2348 60.65 27.0074C60.5179 26.8367 60.3858 26.6659 60.2497 26.49C57.3104 22.8403 52.3207 20.7114 47.6944 20.0963C41.6516 19.5636 36.1522 20.7971 31.2607 24.4697C28.7279 26.6117 26.9496 29.3599 25.3166 32.1908C23.4636 32.0188 21.793 31.6075 20.0166 31.0749C16.5462 30.0584 13.0577 29.113 9.56386 28.1773C9.29447 28.1051 9.02508 28.0328 8.74752 27.9584C7.2041 27.5447 5.66046 27.1317 4.11664 26.7195C5.3674 19.9396 11.9973 13.1443 17.3666 9.15371C17.665 8.92616 17.9633 8.69862 18.2707 8.46417C25.9211 2.77268 34.9251 -0.0249415 44.4739 0.0468805Z" fill="#0D5B98"></path> <path d="M2.34994 30.7509C4.8779 31.2565 7.3441 31.9601 9.82147 32.6587C10.2781 32.7869 10.7346 32.9151 11.1912 33.0433C14.093 33.8592 16.992 34.6844 19.8878 35.5203C20.2217 35.6165 20.5557 35.7127 20.8998 35.8118C21.2039 35.9001 21.5079 35.9884 21.8212 36.0793C22.0856 36.156 22.35 36.2327 22.6224 36.3117C23.2555 36.5102 23.2555 36.5102 23.8444 36.7981C23.8375 37.039 23.8307 37.2799 23.8237 37.5282C23.7193 44.1116 25.2205 50.0387 29.9564 54.9027C31.1367 55.9987 32.2979 57.0237 33.8555 57.5315C33.8555 57.8165 33.8555 58.1016 33.8555 58.3953C33.553 58.5175 33.2505 58.6396 32.9388 58.7654C29.0708 60.3544 25.8404 62.3084 22.6666 65.0185C22.4609 65.1918 22.2552 65.3652 22.0432 65.5438C19.1809 68.1352 17.2083 71.6635 15.5999 75.0972C12.1898 73.7332 9.6418 69.6109 7.64994 66.7463C7.44118 66.4512 7.23242 66.1561 7.01734 65.852C4.35635 61.8764 2.44691 57.2844 1.4666 52.6361C1.42343 52.4445 1.38026 52.253 1.33577 52.0557C-0.183035 45.1559 -0.0796265 37.4331 2.34994 30.7509Z" fill="#0D5B98"></path> <path d="M54.2551 27.0333C57.6615 29.374 59.7798 32.673 60.8214 36.5766C61.5482 41.2866 60.9047 45.8505 58 49.7565C55.1131 53.4181 51.262 55.6551 46.5754 56.3065C41.706 56.6845 37.58 55.3631 33.8556 52.3482C30.2531 48.9761 28.5442 45.2806 28.1875 40.3977C28.2775 35.3723 30.4091 31.4025 34.0396 27.9613C39.7427 23.098 48.0598 23.2784 54.2551 27.0333ZM35.98 33.3921C34.4313 35.5504 33.6898 37.5804 33.7268 40.2177C33.7294 40.4454 33.7321 40.6732 33.7348 40.9078C33.8305 44.072 35.0937 46.3715 37.3889 48.6046C40.274 50.7418 43.2439 51.2416 46.8111 50.9083C49.8989 50.1707 52.4018 48.6348 54.1423 46.0062C55.9026 42.9172 55.9673 39.8927 55.1361 36.5012C54.14 33.7567 52.0577 31.8081 49.4611 30.463C44.7829 28.408 39.2496 29.5017 35.98 33.3921Z" fill="#0E5C98"></path> <path d="M50.862 31.2492C53.4367 33.1321 55.0368 35.3578 55.5237 38.4922C55.8547 41.9063 55.2829 44.2846 53.2153 47.1288C51.5664 49.0555 49.3603 50.4671 46.8111 50.9083C43.3468 51.1741 40.6059 50.8427 37.7443 48.8723C35.7662 47.1809 34.1317 44.8079 33.7678 42.2221C33.7271 41.5751 33.7177 40.9378 33.7267 40.2897C33.7292 40.0622 33.7316 39.8347 33.7341 39.6002C33.8218 36.6297 34.9299 34.2959 37.0944 32.1907C41.1946 29.0962 46.3495 28.48 50.862 31.2492Z" fill="#1FA6DE"></path> <path d="M44.4555 63.5787C44.747 63.6737 45.0385 63.7688 45.3389 63.8667C45.6564 64.618 45.9153 65.3392 46.1567 66.1141C46.231 66.3427 46.3054 66.5713 46.3821 66.8068C46.6205 67.5415 46.8539 68.2777 47.0871 69.014C47.3197 69.738 47.5533 70.4617 47.7872 71.1852C47.9386 71.654 48.0894 72.1229 48.2395 72.5921C48.7245 74.0996 49.2541 75.5813 49.8551 77.049C50.0858 77.8063 50.1584 78.3428 50.05 79.1287C49.5905 79.7416 49.5905 79.7416 48.955 80.3402C48.6163 80.6645 48.6163 80.6645 48.2707 80.9954C48.0319 81.2168 47.7932 81.4383 47.5472 81.6664C47.3085 81.8934 47.0697 82.1204 46.8238 82.3542C46.2338 82.9142 45.6407 83.4706 45.0444 84.0241C43.6385 83.4018 42.6659 82.4345 41.5663 81.3964C41.2546 81.1203 41.2546 81.1203 40.9366 80.8385C39.9657 79.9177 39.4724 79.447 39.3775 78.0972C39.5176 77.5193 39.5176 77.5193 39.7444 76.825C39.8384 76.5209 39.9325 76.2168 40.0293 75.9035C40.3835 74.8065 40.7602 73.7191 41.143 72.6316C41.2713 72.2625 41.3994 71.8933 41.5272 71.5241C41.7826 70.7871 42.0395 70.0505 42.2972 69.3142C42.571 68.5296 42.8391 67.7434 43.1035 66.9557C43.1706 66.7564 43.2376 66.5572 43.3067 66.3519C43.4933 65.796 43.679 65.2397 43.8646 64.6834C44.1611 63.8667 44.1611 63.8667 44.4555 63.5787Z" fill="#1FA7DF"></path> </svg>