<svg width="222" height="85" viewBox="0 0 222 85" fill="none" xmlns="http://www.w3.org/2000/svg">
<path d="M44.4739 0.0468805C44.7502 0.0475475 45.0264 0.0482145 45.311 0.0489017C49.8589 0.0705537 53.9632 0.514992 58.2944 1.95464C58.7284 2.08743 59.1624 2.22016 59.5964 2.35283C65.8039 4.35403 71.2755 8.2324 75.9611 12.6093C76.1368 12.7663 76.3125 12.9233 76.4936 13.0851C82.1474 18.308 85.9824 25.7143 87.7389 33.0546C87.8147 33.3551 87.8905 33.6555 87.9686 33.965C88.6681 36.9866 88.7853 39.9165 88.7694 43.0074C88.7691 43.3867 88.7691 43.3867 88.7687 43.7736C88.756 47.7428 88.4274 51.4359 87.15 55.2278C87.064 55.4973 86.9781 55.7669 86.8896 56.0446C84.8604 62.2627 81.6737 67.4705 77.1389 72.2176C76.5868 72.8297 76.0396 73.4456 75.493 74.0624C75.1707 74.4185 74.8327 74.761 74.4889 75.0972C74.1974 75.0972 73.9059 75.0972 73.6055 75.0972C73.4484 74.7873 73.2912 74.4773 73.1293 74.158C69.4495 67.0462 64.3013 62.1914 56.8222 58.9713C56.1475 58.7669 56.1475 58.7669 55.6444 58.6833C55.6444 58.3032 55.6444 57.9231 55.6444 57.5315C56.2805 57.0591 56.2805 57.0591 57.135 56.5956C58.7421 55.6478 59.8232 54.6714 60.9444 53.2121C61.1198 52.9927 61.2951 52.7733 61.4758 52.5473C62.8262 50.7759 63.7301 48.9578 64.4777 46.8769C64.5723 46.6211 64.6668 46.3653 64.7641 46.1018C66.313 41.149 65.5793 35.5179 63.3368 30.8949C62.5638 29.4913 61.6867 28.2348 60.65 27.0074C60.5179 26.8367 60.3858 26.6659 60.2497 26.49C57.3104 22.8403 52.3207 20.7114 47.6944 20.0963C41.6516 19.5636 36.1522 20.7971 31.2607 24.4697C28.7279 26.6117 26.9496 29.3599 25.3166 32.1908C23.4636 32.0188 21.793 31.6075 20.0166 31.0749C16.5462 30.0584 13.0577 29.113 9.56386 28.1773C9.29447 28.1051 9.02508 28.0328 8.74752 27.9584C7.2041 27.5447 5.66046 27.1317 4.11664 26.7195C5.3674 19.9396 11.9973 13.1443 17.3666 9.15371C17.665 8.92616 17.9633 8.69862 18.2707 8.46417C25.9211 2.77268 34.9251 -0.0249415 44.4739 0.0468805Z" fill="#0D5B98"/>
<path d="M2.34994 30.7509C4.8779 31.2565 7.3441 31.9601 9.82147 32.6587C10.2781 32.7869 10.7346 32.9151 11.1912 33.0433C14.093 33.8592 16.992 34.6844 19.8878 35.5203C20.2217 35.6165 20.5557 35.7127 20.8998 35.8118C21.2039 35.9001 21.5079 35.9884 21.8212 36.0793C22.0856 36.156 22.35 36.2327 22.6224 36.3117C23.2555 36.5102 23.2555 36.5102 23.8444 36.7981C23.8375 37.039 23.8307 37.2799 23.8237 37.5282C23.7193 44.1116 25.2205 50.0387 29.9564 54.9027C31.1367 55.9987 32.2979 57.0237 33.8555 57.5315C33.8555 57.8165 33.8555 58.1016 33.8555 58.3953C33.553 58.5175 33.2505 58.6396 32.9388 58.7654C29.0708 60.3544 25.8404 62.3084 22.6666 65.0185C22.4609 65.1918 22.2552 65.3652 22.0432 65.5438C19.1809 68.1352 17.2083 71.6635 15.5999 75.0972C12.1898 73.7332 9.6418 69.6109 7.64994 66.7463C7.44118 66.4512 7.23242 66.1561 7.01734 65.852C4.35635 61.8764 2.44691 57.2844 1.4666 52.6361C1.42343 52.4445 1.38026 52.253 1.33577 52.0557C-0.183035 45.1559 -0.0796265 37.4331 2.34994 30.7509Z" fill="#0D5B98"/>
<path d="M54.2551 27.0333C57.6615 29.374 59.7798 32.673 60.8214 36.5766C61.5482 41.2866 60.9047 45.8505 58 49.7565C55.1131 53.4181 51.262 55.6551 46.5754 56.3065C41.706 56.6845 37.58 55.3631 33.8556 52.3482C30.2531 48.9761 28.5442 45.2806 28.1875 40.3977C28.2775 35.3723 30.4091 31.4025 34.0396 27.9613C39.7427 23.098 48.0598 23.2784 54.2551 27.0333ZM35.98 33.3921C34.4313 35.5504 33.6898 37.5804 33.7268 40.2177C33.7294 40.4454 33.7321 40.6732 33.7348 40.9078C33.8305 44.072 35.0937 46.3715 37.3889 48.6046C40.274 50.7418 43.2439 51.2416 46.8111 50.9083C49.8989 50.1707 52.4018 48.6348 54.1423 46.0062C55.9026 42.9172 55.9673 39.8927 55.1361 36.5012C54.14 33.7567 52.0577 31.8081 49.4611 30.463C44.7829 28.408 39.2496 29.5017 35.98 33.3921Z" fill="#0E5C98"/>
<path d="M50.862 31.2492C53.4367 33.1321 55.0368 35.3578 55.5237 38.4922C55.8547 41.9063 55.2829 44.2846 53.2153 47.1288C51.5664 49.0555 49.3603 50.4671 46.8111 50.9083C43.3468 51.1741 40.6059 50.8427 37.7443 48.8723C35.7662 47.1809 34.1317 44.8079 33.7678 42.2221C33.7271 41.5751 33.7177 40.9378 33.7267 40.2897C33.7292 40.0622 33.7316 39.8347 33.7341 39.6002C33.8218 36.6297 34.9299 34.2959 37.0944 32.1907C41.1946 29.0962 46.3495 28.48 50.862 31.2492Z" fill="#1FA6DE"/>
<path d="M99.8111 45.149C101.463 45.149 103.115 45.149 104.817 45.149C105.657 47.1885 106.495 49.2285 107.333 51.2689C107.618 51.9635 107.904 52.6579 108.19 53.3522C108.6 54.3482 109.009 55.3447 109.417 56.3413C109.611 56.8093 109.611 56.8093 109.808 57.2867C109.926 57.5749 110.043 57.8631 110.165 58.1601C110.27 58.4146 110.374 58.6691 110.482 58.9313C110.706 59.5472 110.706 59.5472 110.706 60.1231C110.9 60.1231 111.094 60.1231 111.294 60.1231C111.344 59.9492 111.395 59.7753 111.446 59.5961C111.981 57.7886 112.628 56.0562 113.359 54.3166C113.469 54.0522 113.579 53.7879 113.692 53.5155C114.039 52.6819 114.387 51.8491 114.736 51.0163C114.973 50.4468 115.21 49.8772 115.447 49.3076C116.024 47.9209 116.603 46.5348 117.183 45.149C118.835 45.149 120.487 45.149 122.189 45.149C122.189 52.2761 122.189 59.4032 122.189 66.7463C120.731 66.7463 119.274 66.7463 117.772 66.7463C117.675 62.8501 117.578 58.954 117.478 54.9398C115.923 58.8359 114.368 62.7321 112.767 66.7463C111.601 66.7463 110.435 66.7463 109.233 66.7463C108.609 65.2038 107.986 63.6612 107.362 62.1185C107.15 61.5937 106.938 61.0688 106.726 60.544C106.421 59.79 106.116 59.0359 105.812 58.2817C105.716 58.0468 105.621 57.8119 105.523 57.5699C105.435 57.3509 105.347 57.1319 105.255 56.9062C105.178 56.7138 105.1 56.5213 105.02 56.323C104.841 55.8665 104.68 55.4035 104.522 54.9398C104.425 58.8359 104.328 62.7321 104.228 66.7463C102.77 66.7463 101.313 66.7463 99.8111 66.7463C99.8111 59.6192 99.8111 52.4921 99.8111 45.149Z" fill="#0E5C97"/>
<path d="M122.778 18.6565C124.235 18.6565 125.693 18.6565 127.194 18.6565C128.082 19.6044 128.442 20.1331 128.961 21.2481C129.253 21.7165 129.552 22.1811 129.857 22.6418C130.166 23.1309 130.475 23.6202 130.783 24.1098C130.93 24.3431 131.078 24.5764 131.23 24.8167C132.838 27.3652 134.431 29.9232 136.028 32.4787C136.125 27.9174 136.222 23.356 136.322 18.6565C137.683 18.6565 139.043 18.6565 140.444 18.6565C140.444 25.7836 140.444 32.9106 140.444 40.2537C138.987 40.2537 137.529 40.2537 136.028 40.2537C134.973 39.1763 134.466 38.4953 133.801 37.2121C133.438 36.5817 133.076 35.9514 132.713 35.3212C132.533 34.9956 132.354 34.67 132.169 34.3346C131.448 33.0518 130.669 31.808 129.883 30.5631C129.077 29.2866 128.284 28.0023 127.489 26.7194C127.392 31.1857 127.295 35.652 127.194 40.2537C125.737 40.2537 124.279 40.2537 122.778 40.2537C122.778 33.1266 122.778 25.9995 122.778 18.6565Z" fill="#0D5C98"/>
<path d="M159.521 46.41C161.137 47.569 162.495 49.0266 163.117 50.9083C163.117 51.1934 163.117 51.4785 163.117 51.7722C162.313 51.8112 161.51 51.8397 160.706 51.8622C160.479 51.8743 160.253 51.8863 160.02 51.8988C158.746 51.9255 158.277 51.9079 157.263 51.0793C157.057 50.8328 156.851 50.5863 156.639 50.3324C155.198 49.4037 153.903 49.2182 152.222 49.4685C150.674 49.9652 149.539 50.6739 148.689 52.0602C147.599 54.3861 147.405 56.6382 148.284 59.0613C149.043 60.7391 150.183 61.7265 151.928 62.4268C153.812 62.6245 155.643 62.6866 157.228 61.563C158.325 60.4589 158.632 59.607 159.289 58.1074C157.054 58.1074 154.819 58.1074 152.517 58.1074C152.517 56.9671 152.517 55.8267 152.517 54.6518C156.209 54.6518 159.901 54.6518 163.706 54.6518C163.706 59.0669 163.552 61.2919 160.761 64.4426C158.665 66.2044 155.944 67.2538 153.15 67.1141C150.035 66.7215 147.554 65.8213 145.429 63.4842C143.092 60.4426 142.71 57.202 143.094 53.5C143.667 50.5618 145.11 48.2475 147.585 46.4809C151.286 44.2646 155.802 44.2598 159.521 46.41Z" fill="#20A6DF"/>
<path d="M143.978 18.6565C156.596 19.009 156.596 19.009 159.583 21.8241C161.827 24.3721 162.423 27.2891 162.335 30.5901C162.054 33.4291 161.146 35.9662 158.994 37.95C154.354 41.3357 150.206 40.2537 143.978 40.2537C143.978 33.1266 143.978 25.9995 143.978 18.6565ZM148.394 22.688C148.394 27.2493 148.394 31.8106 148.394 36.5102C152.33 36.5556 152.33 36.5556 155.7 35.1603C157.345 33.4604 157.92 31.4027 157.88 29.094C157.679 27.0373 157.043 25.2525 155.461 23.8398C153.193 22.2969 151.281 22.688 148.394 22.688Z" fill="#0E5C98"/>
<path d="M186.378 45.149C197.809 45.149 197.809 45.149 200.098 47.2773C201.559 48.9172 201.832 50.8209 201.689 52.924C201.269 54.6799 200.7 56.2683 199.094 57.2975C198.593 57.5819 198.081 57.8464 197.567 58.1074C198.125 60.1702 199.359 61.923 200.462 63.7412C200.618 64.0035 200.775 64.2657 200.937 64.5359C201.081 64.7737 201.225 65.0116 201.374 65.2566C201.689 65.8824 201.689 65.8824 201.689 66.7463C200.037 66.7463 198.385 66.7463 196.683 66.7463C196.231 65.8782 196.231 65.8782 195.769 64.9926C195.473 64.4335 195.175 63.8753 194.877 63.3172C194.671 62.929 194.467 62.5399 194.265 62.1499C193.973 61.5891 193.676 61.032 193.377 60.4752C193.199 60.1389 193.022 59.8026 192.839 59.4561C192.279 58.5163 192.279 58.5163 190.794 58.3953C190.794 61.1511 190.794 63.9069 190.794 66.7463C189.337 66.7463 187.879 66.7463 186.378 66.7463C186.378 59.6192 186.378 52.4921 186.378 45.149ZM190.794 49.1805C190.794 51.0811 190.794 52.9816 190.794 54.9398C191.493 54.9635 192.191 54.9873 192.911 55.0118C193.236 55.0275 193.236 55.0275 193.569 55.0435C194.63 55.0609 195.176 54.9622 196.073 54.3953C196.895 53.5769 197.038 53.0908 197.088 51.9702C197.103 51.7515 197.117 51.5329 197.132 51.3076C196.89 50.2303 196.4 49.831 195.506 49.1805C194.677 49.0134 193.899 49.0431 193.058 49.0905C191.938 49.1351 191.938 49.1351 190.794 49.1805Z" fill="#20A6DF"/>
<path d="M204.633 45.149C206.091 45.149 207.548 45.149 209.05 45.149C209.054 45.5849 209.059 46.0207 209.063 46.4698C209.08 48.0895 209.103 49.7091 209.127 51.3287C209.137 52.0292 209.145 52.7297 209.152 53.4302C209.162 54.4382 209.177 55.4459 209.194 56.4538C209.196 56.7662 209.198 57.0785 209.199 57.4003C209.231 58.9945 209.291 60.1956 210.228 61.5629C211.342 62.5538 212.5 62.5733 213.945 62.5292C214.952 62.3818 215.448 62.0112 216.117 61.275C216.681 60.3683 216.784 59.673 216.799 58.6178C216.805 58.3181 216.811 58.0184 216.817 57.7096C216.821 57.388 216.824 57.0664 216.827 56.735C216.833 56.4043 216.839 56.0736 216.845 55.7328C216.862 54.6766 216.876 53.6204 216.89 52.5641C216.901 51.8479 216.912 51.1318 216.924 50.4156C216.952 48.6601 216.977 46.9046 217 45.149C218.457 45.149 219.915 45.149 221.417 45.149C221.439 47.3214 221.455 49.4937 221.465 51.6662C221.47 52.4046 221.476 53.1431 221.483 53.8816C221.494 54.9452 221.499 56.0088 221.503 57.0725C221.507 57.4007 221.512 57.729 221.517 58.0672C221.517 60.6929 221.006 62.6849 219.319 64.78C217.661 66.3607 215.395 67.0561 213.117 67.1062C210.805 67.0687 208.722 66.4117 206.918 64.9825C205.216 63.2073 204.594 60.9637 204.6 58.5851C204.6 58.2854 204.6 57.9857 204.6 57.6769C204.601 57.3568 204.603 57.0367 204.605 56.7069C204.605 56.3766 204.605 56.0463 204.606 55.7059C204.607 54.6526 204.611 53.5994 204.615 52.5461C204.616 51.8312 204.618 51.1164 204.619 50.4015C204.622 48.6507 204.627 46.8999 204.633 45.149Z" fill="#20A6DF"/>
<path d="M166.061 45.149C167.519 45.149 168.976 45.149 170.478 45.149C170.482 45.5849 170.486 46.0207 170.491 46.4698C170.508 48.0895 170.531 49.7091 170.555 51.3287C170.565 52.0292 170.573 52.7297 170.58 53.4302C170.59 54.4382 170.605 55.4459 170.622 56.4538C170.623 56.7662 170.625 57.0785 170.627 57.4003C170.659 58.9945 170.719 60.1956 171.656 61.5629C172.77 62.5538 173.927 62.5733 175.373 62.5292C176.38 62.3818 176.875 62.0112 177.544 61.275C178.109 60.3683 178.212 59.673 178.227 58.6178C178.233 58.3181 178.239 58.0184 178.245 57.7096C178.248 57.388 178.252 57.0664 178.255 56.735C178.261 56.4043 178.267 56.0736 178.273 55.7328C178.29 54.6766 178.304 53.6204 178.317 52.5641C178.329 51.8479 178.34 51.1318 178.352 50.4156C178.38 48.6601 178.405 46.9046 178.428 45.149C179.885 45.149 181.343 45.149 182.844 45.149C182.866 47.3214 182.882 49.4937 182.893 51.6662C182.897 52.4046 182.903 53.1431 182.911 53.8816C182.922 54.9452 182.927 56.0088 182.931 57.0725C182.935 57.4007 182.94 57.729 182.945 58.0672C182.945 60.6929 182.433 62.6849 180.747 64.78C179.089 66.3607 176.823 67.0561 174.545 67.1062C172.233 67.0687 170.15 66.4117 168.345 64.9825C166.644 63.2073 166.022 60.9637 166.028 58.5851C166.028 58.2854 166.028 57.9857 166.028 57.6769C166.029 57.3568 166.031 57.0367 166.032 56.7069C166.033 56.3766 166.033 56.0463 166.034 55.7059C166.035 54.6526 166.039 53.5994 166.043 52.5461C166.044 51.8312 166.046 51.1164 166.047 50.4015C166.05 48.6507 166.055 46.8999 166.061 45.149Z" fill="#20A6DF"/>
<path d="M123.956 45.1491C125.607 45.1491 127.259 45.1491 128.961 45.1491C130.447 47.9838 131.777 50.8705 133.083 53.788C133.824 52.8992 134.289 52.0105 134.751 50.959C134.893 50.6392 135.035 50.3194 135.181 49.9899C135.327 49.6575 135.473 49.3251 135.623 48.9826C135.914 48.3213 136.207 47.6602 136.499 46.9995C136.628 46.7067 136.756 46.4139 136.889 46.1123C137.206 45.437 137.206 45.437 137.5 45.1491C138.294 45.128 139.08 45.1225 139.874 45.1311C140.097 45.1324 140.321 45.1337 140.551 45.135C141.104 45.1384 141.658 45.1436 142.211 45.1491C142.028 46.4898 141.458 47.5918 140.834 48.7801C140.726 48.9892 140.619 49.1984 140.507 49.4138C140.163 50.0808 139.816 50.7466 139.469 51.4123C138.7 52.8939 137.935 54.3776 137.178 55.8649C136.958 56.2889 136.729 56.7079 136.496 57.1253C135.502 59.0119 135.537 60.9311 135.512 63.0208C135.499 63.5595 135.499 63.5595 135.486 64.1091C135.465 64.9881 135.451 65.8672 135.439 66.7463C133.981 66.7463 132.524 66.7463 131.022 66.7463C131.056 66.292 131.089 65.8376 131.123 65.3695C131.327 59.8234 129.656 56.1508 126.93 51.4135C125.778 49.3905 124.877 47.281 123.956 45.1491Z" fill="#0E5C98"/>
<path d="M99.8111 18.6565C104.086 18.6565 108.362 18.6565 112.767 18.6565C112.767 19.8918 112.767 21.1272 112.767 22.4C109.949 22.4 107.131 22.4 104.228 22.4C104.228 24.1105 104.228 25.821 104.228 27.5833C106.365 27.5833 108.503 27.5833 110.706 27.5833C110.706 28.8187 110.706 30.054 110.706 31.3268C108.568 31.3268 106.43 31.3268 104.228 31.3268C104.228 34.2727 104.228 37.2186 104.228 40.2537C102.77 40.2537 101.313 40.2537 99.8111 40.2537C99.8111 33.1266 99.8111 25.9995 99.8111 18.6565Z" fill="#0D5C97"/>
<path d="M44.4555 63.5787C44.747 63.6737 45.0385 63.7688 45.3389 63.8667C45.6564 64.618 45.9153 65.3392 46.1567 66.1141C46.231 66.3427 46.3054 66.5713 46.3821 66.8068C46.6205 67.5415 46.8539 68.2777 47.0871 69.014C47.3197 69.738 47.5533 70.4617 47.7872 71.1852C47.9386 71.654 48.0894 72.1229 48.2395 72.5921C48.7245 74.0996 49.2541 75.5813 49.8551 77.049C50.0858 77.8063 50.1584 78.3428 50.05 79.1287C49.5905 79.7416 49.5905 79.7416 48.955 80.3402C48.6163 80.6645 48.6163 80.6645 48.2707 80.9954C48.0319 81.2168 47.7932 81.4383 47.5472 81.6664C47.3085 81.8934 47.0697 82.1204 46.8238 82.3542C46.2338 82.9142 45.6407 83.4706 45.0444 84.0241C43.6385 83.4018 42.6659 82.4345 41.5663 81.3964C41.2546 81.1203 41.2546 81.1203 40.9366 80.8385C39.9657 79.9177 39.4724 79.447 39.3775 78.0972C39.5176 77.5193 39.5176 77.5193 39.7444 76.825C39.8384 76.5209 39.9325 76.2168 40.0293 75.9035C40.3835 74.8065 40.7602 73.7191 41.143 72.6316C41.2713 72.2625 41.3994 71.8933 41.5272 71.5241C41.7826 70.7871 42.0395 70.0505 42.2972 69.3142C42.571 68.5296 42.8391 67.7434 43.1035 66.9557C43.1706 66.7564 43.2376 66.5572 43.3067 66.3519C43.4933 65.796 43.679 65.2397 43.8646 64.6834C44.1611 63.8667 44.1611 63.8667 44.4555 63.5787Z" fill="#1FA7DF"/>
<path d="M114.828 18.6565C116.285 18.6565 117.743 18.6565 119.244 18.6565C119.244 25.7836 119.244 32.9106 119.244 40.2537C117.787 40.2537 116.329 40.2537 114.828 40.2537C114.828 33.1266 114.828 25.9995 114.828 18.6565Z" fill="#0E5C97"/>
</svg>
