<svg id="SvgjsSvg1001" width="360" height="360" xmlns="http://www.w3.org/2000/svg" version="1.1" xmlns:xlink="http://www.w3.org/1999/xlink" xmlns:svgjs="http://svgjs.com/svgjs"><defs id="SvgjsDefs1002"></defs><g id="SvgjsG1008"><svg xmlns="http://www.w3.org/2000/svg" enable-background="new 0 0 300 225" viewBox="0 0 300 225" width="360" height="360"><path fill="#e6edf9" d="M166.8,39.5c10.9,0.3,17.8-20,50-3.7c24.5,12.5,45.8,66.9,18.8,93.1		c-17.7,17.1-6.6,42.1-87.8,23.5c-30.7-7-96.4,26.4-94.2-50.1c0.6-20.2,18.8-25,23.5-39.7C101.5-14.8,141.6,38.8,166.8,39.5z" class="colore6edf9 svgShape"></path><ellipse cx="150.8" cy="188.9" fill="#e6edf9" rx="113.8" ry="15.3" class="colore6edf9 svgShape"></ellipse><circle cx="165.2" cy="46.3" r="6.7" fill="#f15a24" class="colorf15a24 svgShape"></circle><line x1="161.8" x2="168.5" y1="42.9" y2="49.6" fill="none" stroke="#fff" stroke-linecap="round" stroke-miterlimit="10" stroke-width=".291" class="colorStrokefff svgStroke"></line><line x1="168.5" x2="161.8" y1="42.9" y2="49.6" fill="none" stroke="#fff" stroke-linecap="round" stroke-miterlimit="10" stroke-width=".291" class="colorStrokefff svgStroke"></line><polygon fill="#dda61d" points="184.1 60.6 202.1 73.6 203.5 67.8" class="colordda61d svgShape"></polygon><polygon fill="#ffba00" points="208.2 61.8 184.1 60.6 204.6 72.2 204.3 67" class="colorffba00 svgShape"></polygon><polygon fill="#dda61d" points="184.1 60.6 204.8 66.4 204.3 67 204.4 67.7" class="colordda61d svgShape"></polygon><polygon fill="#3c840d" points="119.2 36.1 130.6 38.8 130.1 35.7" class="color3c840d svgShape"></polygon><polygon fill="#07beb8" points="131.2 31.8 119.2 36.1 131.5 37.6 130.3 35.1" class="color07beb8 svgShape"></polygon><polygon fill="#3c840d" points="119.2 36.1 130.4 34.8 130.3 35.1 130.5 35.5" class="color3c840d svgShape"></polygon><g><path fill="#3376dd" d="M121.1 184h-2.4l-3.7-5.8v5.8h-2.3v-9.3h2.2l3.9 5.7v-5.7h2.3V184zM124.6 183.4c-.7-.4-1.3-1-1.7-1.7-.4-.7-.6-1.6-.6-2.5 0-.9.2-1.7.6-2.5.4-.7 1-1.3 1.7-1.7.7-.4 1.5-.6 2.4-.6.9 0 1.7.2 2.4.6.7.4 1.3 1 1.7 1.7.4.7.6 1.5.6 2.5 0 .9-.2 1.7-.6 2.5-.4.7-1 1.3-1.7 1.7-.7.4-1.5.6-2.4.6C126.1 184 125.3 183.8 124.6 183.4zM128.8 181.2c.4-.5.7-1.2.7-2 0-.8-.2-1.5-.7-2-.4-.5-1-.7-1.8-.7-.8 0-1.4.2-1.8.7-.4.5-.7 1.1-.7 2 0 .8.2 1.5.7 2 .4.5 1 .7 1.8.7C127.7 182 128.3 181.7 128.8 181.2zM139.7 174.7v1.7h-2.3v7.6H135v-7.6h-2.3v-1.7H139.7zM149.9 174.7v1.7h-3.8v2h2.9v1.7h-2.9v3.8h-2.3v-9.3H149.9zM152.9 183.4c-.7-.4-1.3-1-1.7-1.7-.4-.7-.6-1.6-.6-2.5 0-.9.2-1.7.6-2.5.4-.7 1-1.3 1.7-1.7.7-.4 1.5-.6 2.4-.6s1.7.2 2.4.6c.7.4 1.3 1 1.7 1.7.4.7.6 1.5.6 2.5 0 .9-.2 1.7-.6 2.5-.4.7-1 1.3-1.7 1.7-.7.4-1.5.6-2.4.6S153.7 183.8 152.9 183.4zM157.1 181.2c.4-.5.7-1.2.7-2 0-.8-.2-1.5-.7-2-.4-.5-1-.7-1.8-.7-.8 0-1.4.2-1.8.7-.4.5-.7 1.1-.7 2 0 .8.2 1.5.7 2 .4.5 1 .7 1.8.7C156.1 182 156.7 181.7 157.1 181.2zM163.6 174.7v5.5c0 .6.2 1 .4 1.3.3.3.7.5 1.2.5.5 0 1-.2 1.3-.5.3-.3.5-.7.5-1.3v-5.5h2v5.5c0 .8-.2 1.5-.5 2.1-.4.6-.8 1-1.4 1.3s-1.3.4-2 .4c-.7 0-1.4-.1-2-.4-.6-.3-.9-.7-1.3-1.3-.3-.6-.4-1.3-.4-2.1v-5.5H163.6zM179.3 184h-2.5l-3.6-5.8v5.8h-2.3v-9.3h2.2l4 5.7v-5.7h2.3V184zM186.8 175.2c.7.4 1.3.9 1.7 1.6.4.7.6 1.5.6 2.4 0 .9-.2 1.7-.6 2.4-.4.7-1 1.3-1.7 1.7-.7.4-1.6.6-2.6.6h-3.5v-9.3h3.5C185.2 174.7 186.1 174.9 186.8 175.2zM186.1 181.3c.5-.5.7-1.1.7-2 0-.9-.2-1.6-.7-2.1-.5-.5-1.1-.8-2-.8h-1v5.5h1C184.9 182 185.6 181.7 186.1 181.3z" class="color3376dd svgShape"></path></g><g><path fill="#007ffa" d="M36.1 147.1v-16.6l37.8-54.1h23.1v53h9.6v17.8h-9.6v15.4H76.2v-15.4H36.1zM77.7 98.8l-20.1 30.5h20.1V98.8zM124.6 85.2c5.3-7.9 13.9-11.9 25.7-11.9 11.8 0 20.4 4 25.7 11.9 5.3 7.9 8 18.7 8 32.5 0 13.9-2.7 24.8-8 32.7-5.3 7.9-13.9 11.9-25.7 11.9-11.8 0-20.4-4-25.7-11.9-5.3-7.9-8-18.8-8-32.7C116.6 103.9 119.3 93.1 124.6 85.2zM161.1 99c-1.8-4.3-5.4-6.5-10.9-6.5-5.5 0-9.1 2.2-10.9 6.5-1.8 4.4-2.6 10.6-2.6 18.6 0 5.4.3 9.9 1 13.5.6 3.6 1.9 6.4 3.9 8.6 2 2.2 4.8 3.3 8.7 3.3s6.7-1.1 8.7-3.3c2-2.2 3.3-5.1 3.9-8.6.6-3.6 1-8 1-13.5C163.8 109.5 162.9 103.3 161.1 99zM195.3 147.1v-16.6L233 76.3h22.9v53h9.9v17.8h-9.9v15.4h-20.4v-15.4H195.3zM236.9 98.8l-20.2 30.5h20.2V98.8z" class="color007ffa svgShape"></path><g><path fill="none" stroke="#fff" stroke-linecap="round" stroke-miterlimit="10" stroke-width=".291" d="M226.8 85.1c2 .5 4.4.8 7.7.8 11 0 11.9-3.6 21.3-4.2M125.9 83.4c3.4 1.2 6.3 2.5 13 2.5 12 0 12-4.3 23.9-4.3 6 0 9 1.1 12 2.1M70.1 81.7c9.1.6 10.1 4.2 21 4.2 2.3 0 4.1-.2 5.7-.4M236.8 108.6c8.9-.5 10.3-3.6 19-4.2M213.3 104.5c8 .5 9.8 3.2 17.1 4M162.8 104.4c10.8 0 11.8 3.5 20.7 4.2M117.5 104.5c8.9.5 10.2 3.8 19.6 4.2M77.7 106c3.5 1.2 6.4 2.6 13.3 2.6 2.3 0 4.1-.2 5.7-.4M52 107.6c4.5-1.3 7.1-3.2 15.1-3.2 2.7 0 4.8.2 6.5.6M222.6 129.3c3 1.1 6 2.1 12 2.1 11 0 11.9-3.6 21.3-4.2M195.2 130.4c4.7-1.3 7.3-3.3 15.5-3.3 2.9 0 5.2.3 7 .6M163.4 127.1c10 .1 11.4 3.3 19.4 4.1M117.1 127.2c9.6.5 10.5 4 20.7 4.2M77.7 128.8c3.5 1.2 6.5 2.6 13.3 2.6 6 0 9-1.1 12-2.1M36 130.7c1.9.4 4.1.7 7.2.7 7.9 0 10.6-1.9 15-3.2M235.4 154.2c10.3-.2 11.3-3.6 20.5-4.2M125.4 151.5c3.6 1.2 6.5 2.7 13.5 2.7 12 0 12-4.3 23.9-4.3 5.9 0 8.9 1.1 11.9 2.1M76.2 151.1c4.3 1.3 7 3.1 14.8 3.1 2.2 0 4.1-.2 5.6-.4" class="colorStrokefff svgStroke"></path></g><g><path fill="#fb9a78" d="M137.2,93.7l-0.5-0.2c0.3,0,0.3-0.4,0-0.5l-2-0.5c-0.1,0-0.2,0-0.3,0l-0.5,0.1l-1.6-0.2
					c-0.3,0-0.5,0-0.8,0l-2.1,0.4c-0.5,0.1-1,0.3-1.5,0.6l-5,3.8l3.6,1.8l2.7-3.3c0.3,0,0.6,0,0.9-0.1l1.1-0.5c0,0,0.1,0,0.1,0
					l1.3-0.3c0.2-0.1,0.5,0,0.7,0.1l1.2,0.7c0.3,0.2,0.6-0.2,0.4-0.5l-1.1-1l2.3,1.1c0.3,0.2,0.6-0.3,0.3-0.5l-1.1-0.7l1.5,0.4
					C137.4,94.4,137.6,93.8,137.2,93.7z" class="colorfb9a78 svgShape"></path><path fill="none" stroke="#000" stroke-linecap="round" stroke-miterlimit="10" stroke-width=".291" d="M136.8 93.5l-1.8-.7c-.1-.1-.3-.1-.5-.1l-.5-.1M135.5 93.9l-.9-.6c-.2-.1-.4-.2-.6-.3l-1.2-.3M134 94l-.9-.3c-.1 0-.2-.1-.3-.1l-.9-.2" class="colorStroke000 svgStroke"></path><path fill="#fb9a78" d="M172.3,148.1l-1.3,1.8c-0.1,0.1-0.2,0.3-0.2,0.4l-0.9,2.8l0,2.2c0,0.7,0.9,0.7,1.1,0.1
					l0.4-2l0.4-0.6l0.2,3.6l1,3c0.2,0.6,1.1,0.4,1-0.2l-0.3-2.6l1.1,3.1c0.2,0.6,1.1,0.3,0.9-0.3l-0.8-3.4l-0.1-0.7l1.3,3.3
					c0.2,0.5,0.9,0.2,0.8-0.3l-1-3.4l-0.1-1.3l0.6,2.2l0.4,0.9c0.2,0.4,0.7,0.2,0.6-0.2l-0.3-1.4l-0.2-2.5l-0.5-4.3L172.3,148.1z" class="colorfb9a78 svgShape"></path><polyline fill="none" stroke="#000" stroke-linecap="round" stroke-miterlimit="10" stroke-width=".291" points="173.6 156.6 173.4 155.1 173.4 154"></polyline><polyline fill="none" stroke="#000" stroke-linecap="round" stroke-miterlimit="10" stroke-width=".291" points="174.7 155.3 174.6 154.6 174.5 153.7"></polyline><line x1="175.7" x2="175.5" y1="153.5" y2="152.7" fill="none" stroke="#000" stroke-linecap="round" stroke-miterlimit="10" stroke-width=".291" class="colorStroke000 svgStroke"></line><path fill="#f15a24" d="M140.7,138.8c0,0,3.9,5.7,12.5,4c3.7-0.8,7.4-2.7,9.6-11c0,0-2.3-7.3-1.9-11l8,8.4l2,19.3
				h6.1l0.5-22.7c0-1.5-0.5-3-1.5-4.1l-11.3-13.1c-2.1-2.4-5.1-3.6-8.3-3.3l-20.8,2l-10-2.7l3.6-8.5l-4.6-2.1l-5.6,11
				c-1.2,2.4-0.3,5.3,2.1,6.6l14.2,7.2C135.3,118.7,134.7,129.8,140.7,138.8z" class="colorf15a24 svgShape"></path><path fill="none" stroke="#000" stroke-linecap="round" stroke-miterlimit="10" stroke-width=".291" d="M135.3,117.9c0,0-1.4,10.8,5.5,20.9" class="colorStroke000 svgStroke"></path><line x1="125.7" x2="124.7" y1="104.6" y2="105.5" fill="none" stroke="#000" stroke-linecap="round" stroke-miterlimit="10" stroke-width=".291" class="colorStroke000 svgStroke"></line><line x1="168.9" x2="170.4" y1="129.1" y2="128.7" fill="none" stroke="#000" stroke-linecap="round" stroke-miterlimit="10" stroke-width=".291" class="colorStroke000 svgStroke"></line><polyline fill="none" stroke="#000" stroke-linecap="round" stroke-miterlimit="10" stroke-width=".291" points="159.1 118.7 168.9 129.1 171 148.4"></polyline><g><path fill="#fb9a78" d="M144.7,100.8l4.5-0.1l0.2,6.7c0,1-0.8,1.9-1.8,1.9l-0.7,0c-1,0-1.9-0.8-1.9-1.8
					L144.7,100.8z" class="colorfb9a78 svgShape"></path><path fill="#f9744b" d="M147.4,103l-2.7,0.1l0.1,3.2l0.6,0c1.2,0,2.1-1,2.1-2.2L147.4,103z" class="colorf9744b svgShape"></path><path fill="#fb9a78" d="M142.5,94.8l-0.1,7.5c0,1.2,1.1,2.2,2.4,1.9l4.4-1l-0.2-8.7L142.5,94.8z" class="colorfb9a78 svgShape"></path><path fill="none" stroke="#000" stroke-linecap="round" stroke-miterlimit="10" stroke-width=".291" d="M145.1 97.3c0 0 1.1 0 2 .6M144.1 97.3c0 0-.8.1-1.4.5" class="colorStroke000 svgStroke"></path><ellipse cx="143.2" cy="99" fill="#3376dd" rx=".2" ry=".4" transform="matrix(.9996 -.02707 .02707 .9996 -2.628 3.912)" class="color3376dd svgShape"></ellipse><path fill="none" stroke="#000" stroke-linecap="round" stroke-miterlimit="10" stroke-width=".291" d="M144.2 98.9l-.6 1.1c-.1.2 0 .4.2.4l.3 0M145.3 101.3c0 0-1-.2-1.6.2M145.8 98.8c0 0-.3.2-.4.4 0 0 .3 0 .4.1" class="colorStroke000 svgStroke"></path><path fill="#091d40" d="M149.1,101.2c0,0,2.4-3.2,1.4-6.2c0,0,0.6,0.3,0.8,0.6c0,0-0.7-1.7-1.7-1.6
					c0,0,0-1.7-2.4-2c0,0,0.8,0.4,1,0.9c0,0-3.2-1.5-5.2,0s-1.3,5-1.3,5s0.6-2,2.5-2.3c0,0-0.1,0.8-0.7,1.1c0,0,3.4,0.3,4.7-1.1
					C148.1,95.8,147.1,99.7,149.1,101.2z" class="color091d40 svgShape"></path></g><g><ellipse cx="148.9" cy="99.8" fill="#fb9a78" rx="1.3" ry="1.1" transform="rotate(-46.552 148.89 99.752)" class="colorfb9a78 svgShape"></ellipse><path fill="none" stroke="#000" stroke-linecap="round" stroke-miterlimit="10" stroke-width=".291" d="M149.5,100.2c0.4-0.4,0.4-0.9,0.1-1.2c-0.3-0.3-0.8-0.2-1.2,0.1" class="colorStroke000 svgStroke"></path></g><path fill="#f15a24" d="M149.5,104.8l-5.1,0.5c-0.2,0-0.3,0.2-0.3,0.3l0.5,4.9c0,0.2,0.2,0.3,0.3,0.3l5.1-0.5
				c0.2,0,0.3-0.2,0.3-0.3l-0.5-4.9C149.8,104.9,149.6,104.8,149.5,104.8z" class="colorf15a24 svgShape"></path></g></g><g><circle cx="101.9" cy="58.2" r="14.6" fill="#ffba00" class="colorffba00 svgShape"></circle><path fill="#f15a24" d="M105.5,51.4c0.9,0.8,1.4,1.9,1.4,3.3c0,1.3-0.4,2.4-1.3,3.1c-0.9,0.7-2,1.1-3.4,1.1
				l-0.1,1.6h-3.2l-0.1-3.8h1.3c1.1,0,1.9-0.2,2.5-0.5c0.6-0.3,0.9-0.8,0.9-1.5c0-0.5-0.1-0.9-0.4-1.2c-0.3-0.3-0.6-0.4-1.1-0.4
				c-0.5,0-0.9,0.1-1.2,0.4c-0.3,0.3-0.4,0.9-0.4,1.1h-3.4c0-0.9,0.2-1.6,0.5-2.3c0.4-0.7,1-1.2,1.7-1.6c0.8-0.4,1.7-0.6,2.8-0.6
				C103.4,50.3,104.6,50.7,105.5,51.4z M99,65.5c-0.4-0.4-0.6-0.8-0.6-1.4c0-0.6,0.2-1,0.6-1.4c0.4-0.4,0.9-0.6,1.6-0.6
				c0.6,0,1.1,0.2,1.5,0.6c0.4,0.4,0.6,0.9,0.6,1.4c0,0.5-0.2,1-0.6,1.4c-0.4,0.4-0.9,0.6-1.5,0.6C99.9,66.1,99.4,65.9,99,65.5z" class="colorf15a24 svgShape"></path><polygon fill="#ffba00" points="107 71 114 75.3 112.1 67.6" class="colorffba00 svgShape"></polygon></g><g><path fill="#07beb8" d="M220.5,76.1c-0.2-0.1-2.8-2.5-0.4-6.3c2.4-3.7,5.1-4.2,5.1-4.2s0.5,2.7,0.6,4.4
				C225.9,71.9,223.9,77.3,220.5,76.1z" class="color07beb8 svgShape"></path><path fill="none" stroke="#000" stroke-linecap="round" stroke-miterlimit="10" stroke-width=".291" d="M224.3,68.4c0,0-3.7,8.5-6.9,12.6" class="colorStroke000 svgStroke"></path><path fill="#07beb8" d="M249.4,140.5c0.1,0.1,3,0.6,4.2-2.8c1.2-3.3,0.3-5.3,0.3-5.3s-1.9,1-3.1,1.8
				C249.5,135,247,138.9,249.4,140.5z" class="color07beb8 svgShape"></path><path fill="none" stroke="#000" stroke-linecap="round" stroke-miterlimit="10" stroke-width=".291" d="M252.5,134.4c0,0-3.7,6.5-4.8,10.5" class="colorStroke000 svgStroke"></path><path fill="#07beb8" d="M222.1,164.8c0.1,0.1,2.7,1.4,4.8-1.5c2.1-2.8,1.8-5,1.8-5s-2.1,0.4-3.5,0.8
				C223.8,159.6,220.2,162.6,222.1,164.8z" class="color07beb8 svgShape"></path><path fill="none" stroke="#000" stroke-linecap="round" stroke-miterlimit="10" stroke-width=".291" d="M226.9,159.8c0,0-5.4,5.2-7.6,8.8" class="colorStroke000 svgStroke"></path><path fill="#07beb8" d="M205.3,186.5c0,0.1,1.1,2.3,4,1.3c2.8-0.9,3.6-2.5,3.6-2.5s-1.6-0.8-2.8-1.1
				C209,183.8,205.1,184.1,205.3,186.5z" class="color07beb8 svgShape"></path><path fill="none" stroke="#000" stroke-linecap="round" stroke-miterlimit="10" stroke-width=".291" d="M211,185.4c0,0-6.2,0.9-9.4,2.3" class="colorStroke000 svgStroke"></path><path fill="#07beb8" d="M181.9,162.8c0,0.2,1.9,3.7,6.6,2.2c4.6-1.5,6-4.2,6-4.2s-2.7-1.3-4.5-1.9
				C187.9,158.4,181.6,158.9,181.9,162.8z" class="color07beb8 svgShape"></path><path fill="none" stroke="#000" stroke-linecap="round" stroke-miterlimit="10" stroke-width=".291" d="M191.2,161c0,0-10.1,1.6-15.4,3.7" class="colorStroke000 svgStroke"></path><g><path fill="#07beb8" d="M97.2,118.9c-0.1,0.1-0.5,3.3,3.3,4.4c3.7,1.1,5.8,0,5.8,0s-1.2-2-2.1-3.3
				C103.2,118.8,98.8,116.2,97.2,118.9z" class="color07beb8 svgShape"></path><path fill="none" stroke="#000" stroke-linecap="round" stroke-miterlimit="10" stroke-width=".291" d="M104.1,122c0,0-7.3-3.6-11.7-4.6" class="colorStroke000 svgStroke"></path></g><g><path fill="#07beb8" d="M38.3,106.7c0,0.1,1.7,2.4,4.8,0.8c3-1.5,3.7-3.5,3.7-3.5s-2-0.6-3.3-0.8
				C42,103,37.6,104,38.3,106.7z" class="color07beb8 svgShape"></path><path fill="none" stroke="#000" stroke-linecap="round" stroke-miterlimit="10" stroke-width=".291" d="M44.6,104.5c0,0-6.9,2.1-10.3,4.2" class="colorStroke000 svgStroke"></path></g><g><path fill="#07beb8" d="M96.4 175c.1-.2 4-2.6 7.8 1.7 3.7 4.2 3.5 7.6 3.5 7.6s-3.4-.3-5.6-.8C99.7 182.9 93.8 178.6 96.4 175zM87.5 169.7c-.1.1-2.2 2.2.1 5.1 2.2 2.8 4.4 3.2 4.4 3.2s.2-2.2.2-3.6C92.1 172.8 90.2 168.5 87.5 169.7z" class="color07beb8 svgShape"></path><path fill="none" stroke="#000" stroke-linecap="round" stroke-miterlimit="10" stroke-width=".291" d="M103.4 181c0 0-17.2-13.8-25.2-25.1M85.9 165c0 0 1.3 4.9 2.7 7.5" class="colorStroke000 svgStroke"></path></g><g><path fill="#07beb8" d="M230.2 122.3c.1.2 3.6 1.9 6.6-2 2.9-3.8 2.5-6.8 2.5-6.8s-2.9.5-4.7 1.1C232.6 115.3 227.7 119.3 230.2 122.3zM224.8 126.6c.1 0 2.5-.9 1.9-4-.6-3-2.2-4.1-2.2-4.1s-1 1.6-1.5 2.7C222.5 122.4 222.3 126.5 224.8 126.6z" class="color07beb8 svgShape"></path><path fill="none" stroke="#000" stroke-linecap="round" stroke-miterlimit="10" stroke-width=".291" d="M234.8 117.7c0 0-10.9 10.3-15.7 18.3M223.8 129.5c0 0 1.2-2.3 1.4-5.2" class="colorStroke000 svgStroke"></path></g></g></svg></g></svg>